SplineFontDB: 3.2
FontName: SeriousShannsLight
FullName: Serious Shanns Light
FamilyName: Serious Shanns Light
Weight: Light
Copyright: https://github.com/kaBeech/serious-shanns/blob/main/LICENSE
Version: 6.0.0
ItalicAngle: 0
UnderlinePosition: 0
UnderlineWidth: 0
Ascent: 800
Descent: 200
InvalidEm: 0
sfntRevision: 0x00003333
LayerCount: 2
Layer: 0 0 "Back" 1
Layer: 1 0 "Fore" 0
XUID: [1021 329 -1817886000 12366394]
StyleMap: 0x0040
FSType: 4
OS2Version: 3
OS2_WeightWidthSlopeOnly: 0
OS2_UseTypoMetrics: 0
CreationTime: 1532631502
ModificationTime: 315532800
PfmFamily: 81
TTFWeight: 300
TTFWidth: 5
LineGap: 0
VLineGap: 0
Panose: 0 0 0 0 0 0 0 0 0 0
OS2TypoAscent: 613
OS2TypoAOffset: 0
OS2TypoDescent: -188
OS2TypoDOffset: 0
OS2TypoLinegap: 98
OS2WinAscent: 778
OS2WinAOffset: 0
OS2WinDescent: 308
OS2WinDOffset: 0
HheadAscent: 796
HheadAOffset: 0
HheadDescent: -317
HheadDOffset: 0
OS2SubXSize: 317
OS2SubYSize: 293
OS2SubXOff: 0
OS2SubYOff: 37
OS2SupXSize: 317
OS2SupYSize: 293
OS2SupXOff: 0
OS2SupYOff: 171
OS2StrikeYSize: 0
OS2StrikeYPos: 132
OS2CapHeight: 576
OS2XHeight: 485
OS2Vendor: 'NONE'
OS2CodePages: 00000001.00000000
OS2UnicodeRanges: 00000001.00000000.00000000.00000000
MarkAttachClasses: 1
DEI: 91125
LangName: 1033 "" "" "Normal" "FontForge 2.0 : Serious Shanns Light : 1-1-1980" "" "Version 0.2.0"
Encoding: UnicodeBmp
Compacted: 1
UnicodeInterp: none
NameList: AGL For New Fonts
DisplaySize: -48
AntiAlias: 1
FitToEm: 0
WinInfo: 48 16 4
BeginPrivate: 8
BlueValues 32 [-39 -8 492 523 690 718 765 769]
OtherBlues 11 [-297 -287]
BlueScale 9 0.0333333
BlueShift 2 17
StdHW 4 [67]
StdVW 4 [73]
StemSnapH 4 [67]
StemSnapV 7 [68 73]
EndPrivate
BeginChars: 65537 105

StartChar: .notdef
Encoding: 65536 -1 0
Width: 630
GlyphClass: 1
Flags: HMW
HStem: -258 34<144.5 485.5 144.5 519.5> 705 34<144.5 485.5 144.5 144.5>
VStem: 110.5 34<-224 -224 -224 705> 485.5 34<-224 705 705 705>
LayerCount: 2
Fore
SplineSet
110.5 739 m 1
 519.5 739 l 1
 519.5 -258 l 1
 110.5 -258 l 1
 110.5 739 l 1
144.5 -224 m 1
 485.5 -224 l 1
 485.5 705 l 1
 144.5 705 l 1
 144.5 -224 l 1
EndSplineSet
Validated: 524289
EndChar

StartChar: exclam
Encoding: 33 33 2
Width: 630
GlyphClass: 2
Flags: HMW
HStem: -15.3799 135.375
VStem: 243.5 143.001 277.5 78.001 285.5 72
LayerCount: 2
Fore
SplineSet
363.5 738 m 0x90
 363.5 732 362.166992188 694.669921875 359.5 626.002929688 c 0
 357.5 557.3359375 356.5 507.668945312 356.5 477.001953125 c 0
 356.166015625 461.66796875 355.999023438 447.583984375 355.999023438 434.75 c 0
 355.999023438 421.916015625 356.166015625 410.33203125 356.5 399.998046875 c 0
 357.166992188 379.331054688 357.5 361.6640625 357.5 346.997070312 c 0x90
 357.5 332.330078125 357.166992188 322.663085938 356.5 317.99609375 c 0
 355.611328125 311.331054688 355.166992188 302.1484375 355.166992188 290.44921875 c 0
 355.166992188 284.594726562 355.27734375 278.110351562 355.5 270.99609375 c 0xa0
 354.16796875 259.663085938 349.5 250.663085938 341.5 243.99609375 c 0
 334.16796875 237.329101562 325.16796875 233.99609375 314.5 233.99609375 c 2
 311.5 233.99609375 l 2
 300.833984375 234.663085938 292.166992188 238.330078125 285.5 244.997070312 c 0x90
 280.166992188 250.997070312 277.5 259.330078125 277.5 269.997070312 c 0xa0
 277.5 276.6640625 278.83203125 287.997070312 281.5 303.997070312 c 0
 283.5 313.330078125 284.83203125 323.330078125 285.5 333.997070312 c 0
 286.166992188 344.6640625 286.5 367.331054688 286.5 401.998046875 c 0
 286.5 415.998046875 285.83203125 437.331054688 284.5 465.998046875 c 0
 283.166992188 497.331054688 282.5 531.6640625 282.5 568.997070312 c 0
 283.166992188 596.330078125 284.166992188 634.997070312 285.5 684.997070312 c 0
 286.166992188 710.330078125 286.5 726.997070312 286.5 734.997070312 c 0
 287.166992188 750.330078125 291.166992188 761.663085938 298.5 768.99609375 c 0
 305.83203125 776.329101562 315.166015625 779.99609375 326.499023438 779.99609375 c 2
 329.499023438 779.99609375 l 2
 339.499023438 779.99609375 347.499023438 776.99609375 353.499023438 770.99609375 c 0
 360.166015625 764.329101562 363.5 753.333007812 363.5 738 c 0x90
367.499023438 7.9990234375 m 0
 354.83203125 -4.66796875 337.83203125 -12.3349609375 316.499023438 -15.001953125 c 0
 313.83203125 -15.251953125 311.2265625 -15.376953125 308.685546875 -15.376953125 c 0
 290.89453125 -15.376953125 276.166015625 -9.251953125 264.5 2.998046875 c 0
 250.5 16.998046875 243.5 33.998046875 243.5 53.998046875 c 0
 243.5 71.3310546875 250.83203125 86.3310546875 265.5 98.998046875 c 0
 282.166992188 112.998046875 300.833984375 119.998046875 321.5 119.998046875 c 0
 340.16796875 119.998046875 355.5 113.998046875 367.5 101.998046875 c 0
 380.16796875 89.3310546875 386.5 73.6640625 386.5 54.9970703125 c 0xc0
 386.5 36.330078125 380.166015625 20.666015625 367.499023438 7.9990234375 c 0
EndSplineSet
Validated: 524289
EndChar

StartChar: quotedbl
Encoding: 34 34 3
Width: 630
GlyphClass: 2
Flags: HMW
HStem: 444.999 328.002
VStem: 192.5 84 351.502 86.998
LayerCount: 2
Fore
SplineSet
397.499023438 773.000976562 m 0
 407.499023438 773.000976562 416.499023438 770.66796875 424.499023438 766.000976562 c 0
 428.499023438 764.000976562 431.833007812 760.66796875 434.499023438 756.000976562 c 0
 437.166992188 750.66796875 438.499023438 744.66796875 438.499023438 738.000976562 c 2
 438.499023438 696.000976562 l 2
 438.499023438 676.66796875 437.833007812 641.000976562 436.499023438 589.000976562 c 0
 435.166992188 537.000976562 433.166992188 499.333984375 430.499023438 476.000976562 c 0
 429.166992188 466.000976562 424.833984375 458.33203125 417.500976562 452.999023438 c 0
 410.833984375 447.666015625 403.500976562 444.999023438 395.500976562 444.999023438 c 2
 392.500976562 444.999023438 l 2
 381.833984375 445.666015625 371.833984375 449.333007812 362.500976562 456 c 0
 355.833984375 460.666992188 352.500976562 467.333984375 352.500976562 476.000976562 c 0
 353.166992188 477.333984375 353.500976562 479.000976562 353.500976562 481.000976562 c 0
 354.833984375 506.333984375 355.500976562 537.3359375 355.500976562 574.002929688 c 2
 355.500976562 612.000976562 l 2
 354.166992188 665.333984375 352.834960938 709.333984375 351.501953125 744.000976562 c 2
 351.501953125 746.002929688 l 2
 351.501953125 751.3359375 352.833984375 756.000976562 355.500976562 760.000976562 c 0
 358.166992188 764.000976562 361.501953125 766.66796875 365.501953125 768.000976562 c 0
 374.834960938 772.000976562 383.501953125 774.002929688 391.501953125 774.002929688 c 0
 394.168945312 773.3359375 396.166992188 773.000976562 397.499023438 773.000976562 c 0
270.499023438 476.000976562 m 0
 269.166015625 465.333984375 264.833984375 457.666015625 257.500976562 452.999023438 c 0
 249.500976562 447.666015625 241.833984375 444.999023438 234.500976562 444.999023438 c 2
 232.500976562 444.999023438 l 2
 221.833984375 445.666015625 211.833984375 449.333007812 202.500976562 456 c 0
 195.833984375 460.666992188 192.500976562 467.333984375 192.500976562 476.000976562 c 2
 192.500976562 481.000976562 l 2
 194.500976562 507.66796875 195.500976562 540.000976562 195.500976562 578.000976562 c 0
 194.833984375 588.66796875 194.500976562 600.000976562 194.500976562 612.000976562 c 0
 193.166992188 665.333984375 192.166992188 709.333984375 191.500976562 744.000976562 c 2
 191.500976562 747.000976562 l 2
 191.500976562 751.66796875 192.500976562 756.000976562 194.500976562 760.000976562 c 0
 197.166992188 764.000976562 200.500976562 766.66796875 204.500976562 768.000976562 c 0
 213.643554688 771.4296875 223.030273438 773.14453125 232.663085938 773.14453125 c 0
 234.268554688 773.14453125 235.880859375 773.096679688 237.499023438 773.000976562 c 0
 247.499023438 773.000976562 256.499023438 770.66796875 264.499023438 766.000976562 c 0
 267.833007812 764.000976562 270.833007812 760.66796875 273.499023438 756.000976562 c 0
 276.166992188 750.66796875 277.499023438 744.334960938 277.499023438 737.001953125 c 0
 278.166992188 729.001953125 278.499023438 715.668945312 278.499023438 697.001953125 c 0
 278.499023438 678.334960938 277.833007812 642.66796875 276.499023438 590.000976562 c 0
 275.166992188 537.333984375 273.166015625 499.333984375 270.499023438 476.000976562 c 0
EndSplineSet
Validated: 524289
EndChar

StartChar: numbersign
Encoding: 35 35 4
Width: 630
GlyphClass: 2
Flags: HMW
HStem: 200 63.999 454.998 65.002 695.002 20G
LayerCount: 2
Fore
SplineSet
274.502929688 454.998046875 m 1
 235.498046875 263.999023438 l 1
 270.831054688 264.666015625 314.168945312 264.998046875 365.501953125 264.998046875 c 2
 373.501953125 264.998046875 l 1
 385.501953125 324.998046875 397.168945312 388.331054688 408.501953125 454.998046875 c 1
 274.502929688 454.998046875 l 1
231.497070312 200 m 1
 223.497070312 200 l 1
 208.1640625 122.666992188 197.497070312 70.6669921875 191.497070312 44 c 0
 187.497070312 32 179.1640625 22.3330078125 166.497070312 15 c 0
 158.497070312 10.3330078125 150.830078125 7.9990234375 143.497070312 7.9990234375 c 0
 140.1640625 7.33203125 136.831054688 7.6650390625 133.498046875 8.998046875 c 0
 124.165039062 10.998046875 117.165039062 17.666015625 112.498046875 28.9990234375 c 0
 109.831054688 35.666015625 108.497070312 42.3330078125 108.497070312 49 c 0
 108.497070312 55.6669921875 109.498046875 62.6669921875 111.498046875 70 c 0
 116.831054688 86.6669921875 127.1640625 129.666992188 142.497070312 199 c 1
 100.497070312 199 l 2
 85.1640625 199 74.1640625 201.666992188 67.4970703125 207 c 0
 61.4970703125 211.666992188 58.4970703125 218 58.4970703125 226 c 2
 58.4970703125 228 l 2
 59.1640625 236.666992188 62.1640625 243.666992188 67.4970703125 249 c 0
 73.4970703125 255.666992188 83.830078125 259.333984375 98.4970703125 260.000976562 c 0
 103.1640625 260.66796875 111.1640625 261.000976562 122.497070312 261.000976562 c 0
 133.830078125 261.000976562 144.830078125 261.333984375 155.497070312 262.000976562 c 1
 193.497070312 454.000976562 l 1
 181.497070312 454.000976562 l 1
 139.497070312 453.000976562 l 1
 136.497070312 453.000976562 l 2
 124.497070312 452.333984375 115.1640625 455.000976562 108.497070312 461.000976562 c 0
 101.830078125 466.333984375 98.4970703125 473.333984375 98.4970703125 482.000976562 c 2
 98.4970703125 485.000976562 l 2
 98.4970703125 493.000976562 101.497070312 500.000976562 107.497070312 506.000976562 c 0
 114.1640625 512.66796875 124.830078125 516.334960938 139.497070312 517.001953125 c 0
 152.1640625 517.668945312 171.498046875 518.001953125 197.498046875 518.001953125 c 2
 205.498046875 518.001953125 l 1
 235.498046875 680.001953125 l 2
 240.165039062 694.001953125 246.83203125 703.668945312 255.499023438 709.001953125 c 0
 262.166015625 713.001953125 268.833007812 715.001953125 275.5 715.001953125 c 0
 278.166992188 715.001953125 281.166992188 714.668945312 284.5 714.001953125 c 0
 296.5 711.334960938 305.5 705.66796875 311.5 697.000976562 c 0
 314.833007812 691.66796875 316.5 685.000976562 316.5 677.000976562 c 0
 317.166992188 672.333984375 316.833984375 667.666992188 315.500976562 663 c 2
 286.500976562 520 l 1
 419.500976562 520 l 1
 447.500976562 673 l 2
 452.16796875 687 458.834960938 696.666992188 467.501953125 702 c 0
 473.501953125 706 479.834960938 708 486.501953125 708 c 0
 489.834960938 707.333007812 493.501953125 706.666015625 497.501953125 705.999023438 c 0
 509.501953125 703.33203125 518.501953125 697.999023438 524.501953125 689.999023438 c 0
 527.834960938 685.33203125 529.501953125 679.33203125 529.501953125 671.999023438 c 0
 529.501953125 667.33203125 528.834960938 661.999023438 527.501953125 655.999023438 c 0
 520.168945312 627.999023438 511.168945312 582.999023438 500.501953125 520.999023438 c 1
 512.501953125 520.999023438 l 1
 523.501953125 520.999023438 l 2
 537.501953125 520.999023438 548.834960938 517.33203125 557.501953125 509.999023438 c 0
 566.168945312 502.666015625 570.8359375 495.333007812 571.502929688 488 c 0
 570.8359375 479.333007812 567.502929688 471.666015625 561.502929688 464.999023438 c 0
 555.502929688 458.999023438 545.8359375 455.665039062 532.502929688 454.998046875 c 2
 487.502929688 454.998046875 l 1
 455.502929688 263.999023438 l 1
 508.501953125 263.999023438 l 2
 521.168945312 263.999023438 529.502929688 261.666015625 533.502929688 256.999023438 c 0
 537.502929688 252.33203125 539.8359375 245.33203125 540.502929688 235.999023438 c 0
 540.502929688 225.33203125 538.502929688 217.33203125 534.502929688 211.999023438 c 0
 529.8359375 205.33203125 521.168945312 201.999023438 508.501953125 201.999023438 c 2
 444.501953125 201.999023438 l 1
 430.501953125 121.33203125 420.501953125 67.33203125 414.501953125 39.9990234375 c 0
 409.834960938 28.666015625 401.834960938 19.9990234375 390.501953125 13.9990234375 c 0
 383.168945312 9.9990234375 375.8359375 7.9990234375 368.502929688 7.9990234375 c 0
 365.169921875 7.33203125 361.502929688 7.6650390625 357.502929688 8.998046875 c 0
 347.502929688 11.6650390625 340.169921875 17.998046875 335.502929688 27.998046875 c 0
 332.8359375 33.998046875 331.502929688 39.998046875 331.502929688 45.998046875 c 0
 331.502929688 51.998046875 332.502929688 58.6650390625 334.502929688 65.998046875 c 0
 341.169921875 92.6650390625 350.502929688 137.665039062 362.502929688 200.998046875 c 1
 350.502929688 200.998046875 l 1
 231.497070312 200 l 1
EndSplineSet
Validated: 524289
EndChar

StartChar: dollar
Encoding: 36 36 5
Width: 630
GlyphClass: 2
Flags: HMW
HStem: -18.9971 64.9971 368 63.0029 653 59<349.498 358.5 349.498 358.5>
VStem: 107.501 72.999 287.5 58 287.5 63.002 466.499 73.999
LayerCount: 2
Fore
SplineSet
462 245.50390625 m 0xfa
 459 257.170898438 453.5 269.337890625 445.5 282.004882812 c 0
 437.5 294.671875 425.833007812 306.338867188 410.5 317.005859375 c 0
 395.166992188 327.005859375 377.166992188 336.005859375 356.5 344.005859375 c 2
 345.5 349.005859375 l 1
 345.5 335.005859375 l 1
 344.499023438 187.005859375 l 2
 343.83203125 132.338867188 343.165039062 89.671875 342.498046875 59.0048828125 c 1
 355.499023438 65 l 2
 386.166015625 79 412.166015625 98.337890625 433.499023438 123.004882812 c 0
 455.499023438 147.671875 466.499023438 176.004882812 466.499023438 208.004882812 c 0
 466.499023438 221.337890625 465 233.836914062 462 245.50390625 c 0xfa
208.498046875 469.002929688 m 0
 225.165039062 451.669921875 247.83203125 439.002929688 276.499023438 431.002929688 c 2
 287.5 429.002929688 l 1xf6
 288.166992188 483.002929688 288.499023438 551.002929688 288.499023438 633.002929688 c 2
 288.499023438 646.002929688 l 1
 276.499023438 643.002929688 l 2
 249.166015625 633.669921875 226.833007812 619.336914062 209.5 600.00390625 c 0
 190.166992188 581.336914062 180.5 558.336914062 180.5 531.00390625 c 0
 180.5 507.00390625 189.831054688 486.3359375 208.498046875 469.002929688 c 0
211.5 -11 m 0
 191.5 -5.6669921875 174.501953125 2 160.501953125 12 c 0
 131.834960938 30.6669921875 110.834960938 52.333984375 97.501953125 77.0009765625 c 0
 92.1689453125 89.0009765625 89.501953125 99.333984375 89.501953125 108.000976562 c 0
 89.501953125 119.333984375 94.8349609375 127.666992188 105.501953125 133 c 0
 112.834960938 136.333007812 118.16796875 138.333007812 121.500976562 139 c 0
 124.833984375 139.666992188 127.500976562 140 129.500976562 140 c 2
 135.500976562 140 l 2
 139.500976562 140 143.66796875 138.166992188 148.000976562 134.5 c 0
 152.333984375 130.833007812 157.166992188 125 162.5 117 c 0
 176.5 95 192.833007812 77.6669921875 211.5 65 c 0
 228.166992188 52.3330078125 249.166015625 46 274.499023438 46 c 2
 276.499023438 46 l 1
 285.5 46 l 1
 286.833007812 164 287.5 266.666992188 287.5 354 c 2
 287.5 363 l 1
 278.833007812 363.666992188 271 364.5 264 365.5 c 2
 246.5 368 l 2
 225.833007812 370.666992188 206.5 376.666992188 188.5 386 c 0
 169.833007812 395.333007812 154.833007812 406.666015625 143.5 419.999023438 c 0
 132.166992188 433.33203125 123.333984375 447.499023438 117.000976562 462.499023438 c 0
 110.66796875 477.499023438 107.500976562 491.999023438 107.500976562 505.999023438 c 0
 107.500976562 528.666015625 111.16796875 550.499023438 118.500976562 571.499023438 c 0
 125.833984375 592.499023438 136.500976562 611.999023438 150.500976562 629.999023438 c 0
 164.500976562 647.999023438 183.16796875 663.666015625 206.500976562 676.999023438 c 0
 228.500976562 690.33203125 253.499023438 699.665039062 281.499023438 704.998046875 c 2
 287.5 705.998046875 l 1xfa
 288.833007812 727.331054688 289.500976562 749.331054688 289.500976562 771.998046875 c 0
 290.16796875 786.665039062 292.66796875 797.83203125 297.000976562 805.499023438 c 0
 301.333984375 813.166015625 308.500976562 816.999023438 318.500976562 816.999023438 c 2
 320.500976562 816.999023438 l 2
 331.16796875 817.666015625 338.834960938 813.999023438 343.501953125 805.999023438 c 0
 348.168945312 798.666015625 350.501953125 788.333007812 350.501953125 775 c 2
 350.501953125 713 l 1xf6
 358.5 712 l 2
 371.833007812 711.333007812 390.16796875 708 413.500976562 702 c 0
 438.833984375 696 457.833984375 690.666992188 470.500976562 686 c 0
 480.500976562 682.666992188 487.833007812 677 492.5 669 c 0
 496.5 662.333007812 498.500976562 655.666015625 498.500976562 648.999023438 c 0
 498.500976562 646.999023438 498.16796875 644.666015625 497.500976562 641.999023438 c 0
 496.833984375 635.999023438 495.166992188 631.666015625 492.5 628.999023438 c 0
 489.166992188 626.33203125 485.666015625 624.83203125 481.999023438 624.499023438 c 0
 478.33203125 624.166015625 474.833007812 623.999023438 471.5 623.999023438 c 0
 458.166992188 623.999023438 443.5 627.666015625 427.5 634.999023438 c 0
 418.833007812 638.999023438 409 642.83203125 398 646.499023438 c 0
 387 650.166015625 373.833007812 652.333007812 358.5 653 c 2
 349.498046875 653 l 1
 345.5 423 l 1xfa
 353.5 421 l 2
 380.833007812 417.666992188 405.166015625 411 426.499023438 401 c 0
 449.83203125 391 468.33203125 379.666992188 481.999023438 367 c 0
 495.666015625 354.333007812 507.166015625 339.833007812 516.499023438 323.5 c 0
 525.83203125 307.166992188 532.165039062 291 535.498046875 275 c 0
 538.831054688 259 540.498046875 242.333007812 540.498046875 225 c 0
 540.498046875 195.666992188 535.331054688 167.833984375 524.998046875 141.500976562 c 0
 514.665039062 115.16796875 500.665039062 92.3349609375 482.998046875 73.001953125 c 0
 465.331054688 53.6689453125 444.498046875 37.001953125 420.498046875 23.001953125 c 0
 399.165039062 9.001953125 375.498046875 -1.6650390625 349.498046875 -8.998046875 c 2
 342.498046875 -11 l 1
 342.498046875 -17.998046875 l 2
 343.165039062 -57.3310546875 343.83203125 -83.998046875 344.499023438 -97.998046875 c 0
 343.166015625 -109.998046875 338.999023438 -119.165039062 331.999023438 -125.498046875 c 0
 324.999023438 -131.831054688 316.499023438 -134.998046875 306.499023438 -134.998046875 c 2
 305.499023438 -134.998046875 l 1
 304.499023438 -134.998046875 l 2
 296.499023438 -134.998046875 290.499023438 -131.998046875 286.499023438 -125.998046875 c 0
 283.166015625 -120.665039062 281.499023438 -112.998046875 281.499023438 -102.998046875 c 2
 281.499023438 -93.998046875 l 2
 282.83203125 -79.3310546875 283.499023438 -57.6640625 283.499023438 -28.9970703125 c 2
 283.499023438 -18.9970703125 l 1
 274.499023438 -18.9970703125 l 1
 270.499023438 -18.9970703125 l 2
 249.83203125 -18.9970703125 230.166992188 -16.3330078125 211.5 -11 c 0
EndSplineSet
Validated: 524289
EndChar

StartChar: percent
Encoding: 37 37 6
Width: 630
GlyphClass: 2
Flags: HMW
HStem: -18.001 57 180.998 54.0323 442 54.999 642.043 52.9575
VStem: 75.4986 53.001 92.002 68.499 251.5 45.998 332.501 49.002 442.499 70.001 502.573 51.9275
LayerCount: 2
Fore
SplineSet
392.500976562 58.9990234375 m 0xf340
 401.168945312 46.9990234375 416.834960938 40.33203125 439.501953125 38.9990234375 c 2
 442.498046875 38.9990234375 l 2xf380
 460.498046875 38.9990234375 474.668945312 45.166015625 485.001953125 57.4990234375 c 0
 495.334960938 69.83203125 501.168945312 85.6650390625 502.500976562 104.998046875 c 2
 502.500976562 105.998046875 l 1
 502.500976562 108.998046875 l 2
 502.548828125 110.474609375 502.572265625 111.9296875 502.572265625 113.362304688 c 0
 502.572265625 131.977539062 498.548828125 146.85546875 490.500976562 157.998046875 c 0
 479.168945312 173.331054688 461.834960938 180.998046875 438.501953125 180.998046875 c 0
 420.501953125 180.998046875 406.501953125 173.998046875 396.501953125 159.998046875 c 0
 387.168945312 145.998046875 382.168945312 128.331054688 381.501953125 106.998046875 c 2
 381.501953125 102.998046875 l 2
 381.450195312 101.561523438 381.424804688 100.1484375 381.424804688 98.7587890625 c 0
 381.424804688 82.0966796875 385.116210938 68.8447265625 392.500976562 58.9990234375 c 0xf340
377.499023438 -0.5009765625 m 0
 362.166015625 11.166015625 350.833007812 25.9990234375 343.499023438 43.9990234375 c 0
 336.166015625 61.9990234375 332.500976562 81.33203125 332.500976562 101.999023438 c 2
 332.500976562 103.999023438 l 2
 332.500976562 142.666015625 342.168945312 174.166015625 361.500976562 198.499023438 c 0
 380.833984375 222.83203125 408.833984375 234.999023438 445.500976562 234.999023438 c 0
 446.500976562 235.01953125 447.497070312 235.030273438 448.485351562 235.030273438 c 0
 479.141601562 235.030273438 504.479492188 225.01953125 524.500976562 204.999023438 c 0
 534.500976562 194.33203125 542.166992188 179.999023438 547.500976562 161.999023438 c 0
 552.166992188 147.999023438 554.500976562 132.33203125 554.500976562 114.999023438 c 0xf340
 554.500976562 110.999023438 554.166992188 104.999023438 553.500976562 96.9990234375 c 0
 551.500976562 58.33203125 540.833007812 29.33203125 521.500976562 9.9990234375 c 0
 502.166992188 -8.66796875 472.833984375 -18.0009765625 433.500976562 -18.0009765625 c 2
 430.500976562 -18.0009765625 l 2
 410.500976562 -18.0009765625 392.833007812 -12.16796875 377.499023438 -0.5009765625 c 0
140.501953125 517.999023438 m 0
 149.834960938 505.999023438 167.168945312 498.999023438 192.500976562 496.999023438 c 2
 193.500976562 496.999023438 l 2
 211.500976562 496.999023438 225.168945312 503.33203125 234.500976562 515.999023438 c 0
 243.833984375 528.666015625 249.166992188 544.999023438 250.500976562 564.999023438 c 0
 251.166992188 566.33203125 251.500976562 567.999023438 251.500976562 569.999023438 c 0
 250.833007812 593.33203125 245.500976562 610.999023438 235.500976562 622.999023438 c 0
 224.833007812 635.666015625 209.833007812 641.999023438 190.500976562 641.999023438 c 0
 189.659179688 642.028320312 188.826171875 642.04296875 188.001953125 642.04296875 c 0
 169.870117188 642.04296875 155.704101562 635.028320312 145.500976562 620.999023438 c 0
 136.166992188 607.666015625 130.500976562 589.999023438 128.500976562 567.999023438 c 2
 128.500976562 562.999023438 l 2xfb
 128.452148438 561.618164062 128.428710938 560.259765625 128.428710938 558.922851562 c 0
 128.428710938 541.545898438 132.454101562 527.904296875 140.501953125 517.999023438 c 0
198.499023438 195 m 2
 343.499023438 472 l 2
 392.166015625 565.333007812 425.166015625 632.333007812 442.499023438 673 c 0
 450.499023438 685 461.833007812 691 476.499023438 691 c 0
 483.166015625 691 489.833007812 689.333007812 496.500976562 686 c 0
 507.166992188 680.666992188 512.500976562 673.666992188 512.500976562 665 c 0
 512.500976562 657.666992188 509.168945312 648.666992188 502.501953125 638 c 0
 477.168945312 597.333007812 420.833984375 493.666015625 333.500976562 326.999023438 c 0
 247.500976562 160.33203125 189.833984375 47.33203125 160.500976562 -12.0009765625 c 0
 149.168945312 -32.0009765625 137.500976562 -42.0009765625 125.500976562 -42.0009765625 c 0
 121.500976562 -42.0009765625 116.66796875 -40.66796875 111.000976562 -38.0009765625 c 0
 105.333984375 -35.333984375 100.833984375 -31.833984375 97.5009765625 -27.5009765625 c 0
 94.16796875 -23.16796875 92.3349609375 -17.5009765625 92.001953125 -10.5009765625 c 0xf780
 91.982421875 -10.08984375 91.97265625 -9.6728515625 91.97265625 -9.2509765625 c 0
 91.97265625 -2.49609375 94.482421875 5.5869140625 99.501953125 14.9990234375 c 0
 113.501953125 43.666015625 146.499023438 103.666992188 198.499023438 195 c 2
124.998046875 459.5 m 0
 108.665039062 471.166992188 96.33203125 486 87.9990234375 504 c 0
 79.666015625 522 75.4990234375 541.333007812 75.4990234375 562 c 2
 75.4990234375 564 l 2xfb
 75.4990234375 602.666992188 86.166015625 634.166992188 107.499023438 658.5 c 0
 128.833007812 682.833007812 158.833007812 695 197.499023438 695 c 0
 198.416015625 695.020507812 199.329101562 695.03125 200.235351562 695.03125 c 0
 228.348632812 695.03125 251.770507812 685.020507812 270.498046875 665 c 0
 279.831054688 654.333007812 286.831054688 640 291.498046875 622 c 0
 295.498046875 608 297.498046875 591.666992188 297.498046875 573 c 0
 297.498046875 526.333007812 287.498046875 492.333007812 267.498046875 471 c 0
 249.498046875 451.666992188 221.498046875 442 183.498046875 442 c 2
 181.498046875 442 l 2
 160.165039062 442 141.331054688 447.833007812 124.998046875 459.5 c 0
EndSplineSet
Validated: 524289
EndChar

StartChar: ampersand
Encoding: 38 38 7
Width: 630
GlyphClass: 2
Flags: HMW
HStem: -32 74.001 655.001 59.1001
VStem: 66.4986 80.0029 152.499 76.002 387.501 63.1093
LayerCount: 2
Fore
SplineSet
549.49609375 11 m 2
 549.49609375 3 l 2
 547.49609375 -13 542.828125 -23 535.49609375 -27 c 0
 531.49609375 -29.6669921875 526.828125 -31 521.49609375 -31 c 0
 516.828125 -31 511.162109375 -29.3330078125 504.495117188 -26 c 0
 491.162109375 -19.3330078125 479.495117188 -7.3330078125 469.495117188 10 c 0
 467.495117188 13.3330078125 463.495117188 23 457.495117188 39 c 0
 451.495117188 55 446.495117188 67 442.495117188 75 c 2
 435.495117188 90 l 1
 414.828125 61.3330078125 402.828125 45 399.495117188 41 c 0
 396.162109375 37.6669921875 390.828125 32 383.49609375 24 c 0
 376.163085938 16 369.830078125 10 364.49609375 6 c 0
 359.1640625 2.6669921875 352.1640625 -2 343.49609375 -8 c 0
 335.49609375 -14 327.49609375 -18.3330078125 319.49609375 -21 c 0
 311.49609375 -23.6669921875 302.1640625 -26 291.49609375 -28 c 0
 280.1640625 -30.6669921875 268.831054688 -32 257.498046875 -32 c 0
 222.1640625 -32 189.83203125 -23 160.499023438 -5 c 0
 131.166015625 13 108.166015625 37 91.498046875 67 c 0
 74.83203125 97.6669921875 66.498046875 130.333984375 66.498046875 165.000976562 c 0
 66.498046875 219.000976562 76.498046875 265.333984375 96.498046875 304.000976562 c 0
 120.499023438 352.000976562 160.499023438 388.333984375 216.499023438 413.000976562 c 2
 226.499023438 418.000976562 l 1
 216.499023438 434.000976562 207.166015625 449.000976562 198.499023438 463.000976562 c 0
 189.83203125 476.333984375 183.83203125 486.000976562 180.499023438 492.000976562 c 0
 177.166015625 498.000976562 173.166015625 505.333984375 168.499023438 514.000976562 c 0
 163.83203125 522.66796875 160.83203125 530.000976562 159.499023438 536.000976562 c 0
 154.83203125 554.000976562 152.499023438 571.66796875 152.499023438 589.000976562 c 0
 152.499023438 600.333984375 154.166015625 611.333984375 157.499023438 622.000976562 c 0
 160.166015625 632.66796875 165.166015625 643.66796875 172.499023438 655.000976562 c 0
 179.83203125 666.333984375 188.83203125 676.333984375 199.499023438 685.000976562 c 0
 210.166015625 693.66796875 224.499023438 700.66796875 242.499023438 706.000976562 c 0
 259.83203125 711.333984375 279.83203125 714.000976562 302.499023438 714.000976562 c 0
 304.366210938 714.067382812 306.2265625 714.100585938 308.080078125 714.100585938 c 0
 324.759765625 714.100585938 340.8984375 711.400390625 356.499023438 706.000976562 c 0
 374.499023438 700.000976562 390.499023438 691.66796875 404.499023438 681.000976562 c 0
 418.499023438 669.66796875 429.83203125 655.334960938 438.499023438 638.001953125 c 0
 446.499023438 620.668945312 450.499023438 601.3359375 450.499023438 580.002929688 c 0
 450.573242188 577.631835938 450.609375 575.28515625 450.609375 572.962890625 c 0
 450.609375 554.396484375 448.240234375 537.41015625 443.5 522.00390625 c 0
 438.166992188 504.00390625 431.5 489.336914062 423.5 478.00390625 c 0
 415.5 466.670898438 405.5 455.670898438 393.5 445.00390625 c 0
 381.5 434.336914062 370.5 425.669921875 360.5 419.002929688 c 0
 349.83203125 412.3359375 337.5 405.668945312 323.5 399.001953125 c 2
 314.5 395.001953125 l 1
 319.5 386.001953125 l 2
 332.166992188 364.668945312 352.833984375 333.668945312 381.5 293.001953125 c 0
 410.16796875 252.334960938 428.5 225.66796875 436.5 213.000976562 c 2
 445.5 198.000976562 l 1
 455.5 217.333984375 463.16796875 233.333984375 468.5 246.000976562 c 0
 474.5 258.66796875 479.16796875 268.66796875 482.5 276.000976562 c 0
 485.833984375 283.333984375 488.5 288.666992188 490.5 292 c 0
 501.16796875 308 510.834960938 317.666992188 519.501953125 321 c 0
 522.16796875 321.666992188 525.16796875 322 528.501953125 322 c 0
 534.501953125 322 540.834960938 320.333007812 547.501953125 317 c 0
 555.501953125 313.666992188 560.501953125 306.333984375 562.501953125 295.000976562 c 0
 563.16796875 291.66796875 563.501953125 288.66796875 563.501953125 286.000976562 c 0
 563.501953125 276.000976562 560.501953125 264.66796875 554.501953125 252.000976562 c 0
 551.834960938 246.66796875 542.16796875 233.66796875 525.5 213.000976562 c 0
 508.833984375 192.333984375 494.833984375 173.333984375 483.5 156.000976562 c 2
 480.5 151.000976562 l 1
 491.16796875 133.000976562 510.5 99.333984375 538.5 50.0009765625 c 0
 545.833984375 38.0009765625 549.49609375 25 549.49609375 11 c 2
228.5 572.000976562 m 0
 228.5 554.000976562 233.16796875 534.333984375 242.5 513.000976562 c 0
 252.5 492.333984375 264.16796875 474.000976562 277.5 458.000976562 c 2
 281.5 453.000976562 l 1
 287.5 455.000976562 l 2
 302.833984375 459.66796875 315.833984375 464.66796875 326.5 470.000976562 c 0
 337.16796875 475.333984375 347.5 482.333984375 357.5 491.000976562 c 0
 367.5 499.66796875 374.833984375 510.66796875 379.5 524.000976562 c 0
 384.833984375 536.66796875 387.5 551.66796875 387.5 569.000976562 c 0
 387.5 597.000976562 378.833984375 618.333984375 361.5 633.000976562 c 0
 344.16796875 647.66796875 323.834960938 655.000976562 300.501953125 655.000976562 c 0
 273.834960938 655.000976562 254.501953125 646.000976562 242.501953125 628.000976562 c 0
 233.16796875 614.000976562 228.5 595.333984375 228.5 572.000976562 c 0
146.501953125 174.000976562 m 0
 146.501953125 136.66796875 156.834960938 105.66796875 177.501953125 81.0009765625 c 0
 198.16796875 55.0009765625 225.16796875 42.0009765625 258.501953125 42.0009765625 c 0
 275.834960938 42.66796875 293.834960938 46.0009765625 312.501953125 52.0009765625 c 0
 319.16796875 54.0009765625 326.16796875 57.66796875 333.501953125 63.0009765625 c 0
 341.501953125 67.66796875 347.501953125 71.66796875 351.501953125 75.0009765625 c 0
 355.501953125 78.333984375 360.501953125 83.333984375 366.501953125 90.0009765625 c 0
 372.501953125 96.66796875 376.501953125 101.334960938 378.501953125 104.001953125 c 0
 381.16796875 106.001953125 384.8359375 110.668945312 389.502929688 118.001953125 c 0
 394.169921875 125.334960938 398.169921875 131.001953125 401.502929688 135.001953125 c 1
 387.502929688 165.001953125 376.502929688 187.334960938 368.502929688 202.001953125 c 0
 359.8359375 218.001953125 343.502929688 243.334960938 319.502929688 278.001953125 c 0
 295.502929688 312.668945312 276.8359375 340.668945312 263.502929688 362.001953125 c 1
 255.502929688 359.001953125 l 2
 234.8359375 349.001953125 217.16796875 337.334960938 202.501953125 324.001953125 c 0
 187.16796875 310.668945312 175.501953125 295.668945312 167.501953125 279.001953125 c 0
 160.16796875 262.334960938 154.8359375 245.66796875 151.502929688 229.000976562 c 0
 148.169921875 212.333984375 146.501953125 194.000976562 146.501953125 174.000976562 c 0
EndSplineSet
Validated: 524289
EndChar

StartChar: quotesingle
Encoding: 39 39 8
Width: 630
GlyphClass: 2
Flags: HMW
HStem: 456 307.126
VStem: 272.5 84
LayerCount: 2
Fore
SplineSet
350.499023438 487 m 0
 349.166015625 476.333007812 344.833984375 468.333007812 337.500976562 463 c 0
 330.166992188 458.333007812 322.500976562 456 314.500976562 456 c 2
 312.500976562 456 l 2
 301.166992188 456.666992188 291.166992188 460.333984375 282.500976562 467.000976562 c 0
 275.833984375 472.333984375 272.500976562 479.333984375 272.500976562 488.000976562 c 2
 272.500976562 491.000976562 l 1
 272.500976562 492.000976562 l 2
 274.346679688 519.694335938 275.270507812 551.71875 275.270507812 588.075195312 c 0
 275.270507812 630.48828125 274.013671875 678.796875 271.500976562 733.000976562 c 2
 271.500976562 735.000976562 l 2
 271.500976562 740.333984375 272.500976562 745.000976562 274.500976562 749.000976562 c 0
 277.166992188 753.000976562 280.500976562 755.66796875 284.500976562 757.000976562 c 0
 293.833984375 761.083984375 303.420898438 763.125976562 313.264648438 763.125976562 c 0
 314.670898438 763.125976562 316.083007812 763.083984375 317.499023438 763.000976562 c 0
 327.499023438 762.333984375 336.499023438 759.666992188 344.499023438 755 c 0
 348.499023438 753 351.833007812 749.666992188 354.499023438 745 c 0
 356.499023438 740.333007812 357.499023438 734 357.499023438 726 c 0
 358.166992188 718 358.499023438 705 358.499023438 687 c 0
 358.499023438 669 357.833007812 637 356.499023438 591 c 0
 355.166992188 545 353.166015625 510.333007812 350.499023438 487 c 0
EndSplineSet
Validated: 524289
EndChar

StartChar: parenleft
Encoding: 40 40 9
Width: 630
GlyphClass: 2
Flags: HMW
HStem: -122 64.999 743 61<414.239 427.572>
VStem: 175.428 78.1449
LayerCount: 2
Fore
SplineSet
453.572265625 -93 m 0
 453.572265625 -101 450.239257812 -107.666992188 443.572265625 -113 c 0
 437.572265625 -119 430.905273438 -122 423.572265625 -122 c 0
 380.905273438 -121.333007812 342.23828125 -105.666015625 307.571289062 -74.9990234375 c 0
 272.904296875 -44.33203125 244.571289062 -1.33203125 222.571289062 54.0009765625 c 0
 200.571289062 110.000976562 185.904296875 174.333984375 178.571289062 247.000976562 c 0
 176.571289062 267.000976562 175.571289062 292.000976562 175.571289062 322.000976562 c 0
 175.475585938 326.288085938 175.427734375 330.731445312 175.427734375 335.331054688 c 0
 175.427734375 362.921875 177.142578125 396.145507812 180.571289062 435.000976562 c 0
 187.904296875 512.333984375 200.904296875 575.666992188 219.571289062 625 c 0
 227.571289062 647 238.571289062 668.333007812 252.571289062 689 c 0
 266.571289062 709.666992188 282.571289062 728.666992188 300.571289062 746 c 0
 317.904296875 763.333007812 337.571289062 777.333007812 359.571289062 788 c 0
 382.23828125 798.666992188 403.905273438 804 424.572265625 804 c 0
 434.572265625 804 441.905273438 802 446.572265625 798 c 0
 451.905273438 793.333007812 454.572265625 785.333007812 454.572265625 774 c 0
 454.572265625 762.666992188 451.905273438 754.666992188 446.572265625 750 c 0
 440.572265625 745.333007812 432.572265625 743 422.572265625 743 c 0
 403.239257812 743 385.239257812 737.333007812 368.572265625 726 c 0
 352.572265625 715.333007812 338.572265625 700.666015625 326.572265625 681.999023438 c 0
 303.239257812 647.33203125 285.90625 604.999023438 274.573242188 554.999023438 c 0
 265.90625 520.33203125 259.90625 472.33203125 256.573242188 410.999023438 c 0
 254.573242188 379.666015625 253.573242188 351.666015625 253.573242188 326.999023438 c 0
 254.240234375 301.666015625 255.240234375 279.666015625 256.573242188 260.999023438 c 0
 259.90625 220.33203125 267.239257812 180.33203125 278.572265625 140.999023438 c 0
 289.239257812 101.666015625 302.239257812 67.9990234375 317.572265625 39.9990234375 c 0
 332.239257812 11.33203125 348.90625 -12.0009765625 367.573242188 -30.0009765625 c 0
 386.90625 -48.0009765625 405.573242188 -57.0009765625 423.573242188 -57.0009765625 c 0
 433.573242188 -57.0009765625 441.240234375 -59.333984375 446.573242188 -64.0009765625 c 0
 451.240234375 -68.66796875 453.572265625 -78.3330078125 453.572265625 -93 c 0
EndSplineSet
Validated: 524289
EndChar

StartChar: parenright
Encoding: 41 41 10
Width: 630
GlyphClass: 2
Flags: HMW
HStem: -122 65.001 743.001 61
VStem: 376.625 78
LayerCount: 2
Fore
SplineSet
451.626953125 247 m 0
 444.293945312 174.333007812 429.626953125 110 407.626953125 54 c 0
 385.626953125 -1.3330078125 357.293945312 -44.3330078125 322.626953125 -75 c 0
 287.293945312 -106.333007812 248.626953125 -122 206.626953125 -122 c 0
 199.959960938 -121.333007812 193.29296875 -118.333007812 186.625976562 -113 c 0
 179.29296875 -107.666992188 175.625976562 -101 175.625976562 -93 c 0
 175.625976562 -78.3330078125 178.29296875 -68.666015625 183.625976562 -63.9990234375 c 0
 188.29296875 -59.33203125 195.959960938 -56.9990234375 206.626953125 -56.9990234375 c 0
 224.626953125 -56.9990234375 242.959960938 -47.9990234375 261.626953125 -29.9990234375 c 0
 280.293945312 -11.33203125 297.293945312 12.0009765625 312.626953125 40.0009765625 c 0
 327.293945312 68.0009765625 340.293945312 101.66796875 351.626953125 141.000976562 c 0
 362.959960938 180.333984375 370.29296875 220.333984375 373.625976562 261.000976562 c 0
 375.625976562 281.000976562 376.625976562 303.333984375 376.625976562 328.000976562 c 0
 376.625976562 352.66796875 375.625976562 380.334960938 373.625976562 411.001953125 c 0
 370.29296875 471.668945312 364.29296875 519.668945312 355.625976562 555.001953125 c 0
 343.625976562 605.001953125 326.29296875 647.668945312 303.625976562 683.001953125 c 0
 292.29296875 700.334960938 278.29296875 714.66796875 261.625976562 726.000976562 c 0
 244.958984375 737.333984375 227.291992188 743.000976562 208.625 743.000976562 c 0
 198.625 743.000976562 190.291992188 745.333984375 183.625 750.000976562 c 0
 178.291992188 754.000976562 175.625 761.66796875 175.625 773.000976562 c 0
 174.958007812 780.333984375 175.625 786.000976562 177.625 790.000976562 c 0
 179.625 794.66796875 181.958007812 797.66796875 184.625 799.000976562 c 0
 190.625 802.333984375 197.625 804.000976562 205.625 804.000976562 c 0
 227.625 804.000976562 249.291992188 798.66796875 270.625 788.000976562 c 0
 291.958007812 777.333984375 311.625 763.333984375 329.625 746.000976562 c 0
 347.625 728.66796875 363.625 709.66796875 377.625 689.000976562 c 0
 391.625 667.66796875 402.625 646.334960938 410.625 625.001953125 c 0
 429.291992188 575.668945312 441.958984375 512.3359375 448.625976562 435.002929688 c 0
 452.625976562 389.669921875 454.625976562 352.002929688 454.625976562 322.002929688 c 0
 454.625976562 292.002929688 453.626953125 267 451.626953125 247 c 0
EndSplineSet
Validated: 524289
EndChar

StartChar: asterisk
Encoding: 42 42 11
Width: 630
GlyphClass: 2
Flags: HMW
HStem: 303 84<108.835 111.503 108.503 128.502> 315.998 56.999 315.998 69.999
VStem: 381.503 71.9951
LayerCount: 2
Fore
SplineSet
443.502929688 132 m 0x50
 437.502929688 128 429.834960938 126.333007812 420.501953125 127 c 0
 411.834960938 127 403.834960938 128.666992188 396.501953125 132 c 0
 389.168945312 135.333007812 384.168945312 140.666015625 381.501953125 147.999023438 c 0
 372.834960938 175.999023438 355.16796875 215.33203125 328.500976562 265.999023438 c 2
 319.500976562 282.999023438 l 1
 311.500976562 265.999023438 l 2
 279.500976562 203.33203125 259.833984375 161.999023438 252.500976562 141.999023438 c 0
 250.500976562 136.666015625 247.16796875 132.333007812 242.500976562 129 c 0
 237.833984375 126.333007812 232.500976562 124.666015625 226.500976562 123.999023438 c 2
 221.500976562 123.999023438 l 2
 209.500976562 123.999023438 199.500976562 126.33203125 191.500976562 130.999023438 c 0
 187.500976562 132.999023438 183.833984375 136.666015625 180.500976562 141.999023438 c 0
 177.16796875 147.999023438 174.834960938 154.666015625 173.501953125 161.999023438 c 2
 173.501953125 164.999023438 l 2
 173.501953125 171.666015625 175.168945312 178.333007812 178.501953125 185 c 2
 254.501953125 309 l 1
 187.834960938 305 141.501953125 303 115.501953125 303 c 0
 102.168945312 303 91.8359375 307.333007812 84.5029296875 316 c 0
 77.169921875 324 73.5029296875 333 73.5029296875 343 c 2
 73.5029296875 346 l 2
 73.5029296875 356 76.169921875 365.333007812 81.5029296875 374 c 0
 84.169921875 378.666992188 87.8369140625 382 92.50390625 384 c 0
 97.8369140625 386 103.169921875 387 108.502929688 387 c 2
 111.502929688 387 l 2x90
 142.169921875 384.333007812 193.502929688 380.666015625 265.502929688 375.999023438 c 1
 256.502929688 391.999023438 l 2
 227.8359375 440.666015625 204.168945312 477.999023438 185.501953125 503.999023438 c 0
 178.834960938 515.33203125 175.501953125 526.33203125 175.501953125 536.999023438 c 2
 175.501953125 542.999023438 l 2
 176.834960938 553.666015625 181.16796875 560.666015625 188.500976562 563.999023438 c 1
 188.500976562 564.999023438 l 1
 193.833984375 568.33203125 200.166992188 569.999023438 207.5 569.999023438 c 0
 214.833007812 570.666015625 222.5 568.666015625 230.5 563.999023438 c 0
 238.5 559.33203125 244.5 552.665039062 248.5 543.998046875 c 0
 255.833007812 527.331054688 278.166015625 483.6640625 315.499023438 412.997070312 c 1
 323.499023438 427.997070312 l 2
 350.166015625 473.997070312 370.499023438 512.330078125 384.499023438 542.997070312 c 0
 388.499023438 550.997070312 394.166015625 557.330078125 401.499023438 561.997070312 c 0
 408.431640625 566.50390625 415.184570312 568.756835938 421.7578125 568.756835938 c 0
 427.825195312 568.756835938 433.739257812 566.836914062 439.499023438 562.997070312 c 0
 444.166015625 560.330078125 448.166015625 556.330078125 451.499023438 550.997070312 c 0
 454.83203125 545.6640625 456.499023438 538.6640625 456.499023438 529.997070312 c 0
 456.499023438 521.330078125 453.83203125 512.997070312 448.499023438 504.997070312 c 0
 427.166015625 473.6640625 403.499023438 434.6640625 377.499023438 387.997070312 c 2
 369.499023438 372.997070312 l 1
 386.499023438 372.997070312 l 2x50
 445.83203125 372.997070312 488.165039062 376.6640625 513.498046875 383.997070312 c 0
 516.831054688 385.330078125 520.1640625 385.997070312 523.497070312 385.997070312 c 0
 530.830078125 385.997070312 537.163085938 383.6640625 542.49609375 378.997070312 c 0
 551.163085938 370.997070312 555.830078125 362.6640625 556.497070312 353.997070312 c 0
 556.497070312 348.6640625 555.830078125 343.331054688 554.497070312 337.998046875 c 0
 551.1640625 325.331054688 545.831054688 316.998046875 538.498046875 312.998046875 c 0
 535.831054688 311.665039062 533.1640625 310.998046875 530.497070312 310.998046875 c 0
 527.1640625 310.331054688 524.497070312 310.331054688 522.497070312 310.998046875 c 0
 505.1640625 314.331054688 474.497070312 315.998046875 430.497070312 315.998046875 c 0x30
 423.831054688 316.33203125 415.498046875 316.499023438 405.498046875 316.499023438 c 0
 395.498046875 316.499023438 383.831054688 316.33203125 370.498046875 315.998046875 c 1
 446.498046875 185.998046875 l 2
 451.831054688 174.665039062 454.498046875 164.665039062 454.498046875 155.998046875 c 0
 453.831054688 154.665039062 453.498046875 152.998046875 453.498046875 150.998046875 c 0
 452.831054688 141.665039062 449.502929688 135.333007812 443.502929688 132 c 0x50
EndSplineSet
Validated: 524289
EndChar

StartChar: plus
Encoding: 43 43 12
Width: 630
GlyphClass: 2
Flags: HMW
HStem: 367.001 63.999
VStem: 282.497 62.0029
LayerCount: 2
Fore
SplineSet
172.5 366 m 2
 158.5 366 148.5 369.333007812 142.5 376 c 0
 135.83203125 382 132.5 389.666992188 132.5 399 c 2
 132.5 402 l 2
 133.166992188 410.666992188 136.166992188 418 141.5 424 c 0
 147.5 430 156.5 433 168.5 433 c 2
 171.5 433 l 2
 218.83203125 431.666992188 252.830078125 431 273.49609375 431 c 2
 282.49609375 431 l 1
 282.49609375 441 l 2
 282.49609375 474.333007812 281.83203125 510.333007812 280.5 549 c 2
 280.5 553 l 2
 280.5 563.666992188 283.5 571.333984375 289.5 576.000976562 c 0
 294.83203125 580.000976562 302.83203125 582.000976562 313.5 582.000976562 c 2
 317.5 582.000976562 l 2
 326.83203125 582.000976562 334.5 580.000976562 340.5 576.000976562 c 0
 345.166992188 572.66796875 347.5 565.66796875 347.5 555.000976562 c 2
 347.5 550.000976562 l 2
 345.5 511.333984375 344.5 474.333984375 344.5 439.000976562 c 2
 344.5 430.000976562 l 1
 464.5 430.000976562 l 2
 477.166992188 430.000976562 485.5 427.66796875 489.5 423.000976562 c 0
 494.166992188 417.66796875 496.833984375 410.666992188 497.5 402 c 0
 496.833984375 396.666992188 496.166992188 392.000976562 495.5 388.000976562 c 0
 494.83203125 384.000976562 493.166015625 380 490.499023438 376 c 0
 487.166015625 370.666992188 480.166015625 368.000976562 469.499023438 368.000976562 c 2
 465.499023438 368.000976562 l 2
 454.166015625 369.333984375 438.166015625 370.000976562 417.499023438 370.000976562 c 0
 397.499023438 370.000976562 372.83203125 369.66796875 343.499023438 369.000976562 c 1
 343.499023438 359.000976562 l 1
 343.499023438 295.000976562 l 2
 344.166015625 270.333984375 344.5 255.333984375 344.5 250.000976562 c 0
 343.83203125 238.000976562 341.1640625 229.66796875 336.498046875 225.000976562 c 0
 331.831054688 220.333984375 325.1640625 217.666992188 316.49609375 217 c 0
 305.830078125 217.666992188 297.830078125 220 292.49609375 224 c 0
 285.830078125 228.666992188 282.49609375 237.333984375 282.49609375 250.000976562 c 2
 282.49609375 367.000976562 l 1
 273.49609375 367.000976562 l 1
 172.5 366 l 2
EndSplineSet
Validated: 524289
EndChar

StartChar: comma
Encoding: 44 44 13
Width: 630
GlyphClass: 2
Flags: HMW
VStem: 222.501 185.998
LayerCount: 2
Fore
SplineSet
258.500976562 -207 m 0
 246.500976562 -207 236.833984375 -203.333007812 229.500976562 -196 c 0
 225.500976562 -191.333007812 223.16796875 -185.666015625 222.500976562 -178.999023438 c 0
 221.833984375 -177.666015625 221.500976562 -176.666015625 221.500976562 -175.999023438 c 0
 222.16796875 -171.999023438 224.500976562 -165.999023438 228.500976562 -157.999023438 c 0
 242.500976562 -137.999023438 261.833984375 -93.666015625 286.500976562 -24.9990234375 c 0
 311.833984375 43.66796875 327.166992188 91.66796875 332.5 119.000976562 c 0
 333.833007812 125.66796875 337.166015625 131.000976562 342.499023438 135.000976562 c 0
 348.499023438 139.000976562 354.499023438 141.000976562 360.499023438 141.000976562 c 2
 362.499023438 141.000976562 l 2
 369.166015625 141.000976562 375.499023438 140.333984375 381.499023438 139.000976562 c 0
 390.166015625 136.333984375 397.166015625 131.333984375 402.499023438 124.000976562 c 0
 406.499023438 119.333984375 408.499023438 113.333984375 408.499023438 106.000976562 c 0
 408.499023438 104.66796875 408.166015625 102.000976562 407.499023438 98.0009765625 c 0
 400.83203125 65.333984375 386.499023438 15.333984375 364.499023438 -51.9990234375 c 0
 352.499023438 -89.33203125 342.499023438 -117.665039062 334.499023438 -136.998046875 c 0
 325.83203125 -155.665039062 319.165039062 -168.33203125 314.498046875 -174.999023438 c 0
 305.165039062 -187.666015625 293.165039062 -196.666015625 278.498046875 -201.999023438 c 0
 270.498046875 -205.33203125 263.833984375 -207 258.500976562 -207 c 0
EndSplineSet
Validated: 524289
EndChar

StartChar: hyphen
Encoding: 45 45 14
Width: 630
GlyphClass: 2
Flags: HMW
HStem: 252 68<203.499 215.166> 259 61
VStem: 170.499 289.002
LayerCount: 2
Fore
SplineSet
170.500976562 290 m 2x60
 170.500976562 301.333007812 173.500976562 309.333007812 179.500976562 314 c 0
 184.16796875 318 191.500976562 320 201.500976562 320 c 0
 239.500976562 320 284.833984375 320.333007812 337.500976562 321 c 0
 390.16796875 322.333007812 420.16796875 323 427.500976562 323 c 0
 440.16796875 323 448.500976562 320.666992188 452.500976562 316 c 0
 456.500976562 310.666992188 458.833984375 303.666992188 459.500976562 295 c 0
 459.500976562 284.333007812 457.500976562 276.333007812 453.500976562 271 c 0
 448.833984375 264.333007812 440.166992188 261 427.5 261 c 0
 418.833007812 261 385.166015625 259.666992188 326.499023438 257 c 0
 267.83203125 253.666992188 226.83203125 252 203.499023438 252 c 0xa0
 192.83203125 252.666992188 184.83203125 255 179.499023438 259 c 0
 173.499023438 264.333007812 170.499023438 273.333007812 170.499023438 286 c 2
 170.500976562 290 l 2x60
EndSplineSet
Validated: 524289
EndChar

StartChar: period
Encoding: 46 46 15
Width: 630
GlyphClass: 2
Flags: HMW
HStem: -4 134.053
VStem: 243.5 143.001
LayerCount: 2
Fore
SplineSet
316.499023438 -4 m 2
 307.499023438 -4 l 2
 306.584960938 -4.03515625 305.681640625 -4.052734375 304.786132812 -4.052734375 c 0
 288.665039062 -4.052734375 275.236328125 1.6318359375 264.499023438 13 c 0
 250.499023438 27.6669921875 243.499023438 44.6669921875 243.499023438 64 c 0
 243.499023438 81.3330078125 250.833007812 96.3330078125 265.499023438 109 c 0
 282.166992188 123 300.833984375 130 321.500976562 130 c 0
 322.483398438 130.03515625 323.456054688 130.052734375 324.420898438 130.052734375 c 0
 341.772460938 130.052734375 356.131835938 124.368164062 367.500976562 113 c 0
 380.166992188 100.333007812 386.500976562 84.666015625 386.500976562 65.9990234375 c 0
 386.500976562 47.33203125 380.166992188 31.6650390625 367.500976562 18.998046875 c 0
 355.500976562 6.3310546875 338.499023438 -1.3330078125 316.499023438 -4 c 2
EndSplineSet
Validated: 524289
EndChar

StartChar: slash
Encoding: 47 47 16
Width: 630
GlyphClass: 2
Flags: W
LayerCount: 2
Fore
SplineSet
75 -9 m 0
 75 5 78.6669921875 17.6669921875 86 29 c 0
 183.333007812 189 266.666015625 331.333007812 335.999023438 456 c 0
 379.999023438 532.666992188 426.33203125 619.666992188 474.999023438 717 c 0
 479.666015625 725.666992188 485.666015625 732.333984375 492.999023438 737.000976562 c 0
 500.33203125 741.66796875 507.33203125 744.000976562 513.999023438 744.000976562 c 0
 521.33203125 744.000976562 528.999023438 742.333984375 536.999023438 739.000976562 c 0
 545.666015625 733.66796875 551.333007812 726.334960938 554 717.001953125 c 0
 554.666992188 715.001953125 555 712.334960938 555 709.001953125 c 0
 555 704.334960938 552.666992188 695.001953125 548 681.001953125 c 0
 530.666992188 646.334960938 482 562.66796875 402 430.000976562 c 0
 322 297.333984375 273.333007812 214.666992188 256 182 c 0
 248 166.666992188 230.666992188 131.666992188 204 77 c 0
 180 28.3330078125 165 -1.333984375 159 -12.0009765625 c 0
 149.666992188 -28.66796875 137.666992188 -40.3349609375 123 -47.001953125 c 0
 116.333007812 -50.3349609375 110.333007812 -52.001953125 105 -52.001953125 c 0
 99 -52.001953125 93.6669921875 -50.3349609375 89 -47.001953125 c 0
 81.6669921875 -43.001953125 77.333984375 -33.3349609375 76.0009765625 -18.001953125 c 0
 75.333984375 -14.6689453125 75 -11.6669921875 75 -9 c 0
EndSplineSet
Validated: 524289
EndChar

StartChar: zero
Encoding: 48 48 17
Width: 630
GlyphClass: 2
Flags: HMW
HStem: -14.998 65.001 646.003 61.999
VStem: 99.668 79 455.669 74.998
LayerCount: 2
Fore
SplineSet
100.6640625 391 m 0
 101.33203125 418.333007812 102.998046875 441.83203125 105.666015625 461.499023438 c 0
 108.33203125 481.166015625 112 502.333007812 116.666015625 525 c 0
 121.333007812 547.666992188 126.666015625 567.666992188 132.666015625 585 c 0
 148 625.666992188 174 656.333984375 210.666015625 677.000976562 c 0
 244 697.66796875 284.666015625 708.000976562 332.666015625 708.000976562 c 0
 356 708.000976562 378 703.66796875 398.666015625 695.000976562 c 0
 420.666015625 686.333984375 440.666015625 673.500976562 458.666015625 656.500976562 c 0
 476.666015625 639.500976562 491.666015625 617.000976562 503.666015625 589.000976562 c 0
 515.666015625 561.000976562 523.333007812 529.000976562 526.666015625 493.000976562 c 0
 529.333007812 453.000976562 530.666015625 409.333984375 530.666015625 362.000976562 c 0
 530.666015625 326.000976562 529.5 288.16796875 527.166015625 248.500976562 c 0
 524.833007812 208.833984375 520.666015625 178.000976562 514.666015625 156.000976562 c 0
 503.333007812 114.000976562 489.333007812 80.333984375 472.666015625 55.0009765625 c 0
 464.666015625 43.0009765625 455.666015625 33.0009765625 445.666015625 25.0009765625 c 0
 435.666015625 17.0009765625 425.333007812 10.333984375 414.666015625 5.0009765625 c 0
 405.333007812 -0.33203125 394 -4.4990234375 380.66796875 -7.4990234375 c 0
 367.333984375 -10.4990234375 354.333984375 -12.4990234375 341.66796875 -13.4990234375 c 0
 329 -14.4990234375 313.66796875 -14.9990234375 295.66796875 -14.9990234375 c 0
 268.333984375 -14.33203125 243.333984375 -8.6650390625 220.66796875 2.001953125 c 0
 195.333984375 12.6689453125 173.66796875 27.501953125 155.66796875 46.501953125 c 0
 137.66796875 65.501953125 123.833984375 89.001953125 114.16796875 117.001953125 c 0
 104.5 145.001953125 99.66796875 175.334960938 99.66796875 208.001953125 c 2
 99.66796875 214.001953125 l 1
 99.66796875 309.001953125 l 2
 99.4453125 316.125976562 99.333984375 323.918945312 99.333984375 332.380859375 c 0
 99.333984375 349.258789062 99.77734375 368.797851562 100.6640625 391 c 0
234.666015625 613.000976562 m 0
 213.333007812 591.000976562 197 555.998046875 185.666015625 507.998046875 c 0
 181.666015625 490.665039062 178.666015625 470.665039062 176.666015625 447.998046875 c 0
 175 428.33203125 174.16796875 402.166015625 174.16796875 369.5 c 0
 174.16796875 336.833984375 175 297.66796875 176.66796875 252.001953125 c 0
 177.333984375 234.001953125 177.833984375 222.501953125 178.16796875 217.501953125 c 0
 178.5 212.501953125 178.66796875 209.001953125 178.66796875 207.001953125 c 2
 178.66796875 177.001953125 l 1
 196.66796875 201.001953125 l 1
 279.333984375 323.001953125 353.66796875 448.668945312 419.66796875 578.001953125 c 2
 422.66796875 584.001953125 l 1
 418.66796875 589.001953125 l 2
 406.66796875 607.001953125 392.16796875 621.001953125 375.16796875 631.001953125 c 0
 358.16796875 641.001953125 339.333984375 646.001953125 318.66796875 646.001953125 c 0
 282.66796875 646.001953125 254.666015625 635.000976562 234.666015625 613.000976562 c 0
341.166015625 54.9990234375 m 0
 354.833007812 58.33203125 368 63.9990234375 380.66796875 71.9990234375 c 0
 406 88.666015625 425.66796875 119.666015625 439.66796875 164.999023438 c 0
 442.333984375 173.666015625 445.16796875 196.166015625 448.16796875 232.499023438 c 0
 451.16796875 268.83203125 453.333984375 310.33203125 454.66796875 356.999023438 c 0
 455.333984375 369.666015625 455.66796875 381.999023438 455.66796875 393.999023438 c 0
 455.66796875 427.999023438 454.333984375 460.666015625 451.66796875 491.999023438 c 2
 448.66796875 526.999023438 l 1
 432.66796875 494.999023438 l 1
 366.66796875 349.666015625 289.333984375 227.666015625 200.66796875 128.999023438 c 1
 196.66796875 123.999023438 l 1
 198.66796875 117.999023438 l 2
 210 93.33203125 225 75.33203125 243.66796875 63.9990234375 c 0
 258.333984375 54.666015625 275.66796875 49.9990234375 295.66796875 49.9990234375 c 0
 312.333984375 49.9990234375 327.5 51.666015625 341.166015625 54.9990234375 c 0
EndSplineSet
Validated: 524289
EndChar

StartChar: one
Encoding: 49 49 18
Width: 630
GlyphClass: 2
Flags: HMW
HStem: 1 64.9961<496.499 498.499 496.166 504.833> 520.999 21G
VStem: 282.498 70 293.498 61
LayerCount: 2
Fore
SplineSet
529.5 59 m 0xe0
 535.5 53 538.5 45 538.5 35 c 0
 538.5 25 535.66796875 16.8330078125 530 10.5 c 0
 524.333007812 4.1669921875 513.166015625 1 496.5 1 c 0
 273.166015625 3 149.166015625 4 124.5 4 c 0
 112.5 4 104 7.1669921875 99 13.5 c 0
 94 19.8330078125 91.5 28 91.5 38 c 2
 91.5 41 l 2
 91.5 50.3330078125 94 58.3330078125 99 65 c 0
 104 71.6669921875 112.83203125 75 125.5 75 c 0
 154.83203125 75 207.165039062 74.3330078125 282.498046875 73 c 1
 282.498046875 83 l 2xe0
 282.498046875 109 282.165039062 127.666992188 281.498046875 139 c 0
 280.83203125 150.333007812 280.498046875 160.666015625 280.498046875 169.999023438 c 0
 280.498046875 180.666015625 280.83203125 212.333007812 281.498046875 265 c 0
 281.498046875 278.333007812 282.998046875 328.666015625 285.998046875 415.999023438 c 0
 288.998046875 503.33203125 291.498046875 567.999023438 293.498046875 609.999023438 c 1
 277.498046875 595.999023438 l 2
 233.498046875 555.999023438 200.498046875 531.666015625 178.498046875 522.999023438 c 0
 175.165039062 521.666015625 172.165039062 520.999023438 169.498046875 520.999023438 c 0
 163.498046875 520.999023438 156.498046875 524.33203125 148.498046875 530.999023438 c 0
 137.83203125 540.33203125 132.498046875 549.33203125 132.498046875 557.999023438 c 2
 132.498046875 558.999023438 l 1
 132.498046875 559.999023438 l 2
 132.498046875 568.666015625 134.498046875 576.666015625 138.498046875 583.999023438 c 0
 142.498046875 591.33203125 149.83203125 598.999023438 160.498046875 606.999023438 c 0
 180.498046875 622.33203125 200.83203125 638.665039062 221.498046875 655.998046875 c 2
 263.498046875 693.998046875 l 2
 271.498046875 701.331054688 279.665039062 707.6640625 287.998046875 712.997070312 c 0
 296.33203125 718.330078125 303.1640625 720.997070312 308.497070312 720.997070312 c 0
 319.830078125 720.997070312 331.497070312 715.6640625 343.497070312 704.997070312 c 0
 350.1640625 698.997070312 354.83203125 693.6640625 357.498046875 688.997070312 c 0
 359.498046875 686.330078125 360.498046875 683.997070312 360.498046875 681.997070312 c 0
 359.83203125 665.997070312 357.83203125 611.330078125 354.498046875 517.997070312 c 0xd0
 351.165039062 424.6640625 349.498046875 369.997070312 349.498046875 353.997070312 c 0
 349.498046875 237.330078125 350.498046875 142.663085938 352.498046875 69.99609375 c 1
 395.83203125 68.6630859375 429.83203125 67.6630859375 454.498046875 66.99609375 c 0
 479.165039062 66.3291015625 493.83203125 65.99609375 498.5 65.99609375 c 0
 500.205078125 66.0703125 501.849609375 66.107421875 503.431640625 66.107421875 c 0
 516.0703125 66.107421875 524.76171875 63.7392578125 529.5 59 c 0xe0
EndSplineSet
Validated: 524289
EndChar

StartChar: two
Encoding: 50 50 19
Width: 630
GlyphClass: 2
Flags: HMW
HStem: -8 64.0029 -1.99512 68.998 647.002 64.998
VStem: 100.499 81.0029 434.5 80.002
LayerCount: 2
Fore
SplineSet
300.498046875 -8 m 0xb8
 271.166015625 -9.3330078125 241.498046875 -10 211.498046875 -10 c 0
 178.166015625 -9.3330078125 152.166015625 -8 133.498046875 -6 c 0
 127.498046875 -5.3330078125 122.498046875 -3.166015625 118.498046875 0.5009765625 c 0
 114.498046875 4.16796875 111.498046875 9.0009765625 109.498046875 15.0009765625 c 0
 103.498046875 30.333984375 100.498046875 52.5009765625 100.498046875 81.5009765625 c 0
 100.498046875 110.500976562 106.498046875 140.16796875 118.498046875 170.500976562 c 0
 130.498046875 200.833984375 148.331054688 230.000976562 171.998046875 258.000976562 c 0
 195.666015625 286.000976562 221.83203125 308.66796875 250.499023438 326.000976562 c 0
 315.83203125 366.66796875 357.83203125 395.000976562 376.499023438 411.000976562 c 0
 403.166015625 433.66796875 420.499023438 458.334960938 428.499023438 485.001953125 c 0
 432.499023438 499.668945312 434.499023438 517.668945312 434.499023438 539.001953125 c 0
 434.499023438 577.001953125 423.499023438 604.668945312 401.499023438 622.001953125 c 0
 381.499023438 638.668945312 353.499023438 647.001953125 317.499023438 647.001953125 c 0
 292.166015625 647.001953125 268.166015625 638.668945312 245.499023438 622.001953125 c 0
 222.83203125 605.334960938 204.499023438 586.66796875 190.499023438 566.000976562 c 0
 184.499023438 558.000976562 179.499023438 552.16796875 175.499023438 548.500976562 c 0
 171.499023438 544.833984375 167.499023438 542.666992188 163.499023438 542 c 2
 157.999023438 542 l 2
 155.666015625 542 152.833984375 542.333007812 149.5 543 c 0
 146.166992188 543.666992188 140.833984375 545.666992188 133.501953125 549 c 0
 124.833984375 553.666992188 119.501953125 560 117.500976562 568 c 2
 117.500976562 575 l 2
 117.434570312 575.799804688 117.401367188 576.623046875 117.401367188 577.469726562 c 0
 117.401367188 585.08984375 120.1015625 594.599609375 125.501953125 606 c 0
 131.501953125 617.333007812 140.833984375 629.166015625 153.501953125 641.499023438 c 0
 166.16796875 653.83203125 180.834960938 665.33203125 197.501953125 675.999023438 c 0
 214.169921875 686.666015625 232.501953125 695.333007812 252.501953125 702 c 0
 272.501953125 708.666992188 292.834960938 712 313.501953125 712 c 0
 376.834960938 712 426.16796875 696.333007812 461.501953125 665 c 0
 496.833984375 633.666992188 514.501953125 586 514.501953125 522 c 0
 514.501953125 469.333007812 501.16796875 427 474.501953125 395 c 0
 453.833984375 371.666992188 418.833984375 345.333984375 369.501953125 316.000976562 c 0
 354.16796875 306.000976562 333.501953125 293.333984375 307.501953125 278.000976562 c 0
 280.16796875 262.66796875 257.501953125 243.334960938 239.501953125 220.001953125 c 0
 220.833984375 196.668945312 207.001953125 172.8359375 198.001953125 148.502929688 c 0
 189.001953125 124.169921875 183.501953125 98.0029296875 181.501953125 70.0029296875 c 2
 181.501953125 60.0029296875 l 1
 226.833984375 57.3359375 267.501953125 56.0029296875 303.501953125 56.0029296875 c 0xb8
 329.501953125 56.0029296875 350.833984375 56.669921875 367.501953125 58.0029296875 c 0
 384.16796875 59.3359375 406.16796875 61.0029296875 433.501953125 63.0029296875 c 0
 462.16796875 65.0029296875 480.501953125 66.3359375 488.501953125 67.0029296875 c 2
 498.501953125 67.0029296875 l 2
 501.61328125 67.2255859375 504.318359375 67.3369140625 506.615234375 67.3369140625 c 0
 511.206054688 67.3369140625 514.16796875 66.892578125 515.501953125 66.00390625 c 0
 517.501953125 65.3369140625 519.833984375 64.00390625 522.501953125 62.00390625 c 0
 524.501953125 60.6708984375 525.833984375 59.337890625 526.501953125 58.0048828125 c 0
 528.501953125 54.0048828125 529.501953125 48.337890625 529.501953125 41.0048828125 c 0
 529.501953125 26.337890625 525.833984375 14.337890625 518.501953125 5.0048828125 c 0
 515.16796875 0.337890625 510.834960938 -1.9951171875 505.501953125 -1.9951171875 c 0x78
 457.501953125 -1.9951171875 389.166015625 -4 300.498046875 -8 c 0xb8
EndSplineSet
Validated: 524289
EndChar

StartChar: three
Encoding: 51 51 20
Width: 630
GlyphClass: 2
Flags: HMW
HStem: -14.998 64.998 328.002 81.002 647.004 65.001
VStem: 420.499 81 443.498 80.002
LayerCount: 2
Fore
SplineSet
500.501953125 532 m 0xf0
 501.168945312 530.666992188 501.499023438 529.333984375 501.499023438 528.000976562 c 0xf0
 501.499023438 511.333984375 499.001953125 495.833984375 494.001953125 481.500976562 c 0
 489.001953125 467.16796875 482.501953125 455.16796875 474.501953125 445.500976562 c 0
 466.501953125 435.833984375 456.668945312 427.000976562 445.001953125 419.000976562 c 0
 433.334960938 411.000976562 421.16796875 404.66796875 408.500976562 400.000976562 c 0
 397.16796875 395.333984375 385.16796875 391.666992188 372.500976562 389 c 2
 330.500976562 380 l 1
 372.500976562 370 l 2
 396.500976562 364.666992188 417.66796875 357.833984375 436.000976562 349.500976562 c 0
 454.333984375 341.16796875 470.166992188 330.500976562 483.5 317.500976562 c 0
 496.833007812 304.500976562 506.833007812 288.333984375 513.5 269.000976562 c 0
 520.166992188 249.66796875 523.5 226.334960938 523.5 199.001953125 c 0
 523.5 133.668945312 503.166992188 81.6689453125 462.5 43.001953125 c 0
 422.5 4.3349609375 369.5 -14.998046875 303.5 -14.998046875 c 0
 283.5 -14.998046875 263.5 -11.6650390625 243.5 -4.998046875 c 0
 222.166992188 2.3349609375 203 11.16796875 186 21.5009765625 c 0
 169 31.833984375 154.333007812 43.1669921875 142 55.5 c 0
 129.666992188 67.8330078125 120.5 80 114.5 92 c 0
 109.166992188 102 106.5 111.333007812 106.5 120 c 0
 106.5 122.666992188 106.833007812 125.333984375 107.5 128.000976562 c 0
 109.5 137.333984375 114.5 144.000976562 122.5 148.000976562 c 0
 129.833007812 152.000976562 136.833007812 154.000976562 143.5 154.000976562 c 0
 146.166992188 154.000976562 148.833984375 153.66796875 151.500976562 153.000976562 c 0
 160.833984375 150.333984375 170.166992188 143.000976562 179.5 131.000976562 c 0
 194.833007812 110.333984375 214.166015625 91.6669921875 237.499023438 75 c 0
 258.83203125 58.3330078125 282.165039062 50 307.498046875 50 c 0
 345.498046875 50 376.831054688 62.3330078125 401.498046875 87 c 0
 429.498046875 111.666992188 443.498046875 143.333984375 443.498046875 182.000976562 c 0xe8
 443.498046875 204.66796875 439.831054688 224.834960938 432.498046875 242.501953125 c 0
 425.165039062 260.168945312 413.83203125 275.668945312 398.499023438 289.001953125 c 0
 370.499023438 315.001953125 323.499023438 328.001953125 257.499023438 328.001953125 c 0
 247.499023438 328.001953125 238.83203125 332.334960938 231.499023438 341.001953125 c 0
 224.166015625 349.668945312 220.499023438 359.8359375 220.499023438 371.502929688 c 0
 220.499023438 383.169921875 223.166015625 392.336914062 228.499023438 399.00390625 c 0
 233.166015625 405.670898438 240.499023438 409.00390625 250.499023438 409.00390625 c 0
 302.499023438 409.00390625 343.499023438 420.670898438 373.499023438 444.00390625 c 0
 404.83203125 467.336914062 420.499023438 501.00390625 420.499023438 545.00390625 c 2
 420.499023438 549.00390625 l 1
 420.499023438 553.00390625 l 2
 420.518554688 553.899414062 420.528320312 554.7890625 420.528320312 555.671875 c 0
 420.528320312 585.68359375 409.518554688 608.4609375 387.499023438 624.00390625 c 0
 366.166015625 639.336914062 336.166015625 647.00390625 297.499023438 647.00390625 c 0
 284.83203125 647.00390625 271.499023438 644.670898438 257.499023438 640.00390625 c 0
 252.83203125 638.00390625 247.83203125 634.670898438 242.499023438 630.00390625 c 0
 237.166015625 625.336914062 232.833007812 621.669921875 229.5 619.002929688 c 0
 226.166992188 616.3359375 222 611.8359375 217 605.502929688 c 0
 212 599.169921875 208.5 594.836914062 206.5 592.50390625 c 0
 204.5 590.170898438 201.166992188 585.337890625 196.5 578.004882812 c 0
 187.166992188 565.337890625 178.166992188 558.004882812 169.5 556.004882812 c 0
 166.833007812 555.337890625 164.166015625 555.004882812 161.499023438 555.004882812 c 0
 154.83203125 555.004882812 147.499023438 557.004882812 139.499023438 561.004882812 c 0
 131.499023438 565.004882812 126.499023438 571.671875 124.499023438 581.004882812 c 0
 123.83203125 583.004882812 123.499023438 585.337890625 123.499023438 588.004882812 c 0
 123.499023438 596.671875 126.166015625 606.338867188 131.499023438 617.005859375 c 0
 144.166015625 642.338867188 163.499023438 664.005859375 189.499023438 682.005859375 c 0
 202.83203125 691.338867188 218.83203125 698.671875 237.499023438 704.004882812 c 0
 254.83203125 709.337890625 273.499023438 712.004882812 293.499023438 712.004882812 c 0
 432.166015625 712.004882812 501.499023438 653.337890625 501.499023438 536.004882812 c 0
 500.83203125 534.671875 500.501953125 533.333007812 500.501953125 532 c 0xf0
EndSplineSet
Validated: 524289
EndChar

StartChar: four
Encoding: 52 52 21
Width: 630
GlyphClass: 2
Flags: HMW
HStem: -13.998 21G 234 61.002 696.001 20G
VStem: 384.502 65.499 391.5 67.001 391.5 75.001
LayerCount: 2
Fore
SplineSet
406.5 -1 m 0xf0
 397.166992188 7 392.166992188 14.6669921875 391.5 22 c 2
 391.5 60 l 1xe4
 391.5 233 l 1xe8
 370.166992188 233.666992188 352.5 234 338.5 234 c 0
 250.5 233.333007812 185.83203125 228.666015625 144.5 219.999023438 c 0
 140.5 219.33203125 136.5 218.999023438 132.5 218.999023438 c 0
 128.5 218.999023438 124.5 219.666015625 120.5 220.999023438 c 0
 114.5 223.666015625 109.5 227.333007812 105.5 232 c 0
 96.1669921875 244 91.5 258.333007812 91.5 275 c 0
 91.5 283 92.8330078125 291 95.5 299 c 0
 102.166992188 317.666992188 119.833984375 347.833984375 148.5 389.500976562 c 0
 177.16796875 431.16796875 213.16796875 483.000976562 256.5 545.000976562 c 0
 299.16796875 607.000976562 329.5 652.333984375 347.5 681.000976562 c 0
 354.833984375 692.333984375 362.833984375 700.833984375 371.5 706.500976562 c 0
 380.16796875 712.16796875 388.16796875 715.000976562 395.5 715.000976562 c 0
 397.5 715.66796875 399.5 716.000976562 401.5 716.000976562 c 0
 409.5 716.000976562 417.5 713.66796875 425.5 709.000976562 c 0
 433.5 704.333984375 438.5 696.333984375 440.5 685.000976562 c 0
 444.5 662.333984375 447.66796875 626.833984375 450 578.500976562 c 0xf0
 452.333984375 530.16796875 453.833984375 489.334960938 454.5 456.001953125 c 2
 457.5 294.001953125 l 1
 474.833984375 292.668945312 490.333984375 292.001953125 504 292.001953125 c 0
 517.66796875 292.001953125 526.66796875 289.501953125 531 284.501953125 c 0
 535.333984375 279.501953125 537.833984375 272.668945312 538.5 264.001953125 c 0
 538.5 253.334960938 536.5 245.334960938 532.5 240.001953125 c 0
 527.16796875 233.334960938 518 230.001953125 505 230.001953125 c 0
 492 230.001953125 476.5 230.668945312 458.5 232.001953125 c 1xe8
 459.16796875 126.668945312 461.16796875 67.001953125 464.5 53.001953125 c 0
 465.833984375 45.6689453125 466.5 39.001953125 466.5 33.001953125 c 0xe4
 467.16796875 22.3349609375 465.16796875 12.66796875 460.5 4.0009765625 c 0
 457.833984375 -1.33203125 454.333984375 -5.6650390625 450 -8.998046875 c 0
 445.66796875 -12.3310546875 440.5 -13.998046875 434.5 -13.998046875 c 0
 425.16796875 -13.3310546875 415.83203125 -9 406.5 -1 c 0xf0
384.501953125 603.001953125 m 2xf0
 383.501953125 629.001953125 l 1
 368.501953125 608.001953125 l 2
 277.834960938 478.001953125 215.501953125 377.001953125 181.501953125 305.001953125 c 2
 174.501953125 290.001953125 l 1
 190.501953125 291.001953125 l 2
 225.834960938 293.668945312 268.501953125 295.001953125 318.501953125 295.001953125 c 0
 338.501953125 295.001953125 362.834960938 294.668945312 391.501953125 294.001953125 c 1
 391.501953125 304.001953125 l 2
 391.501953125 429.334960938 389.16796875 529.001953125 384.501953125 603.001953125 c 2xf0
EndSplineSet
Validated: 524289
EndChar

StartChar: five
Encoding: 53 53 22
Width: 630
GlyphClass: 2
Flags: HMW
HStem: -7.99902 64.999 430 69.9971 628.997 69.002 639.996 60.0029
VStem: 106.501 73.999 114.501 67.999 453.5 80
LayerCount: 2
Fore
SplineSet
515.500976562 166 m 0xd6
 503.500976562 127.333007812 486.66796875 95.3330078125 465.000976562 70 c 0
 443.333984375 44.6669921875 418.500976562 25.333984375 390.500976562 12.0009765625 c 0
 363.16796875 -1.33203125 333.16796875 -7.9990234375 300.500976562 -7.9990234375 c 0
 275.16796875 -7.9990234375 251.500976562 -4.9990234375 229.500976562 1.0009765625 c 0
 206.16796875 7.0009765625 186.500976562 14.833984375 170.500976562 24.5009765625 c 0
 154.500976562 34.16796875 141.16796875 44.66796875 130.500976562 56.0009765625 c 0
 119.833984375 67.333984375 111.166992188 79.0009765625 104.5 91.0009765625 c 0
 99.1669921875 103.66796875 96.5 114.000976562 96.5 122.000976562 c 0
 96.5 133.333984375 102.166992188 141.666992188 113.5 147 c 0
 124.833007812 152.333007812 132.833007812 155 137.5 155 c 0
 139.5 154.333007812 141.166992188 154 142.5 154 c 0
 146.5 154 150.5 152 154.5 148 c 0
 158.5 144 163.5 138 169.5 130 c 0
 202.166992188 81.3330078125 243.166992188 57 292.5 57 c 0
 340.5 57 378.833007812 78 407.5 120 c 0
 438.166992188 161.333007812 453.5 216.333007812 453.5 285 c 0
 453.5 328.333007812 443.5 363 423.5 389 c 0
 404.166992188 416.333007812 375.833984375 430 338.500976562 430 c 0
 322.500976562 430 305.833984375 428 288.500976562 424 c 0
 279.16796875 421.333007812 266.834960938 415.666015625 251.501953125 406.999023438 c 0
 247.501953125 404.999023438 242.334960938 401.166015625 236.001953125 395.499023438 c 0
 229.668945312 389.83203125 225.501953125 385.999023438 223.501953125 383.999023438 c 0
 213.501953125 374.666015625 205.168945312 366.666015625 198.501953125 359.999023438 c 0
 187.834960938 350.666015625 174.834960938 345.333007812 159.501953125 344 c 2
 155.501953125 344 l 2
 148.834960938 344 142.501953125 345.333007812 136.501953125 348 c 0
 127.834960938 351.333007812 121.16796875 359.666015625 116.500976562 372.999023438 c 0
 111.16796875 388.33203125 108.16796875 407.33203125 107.500976562 429.999023438 c 0
 106.833984375 440.666015625 106.500976562 450.999023438 106.500976562 460.999023438 c 0xda
 106.500976562 485.666015625 108.16796875 520.666015625 111.500976562 565.999023438 c 0
 113.500976562 590.666015625 114.500976562 607.999023438 114.500976562 617.999023438 c 2
 114.500976562 620.999023438 l 1
 112.500976562 622.999023438 l 2
 106.500976562 632.999023438 103.500976562 644.999023438 103.500976562 658.999023438 c 0
 103.500976562 674.33203125 107.833984375 686.33203125 116.500976562 694.999023438 c 0
 121.833984375 700.33203125 127.833984375 702.999023438 134.500976562 702.999023438 c 0
 159.16796875 702.33203125 214.500976562 701.33203125 300.500976562 699.999023438 c 0xd6
 385.16796875 698.666015625 451.500976562 697.999023438 499.500976562 697.999023438 c 0
 504.16796875 697.999023438 508.500976562 695.666015625 512.500976562 690.999023438 c 0
 517.16796875 684.999023438 520.16796875 677.83203125 521.500976562 669.499023438 c 0
 522.833984375 661.166015625 523.166992188 653.666015625 522.5 646.999023438 c 0
 521.833007812 640.33203125 520 636.165039062 517 634.498046875 c 0
 514 632.831054688 511.666992188 631.6640625 510 630.997070312 c 0
 508.333007812 630.330078125 505.5 629.830078125 501.5 629.497070312 c 0
 497.5 629.1640625 494.666992188 628.997070312 493 628.997070312 c 0xe6
 491.333007812 628.997070312 487.666015625 629.1640625 481.999023438 629.497070312 c 0
 476.33203125 629.830078125 470.999023438 630.163085938 465.999023438 630.49609375 c 0
 460.999023438 630.829101562 446.499023438 631.99609375 422.499023438 633.99609375 c 0
 400.499023438 635.99609375 380.83203125 637.49609375 363.499023438 638.49609375 c 0
 346.166015625 639.49609375 322.333007812 639.99609375 292 639.99609375 c 0
 261.666992188 639.99609375 226.166992188 638.663085938 185.5 635.99609375 c 1
 184.833007812 623.329101562 183.833007812 600.99609375 182.5 568.99609375 c 0xd6
 181.166992188 536.99609375 180.5 516.663085938 180.5 507.99609375 c 0xda
 180.5 499.329101562 180.666992188 490.829101562 181 482.49609375 c 0
 181.333007812 474.163085938 181.833007812 451.330078125 182.5 413.997070312 c 1
 198.5 431.997070312 l 2
 215.833007812 451.330078125 238.333007812 467.497070312 266 480.497070312 c 0
 293.666992188 493.497070312 325.5 499.997070312 361.5 499.997070312 c 0
 387.5 499.997070312 411.166992188 494.6640625 432.5 483.997070312 c 0
 455.166992188 473.330078125 473.666992188 458.997070312 488 440.997070312 c 0
 502.333007812 422.997070312 513.5 401.497070312 521.5 376.497070312 c 0
 529.5 351.497070312 533.5 324.6640625 533.5 295.997070312 c 0
 533.5 247.997070312 527.500976562 204.666992188 515.500976562 166 c 0xd6
EndSplineSet
Validated: 524289
EndChar

StartChar: six
Encoding: 54 54 23
Width: 630
GlyphClass: 2
Flags: HMW
HStem: -13 64.998 401.999 69.999
VStem: 94.499 69.999 457.499 78.002
LayerCount: 2
Fore
SplineSet
517.498046875 144 m 0
 505.498046875 112 489.331054688 84.5 468.998046875 61.5 c 0
 448.666015625 38.5 424.83203125 20.3330078125 397.499023438 7 c 0
 371.499023438 -6.3330078125 344.166015625 -13 315.499023438 -13 c 0
 279.499023438 -13 248.166015625 -5.3330078125 221.499023438 10 c 0
 192.166015625 25.3330078125 168.166015625 47.166015625 149.499023438 75.4990234375 c 0
 130.83203125 103.83203125 117 137.499023438 108 176.499023438 c 0
 99 215.499023438 94.5 258.666015625 94.5 305.999023438 c 0
 94.5 365.999023438 100.166015625 419.999023438 111.5 467.999023438 c 0
 122.166015625 512.666015625 136.666015625 550.333007812 154.999023438 581 c 0
 173.33203125 611.666992188 195.83203125 637.333984375 222.499023438 658.000976562 c 0
 247.166015625 679.333984375 273.833984375 695.333984375 302.5 706.000976562 c 0
 331.166992188 716.66796875 363.166992188 723.66796875 398.5 727.000976562 c 2
 404.5 727.000976562 l 2
 414.5 727.000976562 423.5 725.000976562 431.5 721.000976562 c 0
 439.5 717.000976562 444.166992188 710.333984375 445.5 701.000976562 c 2
 445.5 700.000976562 l 2
 445.5 695.333984375 442.5 689.666992188 436.5 683 c 0
 429.166992188 674.333007812 421.166992188 668.666015625 412.5 665.999023438 c 0
 405.833984375 663.999023438 395.5 661.499023438 381.5 658.499023438 c 0
 367.5 655.499023438 355.5 652.33203125 345.5 648.999023438 c 0
 335.5 645.666015625 323.833984375 640.999023438 310.5 634.999023438 c 0
 283.833984375 622.33203125 256.833984375 598.999023438 229.5 564.999023438 c 0
 214.833984375 546.33203125 201.166015625 521.665039062 188.499023438 490.998046875 c 0
 175.83203125 460.331054688 167.83203125 432.998046875 164.499023438 408.998046875 c 2
 160.499023438 375.998046875 l 1
 181.499023438 400.998046875 l 2
 201.499023438 424.331054688 226.166015625 441.998046875 255.499023438 453.998046875 c 0
 284.166015625 465.998046875 316.499023438 471.998046875 352.499023438 471.998046875 c 0
 379.166015625 471.331054688 403.166015625 466.998046875 424.499023438 458.998046875 c 0
 447.166015625 450.998046875 466.833984375 438.165039062 483.5 420.498046875 c 0
 500.166992188 402.831054688 513 379.498046875 522 350.498046875 c 0
 531 321.498046875 535.5 286.665039062 535.5 245.998046875 c 0
 535.5 209.998046875 529.498046875 176 517.498046875 144 c 0
166.5 228.998046875 m 0
 169.166992188 196.331054688 179.166992188 164.998046875 196.5 134.998046875 c 0
 205.166992188 118.998046875 215.166992188 104.998046875 226.5 92.998046875 c 0
 237.166992188 80.3310546875 250.166992188 70.3310546875 265.5 62.998046875 c 0
 280.833984375 55.6650390625 297.166015625 51.998046875 314.499023438 51.998046875 c 2
 316.499023438 51.998046875 l 2
 341.166015625 51.998046875 364.166015625 61.3310546875 385.499023438 79.998046875 c 0
 406.83203125 97.998046875 424.166015625 120.998046875 437.498046875 148.998046875 c 0
 450.831054688 176.998046875 457.498046875 205.331054688 457.498046875 233.998046875 c 0
 457.498046875 266.665039062 454.498046875 294.165039062 448.498046875 316.498046875 c 0
 442.498046875 338.831054688 433.166015625 356.331054688 420.498046875 368.998046875 c 0
 408.498046875 381.665039062 395.166015625 390.33203125 380.498046875 394.999023438 c 0
 365.831054688 399.666015625 348.498046875 401.999023438 328.498046875 401.999023438 c 0
 296.498046875 401.999023438 266.498046875 392.999023438 238.498046875 374.999023438 c 0
 209.831054688 356.999023438 185.831054688 333.999023438 166.498046875 305.999023438 c 1
 164.498046875 303.999023438 l 1
 164.498046875 300.999023438 l 2
 164.498046875 269.666015625 165.166992188 245.665039062 166.5 228.998046875 c 0
EndSplineSet
Validated: 524289
EndChar

StartChar: seven
Encoding: 55 55 24
Width: 630
GlyphClass: 2
Flags: HMW
HStem: -14 21G<162.168 167.502> 632.8 71.2011
LayerCount: 2
Fore
SplineSet
511.999023438 693.5 m 0
 517.666015625 691.166992188 522.833007812 687.333984375 527.5 682.000976562 c 0
 532.166992188 676.66796875 534.5 669.66796875 534.5 661.000976562 c 0
 534.5 652.333984375 531.833007812 641.666992188 526.5 629 c 0
 517.166992188 609 500.333984375 579 476.000976562 539 c 0
 451.66796875 499 426.834960938 457.666992188 401.501953125 415 c 0
 377.501953125 373 348.168945312 316.833007812 313.501953125 246.5 c 0
 278.834960938 176.166992188 246.16796875 104 215.500976562 30 c 0
 208.16796875 14 198.834960938 2.3330078125 187.501953125 -5 c 0
 179.501953125 -11 171.501953125 -14 163.501953125 -14 c 0
 160.834960938 -14 158.501953125 -13.6669921875 156.501953125 -13 c 0
 145.834960938 -10.3330078125 138.16796875 -3.8330078125 133.500976562 6.5 c 0
 131.458984375 11.0205078125 130.438476562 15.701171875 130.438476562 20.541015625 c 0
 130.438476562 26.763671875 132.125976562 33.25 135.500976562 40 c 0
 170.16796875 108 205.834960938 176 242.501953125 244 c 0
 277.834960938 312 307.001953125 366.166992188 330.001953125 406.5 c 0
 353.001953125 446.833007812 374.501953125 486.333007812 394.501953125 525 c 0
 415.168945312 563 429.501953125 594 437.501953125 618 c 2
 441.501953125 631 l 1
 404.302734375 632.200195312 367.463867188 632.799804688 330.984375 632.799804688 c 0
 306.6640625 632.799804688 282.502929688 632.533203125 258.501953125 632 c 0
 194.501953125 630 152.168945312 626.333007812 131.501953125 621 c 0
 129.501953125 620.333007812 127.168945312 620 124.501953125 620 c 0
 121.834960938 620 119.16796875 620.666992188 116.500976562 622 c 0
 111.833984375 623.333007812 108.166992188 626 105.5 630 c 0
 99.5 638.666992188 96.1669921875 648.666992188 95.5 660 c 0
 95.5 669.333007812 97.6669921875 676.833007812 102 682.5 c 0
 106.333007812 688.166992188 115.5 692.333984375 129.5 695.000976562 c 0
 164.833007812 701.000976562 220.833007812 704.000976562 297.5 704.000976562 c 0
 321.5 704.000976562 368.5 702.333984375 438.5 699.000976562 c 0
 473.833007812 697.66796875 492.833007812 697.000976562 495.5 697.000976562 c 0
 500.833007812 697.000976562 506.33203125 695.833007812 511.999023438 693.5 c 0
EndSplineSet
Validated: 524289
EndChar

StartChar: eight
Encoding: 56 56 25
Width: 630
GlyphClass: 2
Flags: HMW
HStem: -17.999 66.001 656.002 52.001
VStem: 88.5 66.9971 115.501 73.9971 427.5 70 467.498 74.002
LayerCount: 2
Fore
SplineSet
533.498046875 142.5 m 0xc4
 528.165039062 122.166992188 518.998046875 102.333984375 505.998046875 83.0009765625 c 0
 492.998046875 63.66796875 477.331054688 46.66796875 458.998046875 32.0009765625 c 0
 440.665039062 17.333984375 417.83203125 5.333984375 390.499023438 -3.9990234375 c 0
 364.499023438 -13.33203125 335.83203125 -17.9990234375 304.499023438 -17.9990234375 c 0
 273.166015625 -17.9990234375 245.499023438 -13.666015625 221.499023438 -4.9990234375 c 0
 196.166015625 3.66796875 175.499023438 15.0009765625 159.499023438 29.0009765625 c 0
 143.499023438 43.0009765625 129.83203125 59.5009765625 118.499023438 78.5009765625 c 0
 107.166015625 97.5009765625 99.3330078125 116.66796875 95 136.000976562 c 0
 90.6669921875 155.333984375 88.5 175.500976562 88.5 196.500976562 c 0xe4
 88.5 217.500976562 94 240.333984375 105 265.000976562 c 0
 116 289.66796875 131.833007812 312.66796875 152.5 334.000976562 c 0
 173.166992188 355.333984375 195.5 370.000976562 219.5 378.000976562 c 2
 241.5 386.000976562 l 1
 220.5 396.000976562 l 2
 187.166992188 412.000976562 161.333984375 432.66796875 143.000976562 458.000976562 c 0
 124.66796875 483.333984375 115.500976562 509.000976562 115.500976562 535.000976562 c 0
 115.500976562 542.333984375 116.000976562 550.333984375 117.000976562 559.000976562 c 0
 118.000976562 567.66796875 120.500976562 577.834960938 124.500976562 589.501953125 c 0
 128.500976562 601.168945312 133.333984375 612.3359375 139.000976562 623.002929688 c 0
 144.66796875 633.669921875 152.66796875 644.169921875 163.000976562 654.502929688 c 0
 173.333984375 664.8359375 185.166992188 674.002929688 198.5 682.002929688 c 0
 211.166992188 689.3359375 226.666992188 695.502929688 245 700.502929688 c 0
 263.333007812 705.502929688 283.833007812 708.002929688 306.5 708.002929688 c 0
 329.166992188 708.002929688 349.666992188 705.669921875 368 701.002929688 c 0
 386.333007812 696.3359375 401.833007812 690.002929688 414.5 682.002929688 c 0
 427.833007812 674.002929688 439.666015625 664.8359375 449.999023438 654.502929688 c 0
 460.33203125 644.169921875 468.33203125 633.669921875 473.999023438 623.002929688 c 0
 479.666015625 612.3359375 484.333007812 601.002929688 488 589.002929688 c 0
 491.666992188 577.002929688 494.166992188 566.502929688 495.5 557.502929688 c 0
 496.833007812 548.502929688 497.5 540.002929688 497.5 532.002929688 c 0xd8
 497.5 524.002929688 496.5 516.502929688 494.5 509.502929688 c 0
 492.5 502.502929688 490.166992188 496.169921875 487.5 490.502929688 c 0
 484.833007812 484.8359375 481 479.002929688 476 473.002929688 c 0
 471 467.002929688 466.166992188 461.669921875 461.5 457.002929688 c 0
 453.5 448.3359375 439.833007812 437.3359375 420.5 424.002929688 c 0
 412.5 418.002929688 399.5 408.3359375 381.5 395.002929688 c 1
 396.5 388.002929688 l 2
 419.166992188 378.002929688 439.5 366.502929688 457.5 353.502929688 c 0
 475.5 340.502929688 489.666992188 327.669921875 500 315.002929688 c 0
 510.333007812 302.3359375 518.833007812 289.168945312 525.5 275.501953125 c 0
 532.166992188 261.834960938 536.5 249.501953125 538.5 238.501953125 c 0
 540.5 227.501953125 541.5 216.001953125 541.5 204.001953125 c 0
 541.5 183.334960938 538.831054688 162.833007812 533.498046875 142.5 c 0xc4
222.5 472.001953125 m 0
 241.833007812 454.001953125 273.5 436.334960938 317.5 419.001953125 c 1
 320.5 417.001953125 l 1
 324.5 419.001953125 l 2
 350.5 430.334960938 373.833007812 446.334960938 394.5 467.001953125 c 0
 416.5 488.334960938 427.5 509.001953125 427.5 529.001953125 c 0
 427.5 549.001953125 422.166992188 568.668945312 411.5 588.001953125 c 0
 400.833007812 607.334960938 386.166015625 623.501953125 367.499023438 636.501953125 c 0
 348.83203125 649.501953125 328.83203125 656.001953125 307.499023438 656.001953125 c 2
 305.499023438 656.001953125 l 2
 274.83203125 655.334960938 248.165039062 643.001953125 225.498046875 619.001953125 c 0
 201.498046875 595.001953125 189.498046875 568.001953125 189.498046875 538.001953125 c 0xd8
 189.498046875 513.334960938 200.5 491.334960938 222.5 472.001953125 c 0
179.498046875 113.501953125 m 0
 195.498046875 91.8349609375 214.831054688 75.3349609375 237.498046875 64.001953125 c 0
 259.498046875 53.3349609375 283.165039062 48.001953125 308.498046875 48.001953125 c 0
 326.498046875 48.001953125 344.498046875 51.001953125 362.498046875 57.001953125 c 0
 380.498046875 63.001953125 397.165039062 71.6689453125 412.498046875 83.001953125 c 0
 428.498046875 95.001953125 441.665039062 110.168945312 451.998046875 128.501953125 c 0
 462.331054688 146.834960938 467.498046875 166.66796875 467.498046875 188.000976562 c 0
 467.498046875 200.000976562 466.665039062 211.16796875 464.998046875 221.500976562 c 0
 463.331054688 231.833984375 459.1640625 243.666992188 452.497070312 257 c 0
 445.830078125 270.333007812 436.830078125 282.666015625 425.497070312 293.999023438 c 0
 414.830078125 305.33203125 400.663085938 316.83203125 382.99609375 328.499023438 c 0
 365.329101562 340.166015625 343.49609375 351.333007812 317.49609375 362 c 1
 314.49609375 361 l 2
 269.163085938 347.666992188 231.830078125 324.666992188 202.497070312 292 c 0
 171.1640625 259.333007812 155.497070312 224 155.497070312 186 c 0xe4
 155.497070312 159.333007812 163.498046875 135.168945312 179.498046875 113.501953125 c 0
EndSplineSet
Validated: 524289
EndChar

StartChar: nine
Encoding: 57 57 26
Width: 630
GlyphClass: 2
Flags: HMW
HStem: -13 21G<197.501 202.501 202.501 210.501> 244.999 69 664.999 64.002
VStem: 94.5 78<464 497> 466.499 69.001
LayerCount: 2
Fore
SplineSet
516.5 238 m 0
 504.5 196 488.166992188 160.333007812 467.5 131 c 0
 446.833007812 101.666992188 422.5 76.6669921875 394.5 56 c 0
 367.833007812 35.3330078125 339.333007812 19.5 309 8.5 c 0
 278.666992188 -2.5 245.833984375 -9.6669921875 210.500976562 -13 c 2
 202.500976562 -13 l 2
 192.500976562 -13 183.333984375 -10.8330078125 175.000976562 -6.5 c 0
 166.66796875 -2.1669921875 161.834960938 4.3330078125 160.501953125 13 c 2
 160.501953125 14 l 2
 160.501953125 19.3330078125 163.501953125 25.3330078125 169.501953125 32 c 0
 176.834960938 40 185.16796875 45.3330078125 194.500976562 48 c 0
 201.833984375 50.6669921875 213.166992188 53.6669921875 228.5 57 c 0
 243.833007812 60.3330078125 257.5 63.666015625 269.5 66.9990234375 c 0
 281.5 70.33203125 295.166992188 75.1650390625 310.5 81.498046875 c 0
 325.833007812 87.8310546875 340.666015625 96.498046875 354.999023438 107.498046875 c 0
 369.33203125 118.498046875 382.83203125 131.665039062 395.499023438 146.998046875 c 0
 411.499023438 167.665039062 426.166015625 190.998046875 439.499023438 216.998046875 c 0
 452.83203125 242.998046875 461.83203125 266.998046875 466.499023438 288.998046875 c 2
 473.499023438 324.998046875 l 1
 449.499023438 296.998046875 l 2
 432.166015625 277.665039062 410.833007812 264.33203125 385.5 256.999023438 c 0
 360.833007812 248.999023438 329.166015625 244.999023438 290.499023438 244.999023438 c 0
 265.166015625 244.999023438 240.833007812 251.666015625 217.5 264.999023438 c 0
 192.833007812 277.666015625 171.5 294.833007812 153.5 316.5 c 0
 135.5 338.166992188 121.166992188 363.166992188 110.5 391.5 c 0
 99.8330078125 419.833007812 94.5 449 94.5 479 c 0
 94.5 515 100.5 548.666992188 112.5 580 c 0
 124.5 611.333007812 140.5 637.833007812 160.5 659.5 c 0
 180.5 681.166992188 204.166992188 698.333984375 231.5 711.000976562 c 0
 257.5 723.000976562 285.166992188 729.000976562 314.5 729.000976562 c 0
 385.833007812 729.000976562 440.5 699.66796875 478.5 641.000976562 c 0
 516.5 582.333984375 535.5 498.666992188 535.5 390 c 0
 535.5 333.333007812 529.166992188 282.666992188 516.5 238 c 0
210.5 359.999023438 m 0
 233.833007812 329.33203125 268.166015625 313.999023438 313.499023438 313.999023438 c 0
 341.499023438 313.999023438 368.83203125 320.999023438 395.499023438 334.999023438 c 0
 424.166015625 348.999023438 447.166015625 368.33203125 464.499023438 392.999023438 c 2
 466.499023438 395.999023438 l 1
 466.499023438 411.999023438 l 2
 466.499023438 430.666015625 465.499023438 455.666015625 463.499023438 486.999023438 c 2
 463.499023438 487.999023438 l 2
 460.166015625 520.666015625 450.166015625 551.999023438 433.499023438 581.999023438 c 0
 424.83203125 597.999023438 414.83203125 611.999023438 403.499023438 623.999023438 c 0
 392.83203125 635.999023438 379.83203125 645.83203125 364.499023438 653.499023438 c 0
 349.166015625 661.166015625 332.833007812 664.999023438 315.5 664.999023438 c 2
 313.5 664.999023438 l 2
 289.5 664.33203125 266.833007812 655.665039062 245.5 638.998046875 c 0
 224.166992188 622.331054688 206.666992188 600.6640625 193 573.997070312 c 0
 179.333007812 547.330078125 172.5 519.663085938 172.5 490.99609375 c 0
 172.5 434.329101562 185.166992188 390.666015625 210.5 359.999023438 c 0
EndSplineSet
Validated: 524289
EndChar

StartChar: colon
Encoding: 58 58 27
Width: 630
GlyphClass: 2
Flags: HMW
HStem: 49.001 136.124 317 135.143
VStem: 260.748 110.001
LayerCount: 2
Fore
SplineSet
318.750976562 317 m 2
 315.750976562 317 l 2
 299.750976562 317.666992188 287.083984375 320.666992188 277.750976562 326 c 0
 267.750976562 332 262.083984375 341.333007812 260.750976562 354 c 0
 260.083984375 365.333007812 259.750976562 377 259.750976562 389 c 0
 259.416992188 394.666015625 259.250976562 400.249023438 259.250976562 405.749023438 c 0
 259.250976562 411.249023438 259.416992188 416.666015625 259.750976562 422 c 0
 260.418945312 428.666992188 262.418945312 434 265.750976562 438 c 0
 269.083984375 442 273.416992188 445 278.750976562 447 c 0
 289.036132812 450.428710938 299.810546875 452.143554688 311.075195312 452.143554688 c 0
 312.954101562 452.143554688 314.844726562 452.095703125 316.750976562 452 c 0
 322.083007812 452 327.416015625 451.333007812 332.749023438 450 c 0
 346.749023438 447.333007812 356.416015625 442 361.749023438 434 c 0
 365.083007812 429.333007812 367.083007812 423.333007812 367.749023438 416 c 0
 368.416015625 412 368.749023438 408 368.749023438 404 c 0
 368.749023438 386.666992188 366.083007812 368.333984375 360.749023438 349.000976562 c 0
 358.083007812 338.333984375 352.415039062 330.333984375 343.748046875 325.000976562 c 0
 335.081054688 319.66796875 326.750976562 317 318.750976562 317 c 2
315.748046875 49.0009765625 m 0
 303.081054688 49.0009765625 290.748046875 53.0009765625 278.748046875 61.0009765625 c 0
 268.748046875 67.0009765625 263.081054688 75.333984375 261.748046875 86.0009765625 c 0
 261.081054688 104.000976562 260.748046875 114.000976562 260.748046875 116.000976562 c 0
 260.748046875 118.000976562 261.081054688 123.66796875 261.748046875 133.000976562 c 0
 262.415039062 142.333984375 263.083007812 149.666992188 263.749023438 155 c 0
 263.749023438 161 265.416015625 166 268.749023438 170 c 0
 271.416015625 174 275.416015625 177 280.749023438 179 c 0
 292.415039062 183.083007812 303.315429688 185.125 313.450195312 185.125 c 0
 314.899414062 185.125 316.331054688 185.083007812 317.748046875 185 c 0
 324.415039062 185 331.083007812 184 337.749023438 182 c 0
 345.083007812 180 351.749023438 176 357.749023438 170 c 0
 363.749023438 164 367.416015625 157 368.749023438 149 c 0
 370.083007812 140.333007812 370.749023438 132 370.749023438 124 c 0
 370.749023438 110 368.749023438 95.6669921875 364.749023438 81 c 0
 362.083007812 70.3330078125 355.415039062 62.3330078125 344.748046875 57 c 0
 334.748046875 51.6669921875 325.081054688 49.0009765625 315.748046875 49.0009765625 c 0
EndSplineSet
Validated: 524289
EndChar

StartChar: semicolon
Encoding: 59 59 28
Width: 630
GlyphClass: 2
Flags: HMW
HStem: 275.002 136.001
VStem: 288.834 109.666
LayerCount: 2
Fore
SplineSet
378.498046875 79.001953125 m 0
 378.498046875 62.3349609375 356.831054688 -25.33203125 313.498046875 -183.999023438 c 0
 310.165039062 -195.999023438 304.833007812 -204.33203125 297.499023438 -208.999023438 c 0
 290.166015625 -213.666015625 282.499023438 -215.999023438 274.499023438 -215.999023438 c 2
 272.499023438 -215.999023438 l 2
 261.166015625 -215.33203125 250.833007812 -211.665039062 241.500976562 -204.998046875 c 0
 234.833007812 -200.331054688 231.500976562 -193.6640625 231.500976562 -184.997070312 c 0
 231.500976562 -173.6640625 238.500976562 -133.331054688 252.500976562 -63.998046875 c 0
 265.166992188 -2.6650390625 275.500976562 44.3349609375 283.500976562 77.001953125 c 0
 285.500976562 85.6689453125 288.000976562 92.3359375 291.000976562 97.0029296875 c 0
 294.000976562 101.669921875 296.833007812 104.669921875 299.500976562 106.002929688 c 0
 306.166992188 108.669921875 312.500976562 110.002929688 318.500976562 110.002929688 c 0
 320.500976562 110.002929688 322.833007812 109.669921875 325.500976562 109.002929688 c 2
 326.500976562 109.002929688 l 2
 337.833007812 109.002929688 349.500976562 106.3359375 361.500976562 101.002929688 c 0
 367.500976562 98.3359375 372.166992188 94.6689453125 375.500976562 90.001953125 c 0
 377.500976562 87.3349609375 378.498046875 83.6689453125 378.498046875 79.001953125 c 0
346.500976562 275.001953125 m 2
 339.166992188 275.668945312 331.331054688 277.333984375 322.998046875 280.000976562 c 0
 314.665039062 282.66796875 307.333007812 286.834960938 300.999023438 292.501953125 c 0
 294.666015625 298.168945312 291.166015625 304.668945312 290.499023438 312.001953125 c 0
 289.833007812 323.334960938 289.333007812 334.834960938 288.999023438 346.501953125 c 0
 288.887695312 350.38671875 288.833007812 354.216796875 288.833007812 357.991210938 c 0
 288.833007812 365.55078125 289.055664062 372.887695312 289.500976562 380.002929688 c 0
 290.166992188 386.002929688 292.166992188 391.169921875 295.500976562 395.502929688 c 0
 298.833007812 399.8359375 303.500976562 403.002929688 309.500976562 405.002929688 c 0
 315.500976562 407.002929688 321.333007812 408.502929688 327.000976562 409.502929688 c 0
 332.666992188 410.502929688 337.000976562 411.002929688 340.000976562 411.002929688 c 2
 346.500976562 411.002929688 l 2
 357.833007812 410.3359375 368.498046875 407.668945312 378.498046875 403.001953125 c 0
 383.831054688 401.001953125 388.166015625 397.501953125 391.499023438 392.501953125 c 0
 394.833007812 387.501953125 396.833007812 381.668945312 397.499023438 375.001953125 c 0
 398.166015625 371.001953125 398.499023438 367.001953125 398.499023438 363.001953125 c 0
 398.499023438 345.001953125 395.833007812 326.334960938 390.499023438 307.001953125 c 0
 387.833007812 296.334960938 382.165039062 288.334960938 373.498046875 283.001953125 c 0
 364.831054688 277.668945312 356.498046875 275.001953125 348.498046875 275.001953125 c 2
 346.998046875 275.001953125 l 1
 346.500976562 275.001953125 l 2
EndSplineSet
Validated: 524289
EndChar

StartChar: less
Encoding: 60 60 29
Width: 630
GlyphClass: 2
Flags: HMW
HStem: 683 20G<502.167 509.501>
LayerCount: 2
Fore
SplineSet
543.5 648 m 0
 536.83203125 637.333007812 522.83203125 624.333007812 501.5 609 c 0
 464.166992188 583 407.5 540.333007812 331.5 481 c 0
 254.83203125 421 202.83203125 380.666992188 175.5 360 c 1
 186.5 353 l 2
 211.83203125 333 240.5 308.666992188 272.5 280 c 0
 304.5 251.333007812 332.5 225.666015625 356.5 202.999023438 c 0
 380.5 179.666015625 406.5 155.999023438 434.5 131.999023438 c 0
 463.166992188 107.999023438 487.833984375 89.33203125 508.5 75.9990234375 c 0
 529.833984375 61.9990234375 543.5 50.33203125 549.5 40.9990234375 c 0
 552.16796875 36.9990234375 553.5 32.666015625 553.5 27.9990234375 c 0
 553.5 25.9990234375 552.833984375 22.666015625 551.5 17.9990234375 c 0
 549.5 12.666015625 545.833984375 8.3330078125 540.5 5 c 0
 535.16796875 1.6669921875 527.5 -0.666015625 517.5 -1.9990234375 c 0
 514.833984375 -2.666015625 512.5 -2.9990234375 510.5 -2.9990234375 c 0
 501.833984375 -2.9990234375 492.166992188 -0.9990234375 481.5 3.0009765625 c 0
 464.83203125 8.333984375 444.83203125 19.6669921875 421.5 37 c 0
 397.5 54.3330078125 371.5 75.666015625 343.5 100.999023438 c 0
 315.5 126.33203125 287.5 151.999023438 259.5 177.999023438 c 0
 231.5 203.999023438 201.83203125 230.666015625 170.5 257.999023438 c 0
 139.166992188 285.33203125 112.5 306.999023438 90.5 322.999023438 c 0
 83.8330078125 328.33203125 79.5 335.665039062 77.5 344.998046875 c 0
 76.8330078125 349.665039062 76.5 354.33203125 76.5 358.999023438 c 0
 76.5 363.666015625 77.1669921875 368.333007812 78.5 373 c 0
 81.1669921875 381.666992188 85.5 388 91.5 392 c 0
 129.5 420 174.166992188 455.333007812 225.5 498 c 0
 276.83203125 540.666992188 323.5 579 365.5 613 c 0
 408.166992188 647 445.833984375 673.666992188 478.5 693 c 0
 488.5 699.666992188 497.833984375 703 506.5 703 c 0
 512.5 703 517.5 701.666992188 521.5 699 c 0
 532.833984375 693 540.833984375 684.666992188 545.5 674 c 0
 547.5 669.333007812 548.5 665 548.5 661 c 0
 547.833984375 657 546.166992188 652.666992188 543.5 648 c 0
EndSplineSet
Validated: 524289
EndChar

StartChar: equal
Encoding: 61 61 30
Width: 630
GlyphClass: 2
Flags: HMW
HStem: 256.909 63.091 452.907 66.0929
LayerCount: 2
Fore
SplineSet
168.499023438 519 m 2
 171.499023438 519 l 2
 209.499023438 517.666992188 248.499023438 517 288.499023438 517 c 0
 329.166015625 517 366.833007812 517.333007812 401.499023438 518 c 0
 436.166992188 518.666992188 457.166992188 519 464.499023438 519 c 0
 477.166992188 518.333007812 485.499023438 515.666015625 489.499023438 510.999023438 c 0
 494.166992188 506.33203125 496.833984375 499.665039062 497.500976562 490.998046875 c 0
 496.833984375 473.665039062 491.833984375 462.998046875 482.500976562 458.998046875 c 0
 479.833984375 457.665039062 476.833984375 456.998046875 473.500976562 456.998046875 c 2
 465.500976562 456.998046875 l 2
 450.166992188 457.665039062 436.166992188 457.998046875 423.500976562 457.998046875 c 2
 388.500976562 457.998046875 l 1
 278.500976562 454.998046875 l 2
 232.500976562 453.665039062 198.500976562 452.998046875 176.500976562 452.998046875 c 0
 175.166992188 452.9375 173.862304688 452.907226562 172.588867188 452.907226562 c 0
 159.862304688 452.907226562 150.166992188 455.9375 143.500976562 461.998046875 c 0
 136.166992188 467.998046875 132.500976562 475.331054688 132.500976562 483.998046875 c 2
 132.500976562 486.998046875 l 2
 133.166992188 495.665039062 136.166992188 502.998046875 141.500976562 508.998046875 c 0
 147.500976562 515.665039062 156.499023438 519 168.499023438 519 c 2
174.500976562 319.998046875 m 2
 195.833984375 319.331054688 221.166992188 318.998046875 250.499023438 318.998046875 c 0
 280.499023438 319.665039062 316.499023438 320.33203125 358.499023438 320.999023438 c 2
 464.499023438 322.999023438 l 2
 477.166992188 322.999023438 485.499023438 320.666015625 489.499023438 315.999023438 c 0
 494.166992188 310.666015625 496.833984375 303.666015625 497.500976562 294.999023438 c 0
 497.500976562 284.33203125 495.500976562 275.999023438 491.500976562 269.999023438 c 0
 488.833984375 266.666015625 485.833984375 264.333007812 482.500976562 263 c 0
 479.833984375 261.666992188 476.833984375 261 473.500976562 261 c 2
 465.500976562 261 l 2
 448.833984375 261.666992188 430.166992188 262 409.499023438 262 c 0
 388.833007812 262 344.166015625 261 275.499023438 259 c 0
 228.166015625 257.666992188 193.833007812 257 172.499023438 257 c 0
 171.225585938 256.939453125 169.986328125 256.909179688 168.779296875 256.909179688 c 0
 156.713867188 256.909179688 147.954101562 259.939453125 142.499023438 266 c 0
 135.833007812 272.666992188 132.499023438 280.666992188 132.499023438 290 c 2
 132.499023438 292 l 2
 133.166992188 300 136.499023438 306.666992188 142.499023438 312 c 0
 148.499023438 317.333007812 158.499023438 320 172.499023438 320 c 2
 174.500976562 319.998046875 l 2
EndSplineSet
Validated: 524289
EndChar

StartChar: greater
Encoding: 62 62 31
Width: 630
GlyphClass: 2
Flags: HMW
HStem: 690 20G<118.499 123.833>
LayerCount: 2
Fore
SplineSet
551.500976562 334 m 0
 548.833984375 325.333007812 544.500976562 319 538.500976562 315 c 0
 500.500976562 287 455.833984375 251.666992188 404.500976562 209 c 0
 353.16796875 166.333007812 306.500976562 128 264.500976562 94 c 0
 221.833984375 60.6669921875 184.166992188 34 151.5 14 c 0
 141.5 7.3330078125 131.833007812 4 122.5 4 c 0
 117.166992188 4 112.5 5.3330078125 108.5 8 c 0
 97.1669921875 14 89.1669921875 22.3330078125 84.5 33 c 0
 82.5 37.6669921875 81.5 42 81.5 46 c 0
 81.5 50 82.8330078125 54.3330078125 85.5 59 c 0
 92.1669921875 69.6669921875 106.5 82.6669921875 128.5 98 c 0
 165.833007812 124 222.5 166.666992188 298.5 226 c 0
 374.5 286 423.166992188 323.666992188 444.5 339 c 2
 454.5 347 l 1
 444.5 354 l 2
 418.5 374 389.5 398.333007812 357.5 427 c 0
 325.5 455.666992188 297.5 481.333984375 273.5 504.000976562 c 0
 249.5 527.333984375 223.5 551.000976562 195.5 575.000976562 c 0
 166.833007812 599.000976562 142.166015625 617.66796875 121.499023438 631.000976562 c 0
 100.166015625 645.000976562 86.4990234375 656.66796875 80.4990234375 666.000976562 c 0
 77.83203125 670.66796875 76.4990234375 675.334960938 76.4990234375 680.001953125 c 0
 76.4990234375 681.334960938 77.166015625 684.334960938 78.4990234375 689.001953125 c 0
 80.4990234375 694.334960938 84.166015625 698.66796875 89.4990234375 702.000976562 c 0
 94.83203125 705.333984375 102.499023438 707.666992188 112.499023438 709 c 0
 115.166015625 709.666992188 117.499023438 710 119.499023438 710 c 0
 128.166015625 710 137.833007812 708 148.5 704 c 0
 164.5 698.666992188 184.5 687.333984375 208.5 670.000976562 c 0
 232.5 652.66796875 258.5 631.334960938 286.5 606.001953125 c 0
 314.5 580.668945312 342.5 555.001953125 370.5 529.001953125 c 0
 398.5 503.001953125 428.166992188 476.334960938 459.5 449.001953125 c 0
 490.166992188 421.668945312 516.833984375 400.001953125 539.500976562 384.001953125 c 0
 546.16796875 378.668945312 550.500976562 371.3359375 552.500976562 362.002929688 c 0
 553.16796875 357.3359375 553.500976562 352.668945312 553.500976562 348.001953125 c 0
 553.500976562 343.334960938 552.833984375 338.666992188 551.500976562 334 c 0
EndSplineSet
Validated: 524289
EndChar

StartChar: question
Encoding: 63 63 32
Width: 630
GlyphClass: 2
Flags: HMW
HStem: -4.00195 134.053 646.999 64.999
VStem: 221.549 143 432.549 80.001
LayerCount: 2
Fore
SplineSet
512.55078125 522 m 0
 512.55078125 505.333007812 509.8828125 490 504.55078125 476 c 0
 499.217773438 462.666992188 492.217773438 451 483.55078125 441 c 0
 474.8828125 431 464.8828125 421.333007812 453.55078125 412 c 0
 441.55078125 403.333007812 429.55078125 394.333007812 417.55078125 385 c 0
 405.55078125 375.666992188 393.8828125 365.666992188 382.55078125 355 c 0
 371.8828125 343.666992188 362.216796875 330.333984375 353.549804688 315.000976562 c 0
 344.8828125 299.66796875 339.21484375 282.66796875 336.548828125 264.000976562 c 0
 333.881835938 248.66796875 328.548828125 237.000976562 320.548828125 229.000976562 c 0
 315.881835938 225.000976562 309.548828125 223.000976562 301.548828125 223.000976562 c 0
 297.548828125 222.333984375 293.21484375 222.666992188 288.548828125 224 c 0
 273.21484375 228 263.21484375 235 258.548828125 245 c 0
 255.881835938 250.333007812 254.548828125 256.666015625 254.548828125 263.999023438 c 0
 254.548828125 271.999023438 255.548828125 280.666015625 257.548828125 289.999023438 c 0
 262.21484375 306.666015625 268.8828125 322.666015625 277.549804688 337.999023438 c 0
 286.216796875 353.33203125 295.549804688 366.33203125 305.549804688 376.999023438 c 0
 316.216796875 388.33203125 327.216796875 398.999023438 338.549804688 408.999023438 c 0
 349.8828125 418.999023438 360.8828125 428.666015625 371.549804688 437.999023438 c 0
 382.216796875 447.33203125 392.216796875 456.999023438 401.549804688 466.999023438 c 0
 410.216796875 476.999023438 417.549804688 487.999023438 423.549804688 499.999023438 c 0
 429.549804688 511.999023438 432.549804688 524.999023438 432.549804688 538.999023438 c 0
 432.549804688 576.999023438 421.216796875 604.666015625 398.549804688 621.999023438 c 0
 377.216796875 638.666015625 346.549804688 646.999023438 306.549804688 646.999023438 c 0
 295.8828125 646.999023438 285.21484375 644.666015625 274.548828125 639.999023438 c 0
 263.881835938 635.999023438 254.881835938 630.999023438 247.548828125 624.999023438 c 0
 240.21484375 618.999023438 232.548828125 611.33203125 224.548828125 601.999023438 c 0
 215.881835938 591.999023438 209.548828125 583.999023438 205.548828125 577.999023438 c 0
 201.548828125 571.999023438 196.548828125 564.666015625 190.548828125 555.999023438 c 0
 184.548828125 547.33203125 179.548828125 540.999023438 175.548828125 536.999023438 c 0
 171.548828125 533.666015625 167.548828125 531.666015625 163.548828125 530.999023438 c 2
 157.548828125 530.999023438 l 2
 155.548828125 530.999023438 152.881835938 531.33203125 149.548828125 531.999023438 c 0
 146.21484375 532.666015625 140.8828125 534.666015625 133.549804688 537.999023438 c 0
 125.549804688 542.666015625 120.549804688 548.999023438 118.548828125 556.999023438 c 0
 117.869140625 559.040039062 117.44921875 562.078125 117.44921875 566.469726562 c 0
 117.44921875 574.08984375 120.150390625 583.599609375 125.549804688 594.999023438 c 0
 140.216796875 622.33203125 161.216796875 647.665039062 188.549804688 670.998046875 c 0
 203.216796875 683.665039062 220.549804688 693.665039062 240.549804688 700.998046875 c 0
 260.549804688 708.331054688 281.216796875 711.998046875 302.549804688 711.998046875 c 0
 371.8828125 711.998046875 424.21484375 696.331054688 459.548828125 664.998046875 c 0
 494.881835938 633.665039062 512.55078125 586 512.55078125 522 c 0
293.548828125 -4.001953125 m 2
 284.549804688 -4.001953125 l 2
 283.63671875 -4.037109375 282.732421875 -4.0546875 281.8359375 -4.0546875 c 0
 265.71484375 -4.0546875 252.287109375 1.6298828125 241.55078125 12.998046875 c 0
 228.217773438 27.6650390625 221.55078125 44.6650390625 221.55078125 63.998046875 c 0
 221.55078125 81.3310546875 228.8828125 96.3310546875 243.55078125 108.998046875 c 0
 259.55078125 122.998046875 278.217773438 129.998046875 299.55078125 129.998046875 c 0
 300.498046875 130.033203125 301.4375 130.05078125 302.3671875 130.05078125 c 0
 319.12109375 130.05078125 333.181640625 124.366210938 344.549804688 112.998046875 c 0
 357.8828125 100.331054688 364.549804688 84.6640625 364.549804688 65.9970703125 c 0
 364.549804688 47.330078125 358.216796875 31.6630859375 345.549804688 18.99609375 c 0
 332.216796875 6.3291015625 314.881835938 -1.3349609375 293.548828125 -4.001953125 c 2
EndSplineSet
Validated: 524289
EndChar

StartChar: at
Encoding: 64 64 33
Width: 630
GlyphClass: 2
Flags: HMW
HStem: -120 66.0049 111.004 59 127.005 61.002 391.008 56.998 623.005 69.9971
VStem: 66.4985 67.0049 189.501 58.0029 371.504 61.001 509.505 53.9971
LayerCount: 2
Fore
SplineSet
513.5 9 m 0xdf80
 510.166992188 -0.3330078125 506.5 -8.3330078125 502.5 -15 c 0
 499.166992188 -22.3330078125 494.5 -30.666015625 488.5 -39.9990234375 c 0
 482.5 -49.9990234375 476.166992188 -58.33203125 469.5 -64.9990234375 c 0
 462.83203125 -71.666015625 454.166015625 -78.666015625 443.499023438 -85.9990234375 c 0
 433.499023438 -93.33203125 422.166015625 -99.33203125 409.499023438 -103.999023438 c 0
 396.83203125 -108.666015625 382.1640625 -112.333007812 365.498046875 -115 c 0
 348.831054688 -118.333007812 331.498046875 -120 313.498046875 -120 c 2
 307.498046875 -120 l 2
 274.1640625 -120 242.83203125 -111.666992188 213.499023438 -95 c 0
 183.499023438 -78.3330078125 157.83203125 -55 136.499023438 -25 c 0
 115.166015625 5 98.166015625 41.6669921875 85.498046875 85 c 0
 72.83203125 129 66.498046875 176.666992188 66.498046875 228 c 0
 67.166015625 286 71.83203125 340 80.5 390 c 0
 89.83203125 440.666992188 102.5 484.333984375 118.5 521.000976562 c 0
 134.5 557.66796875 153.5 589.000976562 175.5 615.000976562 c 0
 196.83203125 641.66796875 220.5 661.334960938 246.5 674.001953125 c 0
 272.5 686.668945312 299.83203125 693.001953125 328.5 693.001953125 c 0
 350.5 693.001953125 370.166992188 691.334960938 387.5 688.001953125 c 0
 405.5 684.668945312 422.5 679.001953125 438.5 671.001953125 c 0
 454.5 663.001953125 468.5 652.334960938 480.5 639.001953125 c 0
 493.166992188 625.668945312 504.833984375 609.001953125 515.5 589.001953125 c 0
 526.16796875 569.001953125 534.834960938 545.334960938 541.501953125 518.001953125 c 0
 556.16796875 458.668945312 563.501953125 383.3359375 563.501953125 292.002929688 c 0
 562.834960938 244.669921875 555.834960938 203.336914062 542.501953125 168.00390625 c 0
 535.834960938 150.00390625 526.501953125 136.00390625 514.501953125 126.00390625 c 0
 503.16796875 116.00390625 489.501953125 111.00390625 473.501953125 111.00390625 c 0xdf80
 450.16796875 111.670898438 432.501953125 119.337890625 420.501953125 134.004882812 c 0
 410.501953125 146.004882812 404.16796875 163.671875 401.501953125 187.004882812 c 2
 397.501953125 232.004882812 l 1
 382.501953125 189.00390625 l 2
 375.834960938 170.336914062 367.16796875 156.004882812 356.5 146.004882812 c 0
 343.833984375 133.337890625 326.833984375 127.004882812 305.5 127.004882812 c 0
 268.833984375 127.671875 240.5 139.338867188 220.5 162.005859375 c 0
 199.833984375 184.672851562 189.5 220.005859375 189.5 268.005859375 c 0
 189.5 292.005859375 192.16796875 314.338867188 197.5 335.005859375 c 0
 202.833984375 355.672851562 210.166992188 373.005859375 219.5 387.005859375 c 0
 228.83203125 400.338867188 239.5 412.005859375 251.5 422.005859375 c 0
 264.166992188 432.005859375 276.833984375 439.005859375 289.5 443.005859375 c 0
 302.16796875 446.338867188 314.834960938 448.005859375 327.501953125 448.005859375 c 0
 345.501953125 448.005859375 362.834960938 444.672851562 379.501953125 438.005859375 c 0
 393.501953125 432.672851562 404.501953125 425.672851562 412.501953125 417.005859375 c 0
 417.16796875 411.672851562 419.501953125 407.33984375 419.501953125 404.006835938 c 0
 419.501953125 402.673828125 419.16796875 401.340820312 418.501953125 400.0078125 c 0
 414.501953125 392.0078125 409.501953125 387.0078125 403.501953125 385.0078125 c 0
 396.834960938 383.0078125 391.834960938 382.0078125 388.501953125 382.0078125 c 0
 383.16796875 382.674804688 375.8359375 384.0078125 366.502929688 386.0078125 c 2
 351.502929688 389.0078125 l 2
 345.502929688 390.340820312 339.8359375 391.0078125 334.502929688 391.0078125 c 2
 322.502929688 391.0078125 l 2
 313.169921875 390.340820312 303.8359375 387.0078125 294.50390625 381.0078125 c 0
 285.170898438 375.0078125 277.170898438 367.674804688 270.50390625 359.0078125 c 0
 263.170898438 351.0078125 257.50390625 340.005859375 253.50390625 326.005859375 c 0
 249.50390625 312.005859375 247.50390625 296.674804688 247.50390625 280.0078125 c 0
 247.50390625 271.340820312 248.170898438 262.673828125 249.50390625 254.006835938 c 0
 250.170898438 246.006835938 252.170898438 236.670898438 255.50390625 226.00390625 c 0
 258.8359375 215.336914062 264.50390625 206.33984375 272.50390625 199.006835938 c 0
 280.50390625 191.673828125 290.50390625 188.006835938 302.50390625 188.006835938 c 0xbf80
 327.170898438 188.006835938 344.837890625 198.006835938 355.50390625 218.006835938 c 0
 364.837890625 235.33984375 370.170898438 263.672851562 371.50390625 303.005859375 c 0
 372.170898438 309.672851562 378.837890625 315.672851562 391.50390625 321.005859375 c 0
 401.50390625 324.338867188 410.171875 326.005859375 417.50390625 326.005859375 c 0
 422.171875 326.005859375 426.502929688 325.338867188 430.502929688 324.005859375 c 0
 434.502929688 322.005859375 436.50390625 319.672851562 436.50390625 317.005859375 c 2
 436.50390625 315.005859375 l 2
 433.837890625 290.338867188 432.50390625 269.671875 432.50390625 253.004882812 c 0
 432.50390625 244.337890625 432.837890625 236.670898438 433.50390625 230.00390625 c 0
 436.171875 208.670898438 440.171875 193.670898438 445.50390625 185.00390625 c 0
 452.171875 175.00390625 461.501953125 170.00390625 473.501953125 170.00390625 c 0
 483.501953125 170.00390625 491.171875 176.336914062 496.50390625 189.00390625 c 0
 500.50390625 199.00390625 503.50390625 211.336914062 505.50390625 226.00390625 c 0
 508.171875 250.670898438 509.50390625 273.670898438 509.50390625 295.00390625 c 0
 509.50390625 329.670898438 508.171875 361.333007812 505.50390625 390 c 0
 502.171875 419.333007812 498.170898438 444.337890625 493.50390625 465.004882812 c 0
 488.8359375 486.337890625 482.8359375 505.337890625 475.50390625 522.004882812 c 0
 468.170898438 539.337890625 460.838867188 553.337890625 453.505859375 564.004882812 c 0
 446.171875 574.671875 437.505859375 584.004882812 427.505859375 592.004882812 c 0
 417.505859375 599.337890625 408.834960938 605.004882812 401.501953125 609.004882812 c 0
 394.16796875 613.671875 385.505859375 617.004882812 375.505859375 619.004882812 c 0
 365.505859375 621.004882812 358.171875 622.004882812 353.505859375 622.004882812 c 0
 348.838867188 622.671875 343.171875 623.004882812 336.50390625 623.004882812 c 0
 307.837890625 622.337890625 281.170898438 613.337890625 256.50390625 596.004882812 c 0
 231.8359375 578.671875 210.50390625 554.671875 192.50390625 524.004882812 c 0
 174.50390625 492.671875 160.170898438 454.671875 149.50390625 410.004882812 c 0
 138.8359375 365.337890625 133.50390625 316.670898438 133.50390625 264.00390625 c 0
 134.170898438 218.00390625 137.837890625 176.670898438 144.50390625 140.00390625 c 0
 151.837890625 102.670898438 161.170898438 72.337890625 172.50390625 49.0048828125 c 0
 183.8359375 25.671875 197.499023438 6.0048828125 213.499023438 -9.9951171875 c 0
 228.83203125 -25.9951171875 244.8359375 -37.328125 261.50390625 -43.9951171875 c 0
 278.170898438 -50.662109375 295.498046875 -53.9951171875 313.498046875 -53.9951171875 c 0
 330.831054688 -53.9951171875 347.169921875 -52.328125 362.502929688 -48.9951171875 c 0
 377.8359375 -45.662109375 390.502929688 -41.3291015625 400.502929688 -35.99609375 c 0
 411.169921875 -30.6630859375 421.169921875 -23.6669921875 430.502929688 -15 c 0
 439.169921875 -7 446.169921875 0.6708984375 451.502929688 8.00390625 c 0
 456.169921875 15.3369140625 461.8359375 24.3369140625 468.50390625 35.00390625 c 0
 471.170898438 39.6708984375 473.50390625 43.337890625 475.50390625 46.0048828125 c 0
 477.50390625 48.0048828125 479.50390625 50.671875 481.50390625 54.0048828125 c 0
 484.170898438 57.337890625 486.170898438 59.6708984375 487.50390625 61.00390625 c 2
 493.50390625 64.00390625 l 2
 496.170898438 66.00390625 499.837890625 66.00390625 504.50390625 64.00390625 c 0
 511.837890625 61.3369140625 516.837890625 57.00390625 519.50390625 51.00390625 c 0
 520.837890625 48.3369140625 521.50390625 45.669921875 521.50390625 43.0029296875 c 0
 521.50390625 34.3359375 518.83203125 23 513.5 9 c 0xdf80
EndSplineSet
Validated: 524289
EndChar

StartChar: A
Encoding: 65 65 34
Width: 630
GlyphClass: 2
Flags: HMW
HStem: 271 50.998
VStem: 67.4985 72.001
LayerCount: 2
Fore
SplineSet
350.5 606.997070312 m 2
 323.16796875 561.6640625 284.16796875 466.331054688 233.5 320.998046875 c 2
 228.5 305.998046875 l 1
 242.5 307.998046875 l 2
 305.16796875 315.998046875 360.834960938 320.665039062 409.501953125 321.998046875 c 2
 420.501953125 321.998046875 l 1
 362.501953125 626.998046875 l 1
 350.5 606.997070312 l 2
482.5 53.9990234375 m 0
 474.5 74.666015625 457.5 147 431.5 271 c 0
 429.5 277.666992188 427.166992188 277.666992188 424.5 271 c 1
 345.166992188 267 272.166992188 259.33203125 205.5 247.999023438 c 1
 183.5 189.33203125 161.5 124.333007812 139.5 53 c 0
 134.166992188 35 126.5 23.330078125 116.5 17.9970703125 c 0
 111.166015625 15.330078125 106.166015625 13.9970703125 101.5 13.9970703125 c 0
 96.83203125 13.9970703125 92.166015625 14.9970703125 87.498046875 16.9970703125 c 0
 74.166015625 22.330078125 67.498046875 34.3330078125 67.498046875 53 c 0
 67.498046875 61 68.83203125 70.3330078125 71.498046875 81 c 0
 76.166015625 104.333007812 96.166015625 158.666015625 131.499023438 243.999023438 c 1
 128.83203125 251.999023438 126.499023438 253.33203125 124.499023438 247.999023438 c 1
 115.83203125 253.999023438 111.498046875 260.999023438 111.498046875 268.999023438 c 2
 111.498046875 269.999023438 l 2
 110.83203125 275.999023438 113.83203125 281.999023438 120.499023438 287.999023438 c 0
 129.166015625 295.33203125 139.83203125 300.999023438 152.5 304.999023438 c 1
 153.83203125 311.666015625 155.166015625 311.998046875 156.499023438 305.998046875 c 1
 235.166015625 499.331054688 294.83203125 627.665039062 335.5 690.998046875 c 0
 344.166992188 703.665039062 351.333984375 712.498046875 357 717.498046875 c 0
 362.66796875 722.498046875 368.834960938 724.998046875 375.501953125 724.998046875 c 2
 376.501953125 724.998046875 l 1
 382.501953125 724.998046875 l 2
 389.834960938 724.998046875 396.834960938 722.998046875 403.501953125 718.998046875 c 0
 410.16796875 714.998046875 414.501953125 706.998046875 416.501953125 694.998046875 c 0
 429.834960938 612.331054688 452.834960938 494.998046875 485.501953125 342.998046875 c 0
 518.16796875 190.331054688 541.16796875 102.331054688 554.501953125 78.998046875 c 0
 559.834960938 69.6650390625 562.501953125 61.33203125 562.501953125 53.9990234375 c 0
 561.834960938 53.33203125 561.501953125 52.33203125 561.501953125 50.9990234375 c 0
 560.834960938 42.33203125 558.334960938 35.1650390625 554.001953125 29.498046875 c 0
 549.66796875 23.8310546875 544.501953125 19.6640625 538.501953125 16.9970703125 c 0
 533.834960938 14.9970703125 529.16796875 13.9970703125 524.5 13.9970703125 c 0
 519.16796875 13.9970703125 513.834960938 15.330078125 508.501953125 17.9970703125 c 0
 497.834960938 23.330078125 489.166992188 35.33203125 482.5 53.9990234375 c 0
EndSplineSet
Validated: 524289
EndChar

StartChar: B
Encoding: 66 66 35
Width: 630
GlyphClass: 2
Flags: HMW
HStem: -20.3672 79.3672 307 51.999 640.002 49.998
VStem: 91.5 77.7998 95.5 82.999 426.5 72.001 460.502 79.998
LayerCount: 2
Fore
SplineSet
412.497070312 260.001953125 m 0xea
 398.497070312 269.334960938 379.330078125 278.16796875 354.997070312 286.500976562 c 0
 330.6640625 294.833984375 302.831054688 301.666992188 271.498046875 307 c 1
 270.498046875 307 l 2
 225.165039062 307 191.83203125 306.666992188 170.499023438 306 c 1
 173.83203125 192 176.499023438 109 178.499023438 57 c 1
 191.83203125 58.3330078125 206.499023438 59 222.499023438 59 c 0
 238.499023438 59.6669921875 250.499023438 60 258.499023438 60 c 0
 287.166015625 61.3330078125 314.333007812 66.666015625 340 75.9990234375 c 0
 365.666992188 85.33203125 386.833984375 96.9990234375 403.500976562 110.999023438 c 0
 420.16796875 124.33203125 433.834960938 138.83203125 444.501953125 154.499023438 c 0
 455.168945312 170.166015625 460.501953125 184.999023438 460.501953125 198.999023438 c 0
 460.501953125 219.666015625 444.497070312 240.001953125 412.497070312 260.001953125 c 0xea
181.5 626.999023438 m 2
 174.5 624.999023438 l 1
 174.5 607.666015625 173.833007812 584.999023438 172.5 556.999023438 c 0
 170.366210938 503.668945312 169.299804688 451.40625 169.299804688 400.209960938 c 0
 169.299804688 387.40625 169.366210938 374.668945312 169.5 361.999023438 c 1
 205.5 359.999023438 236.5 358.999023438 262.5 358.999023438 c 0
 281.833007812 358.999023438 299.333007812 360.83203125 315 364.499023438 c 0
 330.666992188 368.166015625 344.166992188 372.833007812 355.5 378.5 c 0
 366.833007812 384.166992188 376.833007812 391.166992188 385.5 399.5 c 0
 394.166992188 407.833007812 400.833007812 416.333007812 405.5 425 c 0
 410.166992188 433.666992188 414.16796875 443 417.500976562 453 c 0
 420.833984375 463 423.166992188 472.333007812 424.5 481 c 0
 425.833007812 489.666992188 426.5 498.333984375 426.5 507.000976562 c 0xf4
 425.833007812 525.66796875 422.166015625 543.000976562 415.499023438 559.000976562 c 0
 408.83203125 575.000976562 400.165039062 587.833984375 389.498046875 597.500976562 c 0
 378.831054688 607.16796875 367.1640625 615.334960938 354.497070312 622.001953125 c 0
 331.830078125 634.001953125 307.830078125 640.001953125 282.497070312 640.001953125 c 0
 248.497070312 640.001953125 214.833007812 635.666015625 181.5 626.999023438 c 2
522.001953125 130 m 0
 509.668945312 106.666992188 491.666015625 84.833984375 467.999023438 64.5009765625 c 0
 444.33203125 44.16796875 415.166992188 27.0009765625 380.5 13.0009765625 c 0
 346.5 -0.9990234375 308.833007812 -9.9990234375 267.5 -13.9990234375 c 1
 247.81640625 -20.3671875 l 2
 243.044921875 -20.3671875 238.2734375 -19.244140625 233.501953125 -16.9990234375 c 2
 214.974609375 -23.3671875 l 2
 210.483398438 -23.3671875 205.9921875 -22.244140625 201.500976562 -19.9990234375 c 0
 181.500976562 -21.9990234375 165.833984375 -22.9990234375 154.500976562 -22.9990234375 c 0
 147.16796875 -22.9990234375 140.16796875 -22.33203125 133.500976562 -20.9990234375 c 2
 129.500976562 -20.9990234375 l 2
 118.833984375 -21.666015625 110.166992188 -18.3330078125 103.5 -11 c 0
 98.1669921875 -5 95.5 3.3330078125 95.5 14 c 2
 95.5 19 l 2xea
 96.8330078125 39.6669921875 97.5 74.333984375 97.5 123.000976562 c 0
 97.5 213.66796875 95.5 314.000976562 91.5 424.000976562 c 0
 90.1669921875 468.66796875 89.5 498.500976562 89.5 513.500976562 c 0
 89.5 528.500976562 90.1669921875 549.000976562 91.5 575.000976562 c 0
 92.8330078125 601.000976562 93.5 619.000976562 93.5 629.000976562 c 0
 94.1669921875 644.333984375 98.333984375 655.666992188 106.000976562 663 c 0
 113.66796875 670.333007812 122.833984375 674 133.500976562 674 c 2
 137.501953125 674 l 1
 138.501953125 674 l 2
 149.834960938 677.333007812 161.166992188 680 172.5 682 c 0
 194.5 686 214.500976562 688.333007812 232.500976562 689 c 0
 242.500976562 689.666992188 250.16796875 690 255.500976562 690 c 2
 274.500976562 690 l 1
 284.500976562 690 l 2
 324.500976562 690 359.833984375 682 390.500976562 666 c 0
 422.500976562 650 448.500976562 626.833007812 468.500976562 596.5 c 0
 488.500976562 566.166992188 498.500976562 530 498.500976562 488 c 0xf4
 498.500976562 452.666992188 490.16796875 422.333984375 473.500976562 397.000976562 c 0
 456.833984375 371.66796875 434.166992188 353.000976562 405.5 341.000976562 c 1
 397.5 331.000976562 389.833007812 327.66796875 382.5 331.000976562 c 1
 390.5 321.000976562 398.166992188 318.000976562 405.5 322.000976562 c 1
 426.166992188 314.66796875 447 304.16796875 468 290.500976562 c 0
 489 276.833984375 506.333007812 261.666992188 520 245 c 0
 533.666992188 228.333007812 540.5 213.666015625 540.5 200.999023438 c 2
 540.5 198.999023438 l 2xe2
 540.5 176.33203125 534.334960938 153.333007812 522.001953125 130 c 0
EndSplineSet
Validated: 524289
EndChar

StartChar: C
Encoding: 67 67 36
Width: 630
GlyphClass: 2
Flags: HMW
HStem: -30.999 72.001 650.002 62.999
VStem: 76.999 80.999 470 83.001
LayerCount: 2
Fore
SplineSet
540 553.5 m 0
 531.333007812 541.166992188 523 534.333984375 515 533.000976562 c 2
 509 533.000976562 l 2
 501 533.000976562 492.666992188 535.66796875 484 541.000976562 c 0
 474.666992188 547.66796875 470 556.334960938 470 567.001953125 c 0
 470 572.334960938 470.666992188 588.334960938 472 615.001953125 c 1
 456.666992188 625.668945312 447.666992188 632.001953125 445 634.001953125 c 0
 442.333007812 636.001953125 438.333007812 638.334960938 433 641.001953125 c 0
 423 647.001953125 412.666992188 650.001953125 402 650.001953125 c 0
 381.333007812 650.001953125 359.5 642.668945312 336.5 628.001953125 c 0
 313.5 613.334960938 291.666992188 593.001953125 271 567.001953125 c 0
 250.333007812 541.001953125 231.666015625 511.334960938 214.999023438 478.001953125 c 0
 198.33203125 444.001953125 184.665039062 406.001953125 173.998046875 364.001953125 c 0
 163.331054688 322.001953125 157.998046875 279.668945312 157.998046875 237.001953125 c 0
 157.998046875 205.001953125 163.998046875 174.168945312 175.998046875 144.501953125 c 0
 187.998046875 114.834960938 204.665039062 90.001953125 225.998046875 70.001953125 c 0
 246.665039062 50.6689453125 269.665039062 41.001953125 294.998046875 41.001953125 c 0
 315.665039062 41.001953125 335.665039062 43.3349609375 354.998046875 48.001953125 c 0
 374.331054688 52.6689453125 391.831054688 58.8359375 407.498046875 66.5029296875 c 0
 423.165039062 74.169921875 436.998046875 81.669921875 448.998046875 89.0029296875 c 0
 460.331054688 96.3359375 471.331054688 104.3359375 481.998046875 113.002929688 c 0
 489.998046875 118.3359375 496.831054688 122.3359375 502.498046875 125.002929688 c 0
 508.165039062 127.669921875 513.998046875 129.002929688 519.998046875 129.002929688 c 0
 525.331054688 129.002929688 530.331054688 127.3359375 534.998046875 124.002929688 c 0
 543.665039062 117.3359375 547.998046875 109.668945312 547.998046875 101.001953125 c 0
 547.998046875 90.3349609375 541.665039062 77.66796875 528.998046875 63.0009765625 c 0
 474.998046875 0.333984375 395.998046875 -30.9990234375 291.998046875 -30.9990234375 c 2
 283.998046875 -30.9990234375 l 2
 259.998046875 -30.9990234375 237.331054688 -26.666015625 215.998046875 -17.9990234375 c 0
 193.998046875 -8.666015625 174.665039062 3.6669921875 157.998046875 19 c 0
 141.331054688 34.3330078125 126.831054688 52 114.498046875 72 c 0
 102.165039062 92 92.83203125 113.333007812 86.4990234375 136 c 0
 80.166015625 158.666992188 76.9990234375 181.333984375 76.9990234375 204.000976562 c 0
 76.9990234375 252.66796875 81.9990234375 300.16796875 91.9990234375 346.500976562 c 0
 101.999023438 392.833984375 115.33203125 434.333984375 131.999023438 471.000976562 c 0
 148.666015625 507.66796875 168.333007812 541.334960938 191 572.001953125 c 0
 211.666992188 603.334960938 233.5 629.16796875 256.5 649.500976562 c 0
 279.5 669.833984375 302.833007812 685.500976562 326.5 696.500976562 c 0
 350.166992188 707.500976562 373 713.000976562 395 713.000976562 c 0
 417 713.000976562 437.666992188 710.333984375 457 705.000976562 c 1
 459.666992188 710.333984375 462.666992188 709.333984375 466 702.000976562 c 1
 467.333007812 712.000976562 468.333007812 715.333984375 469 712.000976562 c 1
 471 720.000976562 475 726.66796875 481 732.000976562 c 0
 487 736.66796875 493.666992188 739.334960938 501 740.001953125 c 0
 504.333007812 740.668945312 506.333007812 741.001953125 507 741.001953125 c 0
 513.666992188 741.001953125 520.666992188 738.668945312 528 734.001953125 c 0
 536.666992188 728.668945312 542.333984375 720.3359375 545.000976562 709.002929688 c 0
 550.333984375 683.669921875 553.000976562 656.668945312 553.000976562 628.001953125 c 2
 553.000976562 591.002929688 l 2
 553.000976562 578.3359375 548.666992188 565.833007812 540 553.5 c 0
EndSplineSet
Validated: 524289
EndChar

StartChar: D
Encoding: 68 68 37
Width: 630
GlyphClass: 2
Flags: HMW
HStem: -31 75.999 675 20G<111.834 128.167>
VStem: 74.5014 77.7113 478.503 76.9953
LayerCount: 2
Fore
SplineSet
329.498046875 551 m 0
 295.498046875 574.333007812 246.498046875 598.666015625 182.498046875 623.999023438 c 1
 181.498046875 624.999023438 l 1
 180.498046875 624.999023438 l 1
 179.498046875 625.999023438 l 1
 178.498046875 625.999023438 l 1
 177.498046875 625.999023438 l 1
 177.498046875 626.999023438 l 1
 176.498046875 626.999023438 l 1
 175.498046875 626.999023438 l 1
 174.498046875 626.999023438 l 1
 174.498046875 627.999023438 l 1
 173.498046875 627.999023438 l 1
 172.498046875 627.999023438 l 1
 171.498046875 627.999023438 l 1
 171.498046875 628.999023438 l 1
 170.498046875 628.999023438 l 1
 169.498046875 628.999023438 l 1
 168.49609375 629.999023438 l 1
 167.498046875 629.999023438 l 1
 154.498046875 643.999023438 l 1
 153.498046875 620.999023438 l 2
 152.640625 583.283203125 152.212890625 546.118164062 152.212890625 509.50390625 c 0
 152.212890625 460.689453125 152.974609375 412.854492188 154.498046875 365.999023438 c 0
 155.831054688 324.666015625 157.1640625 275.166015625 158.498046875 217.499023438 c 0
 159.830078125 159.83203125 161.163085938 114.33203125 162.49609375 80.9990234375 c 1
 168.49609375 78.9990234375 l 2
 195.830078125 66.33203125 223.49609375 57.4990234375 251.49609375 52.4990234375 c 0
 279.49609375 47.4990234375 311.49609375 44.9990234375 347.49609375 44.9990234375 c 0
 366.830078125 44.9990234375 384.830078125 51.83203125 401.49609375 65.4990234375 c 0
 418.163085938 79.166015625 431.830078125 96.3330078125 442.498046875 117 c 0
 453.830078125 137.666992188 462.663085938 160.166992188 468.99609375 184.5 c 0
 478.458984375 220.85546875 478.502929688 247.245117188 478.502929688 258.552734375 c 0
 478.502929688 385.967773438 428.8359375 483.450195312 329.498046875 551 c 0
546.501953125 152.5 m 0
 540.501953125 128.833007812 531.169921875 106 518.501953125 84 c 0
 505.834960938 62 491.16796875 42.5 474.501953125 25.5 c 0
 457.833984375 8.5 438.501953125 -5.3330078125 416.501953125 -16 c 0
 395.16796875 -26 372.501953125 -31 348.501953125 -31 c 2
 339.501953125 -31 l 2
 312.16796875 -31 284.66796875 -29.6669921875 257.001953125 -27 c 0
 229.333984375 -24.3330078125 206.833984375 -21 189.501953125 -17 c 0
 171.501953125 -12.3330078125 155.333984375 -8.3330078125 141.001953125 -5 c 0
 126.66796875 -1.6669921875 117.8359375 0 114.501953125 0 c 0
 103.8359375 0 95.16796875 3.3330078125 88.501953125 10 c 0
 82.501953125 16 79.501953125 24.3330078125 79.501953125 35 c 2
 79.501953125 41 l 2
 81.501953125 65 82.501953125 102.333007812 82.501953125 153 c 0
 81.833984375 243.666992188 79.501953125 351.666992188 75.501953125 477 c 0
 74.833984375 514.333007812 74.501953125 538.833007812 74.501953125 550.5 c 0
 74.501953125 562.166992188 75.001953125 580.333984375 76.001953125 605.000976562 c 0
 77.001953125 629.66796875 77.501953125 644.66796875 77.501953125 650.000976562 c 0
 78.16796875 665.333984375 82.16796875 676.666992188 89.501953125 684 c 0
 96.833984375 691.333007812 106.16796875 695 117.5 695 c 0
 138.833984375 695 166.166015625 691.666992188 199.499023438 685 c 0
 218.83203125 681 238.499023438 675.5 258.499023438 668.5 c 0
 278.499023438 661.5 300.166015625 651.833007812 323.499023438 639.5 c 0
 346.83203125 627.166992188 368.83203125 612.666992188 389.499023438 596 c 0
 410.166015625 579.333007812 430.499023438 559 450.499023438 535 c 0
 471.83203125 511 490.166015625 484.5 505.498046875 455.5 c 0
 520.831054688 426.5 532.998046875 391.833007812 541.998046875 351.5 c 0
 550.998046875 311.166992188 555.498046875 267.666992188 555.498046875 221 c 0
 555.498046875 199 552.501953125 176.166992188 546.501953125 152.5 c 0
EndSplineSet
Validated: 524289
EndChar

StartChar: E
Encoding: 69 69 38
Width: 630
GlyphClass: 2
Flags: HMW
HStem: -20 68.0039<196.124 256.796> -6 71.0039<482.791 514.796 490.458 514.796> 312.004 65.998 332.004 61.999 615.002 63.999
VStem: 88.4576 76.0039
LayerCount: 2
Fore
SplineSet
503.45703125 -6 m 2x4c
 490.45703125 -6 l 2x4c
 475.124023438 -6 450.124023438 -7 415.45703125 -9 c 0
 314.790039062 -16.3330078125 245.123046875 -20 206.456054688 -20 c 0
 185.7890625 -20 168.456054688 -19.3330078125 154.456054688 -18 c 0
 141.123046875 -17.3330078125 127.623046875 -10.666015625 113.956054688 2.0009765625 c 0
 100.2890625 14.66796875 92.4560546875 30.00390625 90.4560546875 48.00390625 c 0
 88.4560546875 64.00390625 87.4560546875 91.333984375 87.4560546875 130.000976562 c 0
 87.4560546875 168.66796875 87.7890625 210.66796875 88.4560546875 256.000976562 c 2
 88.4560546875 343.500976562 l 2
 88.4560546875 370.500976562 87.7890625 408.000976562 86.4560546875 456.000976562 c 0
 85.7890625 496.000976562 85.4560546875 522.333984375 85.4560546875 535.000976562 c 0
 85.4560546875 547.66796875 85.9560546875 566.500976562 86.9560546875 591.500976562 c 0
 87.9560546875 616.500976562 88.4560546875 632.333984375 88.4560546875 639.000976562 c 0
 89.123046875 654.333984375 93.2900390625 665.833984375 100.95703125 673.500976562 c 0
 108.624023438 681.16796875 117.791015625 685.000976562 128.458007812 685.000976562 c 1
 129.125 678.333984375 130.125 678.333984375 131.458007812 685.000976562 c 1
 144.125 684.333984375 153.791992188 679.666992188 160.458984375 671 c 0
 161.791992188 663.666992188 163.126953125 662.333984375 164.459960938 667.000976562 c 1
 166.459960938 661.000976562 168.458007812 661.333984375 170.458007812 668.000976562 c 1
 221.125 675.333984375 284.791992188 679.000976562 361.458984375 679.000976562 c 0
 382.791992188 679.000976562 401.791992188 678.66796875 418.458984375 678.000976562 c 0
 457.125976562 676.000976562 487.79296875 673.666992188 510.459960938 671 c 0
 524.459960938 669.666992188 533.626953125 666.834960938 537.959960938 662.501953125 c 0
 542.29296875 658.168945312 544.459960938 652.001953125 544.459960938 644.001953125 c 0
 544.459960938 626.668945312 539.79296875 616.001953125 530.459960938 612.001953125 c 0
 526.459960938 610.001953125 522.959960938 609.168945312 519.959960938 609.501953125 c 0
 516.959960938 609.834960938 514.459960938 610.001953125 512.459960938 610.001953125 c 0
 465.79296875 613.334960938 420.459960938 615.001953125 376.459960938 615.001953125 c 0
 361.126953125 615.001953125 345.793945312 614.668945312 330.4609375 614.001953125 c 0
 272.4609375 612.668945312 221.4609375 608.668945312 177.4609375 602.001953125 c 1
 174.793945312 595.334960938 172.126953125 595.001953125 169.459960938 601.001953125 c 1
 166.126953125 525.668945312 164.459960938 454.668945312 164.459960938 388.001953125 c 2
 164.459960938 378.001953125 l 1xac
 217.79296875 378.668945312 283.125976562 381.3359375 360.458984375 386.002929688 c 0
 440.458984375 391.3359375 485.458984375 394.002929688 495.458984375 394.002929688 c 0
 508.125976562 394.002929688 516.79296875 391.502929688 521.459960938 386.502929688 c 0
 526.126953125 381.502929688 528.459960938 374.669921875 528.459960938 366.002929688 c 0
 528.459960938 354.669921875 526.459960938 346.336914062 522.459960938 341.00390625 c 0
 517.126953125 335.00390625 508.293945312 332.00390625 495.9609375 332.00390625 c 0x1c
 483.627929688 332.00390625 434.4609375 328.670898438 348.4609375 322.00390625 c 0
 264.4609375 315.336914062 206.4609375 312.00390625 174.4609375 312.00390625 c 1
 171.793945312 304.670898438 168.793945312 304.337890625 165.4609375 311.004882812 c 1
 165.4609375 284.337890625 165.793945312 247.670898438 166.4609375 201.00390625 c 0
 166.4609375 172.336914062 166.793945312 149.00390625 167.4609375 131.00390625 c 0
 168.793945312 93.00390625 171.4609375 68.6708984375 175.4609375 58.00390625 c 0
 176.127929688 50.00390625 176.793945312 48.6708984375 177.4609375 54.00390625 c 1
 179.4609375 47.3369140625 181.12890625 47.00390625 182.461914062 53.00390625 c 1
 193.12890625 49.6708984375 214.12890625 48.00390625 245.461914062 48.00390625 c 0xac
 268.12890625 48.00390625 296.4609375 48.6708984375 330.4609375 50.00390625 c 0
 411.793945312 54.00390625 465.124023438 58.3369140625 490.45703125 63.00390625 c 0
 499.124023438 64.3369140625 506.294921875 65.00390625 511.961914062 65.00390625 c 0x4c
 517.62890625 65.00390625 522.461914062 64.00390625 526.461914062 62.00390625 c 0
 530.461914062 60.00390625 533.461914062 58.00390625 535.461914062 56.00390625 c 0
 537.461914062 54.00390625 539.12890625 51.3369140625 540.461914062 48.00390625 c 0x8c
 541.794921875 44.6708984375 542.794921875 41.837890625 543.461914062 39.5048828125 c 0
 544.12890625 37.171875 544.459960938 34.3388671875 544.459960938 31.005859375 c 0
 545.126953125 20.3388671875 541.795898438 11.005859375 534.462890625 3.005859375 c 0
 529.129882812 -3.6611328125 520.796875 -6.994140625 509.463867188 -6.994140625 c 0
 507.463867188 -6.3271484375 505.45703125 -6 503.45703125 -6 c 2x4c
EndSplineSet
Validated: 524289
EndChar

StartChar: F
Encoding: 70 70 39
Width: 630
GlyphClass: 2
Flags: HMW
HStem: 310.003 62 323.003 64.999 619.002 67.998 675.001 20G
VStem: 86.997 77.8028 90.997 84.001
LayerCount: 2
Fore
SplineSet
512.001953125 682 m 0x28
 525.334960938 680.666992188 534.001953125 677.833007812 538.001953125 673.5 c 0
 542.001953125 669.166992188 544.334960938 662.666992188 545.001953125 654 c 0
 545.001953125 644.666992188 542.001953125 636.333984375 536.001953125 629.000976562 c 0
 531.334960938 622.333984375 522.66796875 619.000976562 510.001953125 619.000976562 c 2
 509.001953125 619.000976562 l 2
 472.333984375 621.000976562 435.333984375 622.000976562 398.001953125 622.000976562 c 0
 329.333984375 622.000976562 253.333984375 618.333984375 170.001953125 611.000976562 c 1
 169.333984375 594.333984375 168.666992188 573.333984375 168 548.000976562 c 0
 165.866210938 502.670898438 164.799804688 458.194335938 164.799804688 414.571289062 c 0
 164.799804688 403.661132812 164.866210938 392.8046875 165 382.001953125 c 0
 169 376.001953125 172.666992188 376.334960938 176 383.001953125 c 1
 203.333984375 386.334960938 232.666015625 388.001953125 263.999023438 388.001953125 c 2
 285.999023438 388.001953125 l 2x68
 325.999023438 386.668945312 361.999023438 384.668945312 393.999023438 382.001953125 c 0
 426.666015625 378.668945312 453.333984375 375.3359375 474 372.002929688 c 0
 488.666992188 369.3359375 498 366.002929688 502 362.002929688 c 0
 506 358.002929688 508.333984375 352.002929688 509 344.002929688 c 0
 509 334.002929688 506.666992188 325.3359375 502 318.002929688 c 0
 499.333984375 312.669921875 492.666015625 310.002929688 481.999023438 310.002929688 c 2
 476.999023438 310.002929688 l 2x88
 456.33203125 313.3359375 427.999023438 316.3359375 391.999023438 319.002929688 c 0
 357.999023438 321.669921875 319.666015625 323.002929688 276.999023438 323.002929688 c 0
 236.33203125 322.3359375 201.999023438 320.002929688 173.999023438 316.002929688 c 1
 171.33203125 309.3359375 168.666015625 309.002929688 165.998046875 315.002929688 c 1
 168.666015625 208.3359375 171.666015625 108.3359375 174.998046875 15.0029296875 c 0
 173.666015625 3.669921875 168.498046875 -5.330078125 159.498046875 -11.9970703125 c 0
 150.498046875 -18.6640625 140.331054688 -21.9970703125 128.998046875 -21.9970703125 c 1
 128.331054688 -27.9970703125 127.331054688 -27.6640625 125.998046875 -20.9970703125 c 1
 115.33203125 -21.6640625 106.6640625 -18.3310546875 99.998046875 -10.998046875 c 0
 93.998046875 -4.998046875 90.998046875 3.3349609375 90.998046875 14.001953125 c 2
 90.998046875 19.001953125 l 2x44
 92.998046875 41.001953125 93.998046875 77.6689453125 93.998046875 129.001953125 c 0
 93.330078125 223.668945312 90.998046875 329.001953125 86.998046875 445.001953125 c 0
 85.6640625 489.668945312 84.998046875 519.668945312 84.998046875 535.001953125 c 0
 84.998046875 550.334960938 85.6640625 570.834960938 86.998046875 596.501953125 c 0
 88.330078125 622.168945312 88.998046875 640.001953125 88.998046875 650.001953125 c 0
 89.6640625 665.334960938 93.6640625 676.66796875 100.998046875 684.000976562 c 0
 108.330078125 691.333984375 117.6640625 695.000976562 128.99609375 695.000976562 c 1
 130.99609375 688.333984375 132.663085938 688.333984375 133.99609375 695.000976562 c 1x58
 146.663085938 695.000976562 156.330078125 690.66796875 162.998046875 682.000976562 c 1
 163.6640625 673.333984375 164.6640625 671.666992188 165.998046875 677 c 1
 245.998046875 683.666992188 320.998046875 687 390.998046875 687 c 0
 437.6640625 687 478.001953125 685.333007812 512.001953125 682 c 0x28
EndSplineSet
Validated: 524289
EndChar

StartChar: G
Encoding: 71 71 40
Width: 630
GlyphClass: 2
Flags: HMW
HStem: -31.002 72.002 248.5 74.501 285.998 64.5022 661 62.998
VStem: 75.4015 79.998
LayerCount: 2
Fore
SplineSet
479.3984375 705 m 0xb8
 512.731445312 692.333007812 533.731445312 681.333007812 542.3984375 672 c 0
 550.3984375 664 554.3984375 654.666992188 554.3984375 644 c 0
 555.065429688 638 554.065429688 631.333007812 551.3984375 624 c 0
 550.065429688 618 545.732421875 613.666992188 538.399414062 611 c 0
 533.732421875 609.666992188 529.899414062 609 526.899414062 609 c 0
 523.899414062 609 519.732421875 609.666992188 514.399414062 611 c 0
 510.399414062 612.333007812 501.232421875 617.333007812 486.899414062 626 c 0
 472.56640625 634.666992188 457.399414062 642.666992188 441.399414062 650 c 0
 426.06640625 657.333007812 412.06640625 661 399.399414062 661 c 0
 378.732421875 661 356.899414062 653.5 333.899414062 638.5 c 0
 310.899414062 623.5 289.232421875 602.5 268.899414062 575.5 c 0
 248.56640625 548.5 230.06640625 518 213.399414062 484 c 0
 196.06640625 449.333007812 182.06640625 410.5 171.399414062 367.5 c 0
 160.732421875 324.5 155.399414062 281 155.399414062 237 c 0
 155.399414062 205 161.399414062 174.166992188 173.399414062 144.5 c 0
 185.399414062 114.833007812 202.06640625 90 223.399414062 70 c 0
 244.06640625 50.6669921875 267.06640625 41 292.399414062 41 c 0
 309.06640625 41 325.733398438 46.6669921875 342.400390625 58 c 0
 359.067382812 69.3330078125 373.900390625 83.666015625 386.900390625 100.999023438 c 0
 399.900390625 118.33203125 412.067382812 137.33203125 423.400390625 157.999023438 c 0
 434.733398438 178.666015625 444.400390625 198.999023438 452.400390625 218.999023438 c 0
 460.400390625 238.999023438 466.733398438 257.33203125 471.400390625 273.999023438 c 0
 472.733398438 276.666015625 474.06640625 280.999023438 475.399414062 286.999023438 c 1
 470.732421875 285.666015625 466.065429688 285.333007812 461.3984375 286 c 0
 421.3984375 284 382.3984375 280.166992188 344.3984375 274.5 c 0
 306.3984375 268.833007812 279.731445312 261.333007812 264.3984375 252 c 0
 261.065429688 250 257.732421875 248.833007812 254.399414062 248.5 c 0
 251.06640625 248.166992188 247.733398438 249.333984375 244.400390625 252.000976562 c 0
 237.067382812 257.333984375 232.734375 264.333984375 231.401367188 273.000976562 c 2
 231.401367188 281.000976562 l 2
 231.401367188 298.333984375 241.734375 312.333984375 262.401367188 323.000976562 c 0xd8
 278.401367188 332.333984375 314.734375 339.666992188 371.401367188 345 c 0
 413.401367188 348.333007812 450.068359375 350 481.401367188 350 c 0
 487.401367188 350.333984375 493.068359375 350.500976562 498.401367188 350.500976562 c 0
 503.734375 350.500976562 508.734375 350.333984375 513.401367188 350 c 0
 528.068359375 348.666992188 537.735351562 346 542.40234375 342 c 0
 548.40234375 337.333007812 551.40234375 328.666015625 551.40234375 315.999023438 c 0
 551.40234375 309.33203125 550.235351562 303.665039062 547.90234375 298.998046875 c 0
 545.569335938 294.331054688 541.40234375 290.998046875 535.40234375 288.998046875 c 0
 533.40234375 286.331054688 531.40234375 285.331054688 529.40234375 285.998046875 c 1
 529.40234375 278.998046875 l 2
 529.40234375 276.998046875 528.90234375 271.665039062 527.90234375 262.998046875 c 0
 526.90234375 254.331054688 526.069335938 247.331054688 525.40234375 241.998046875 c 0
 524.069335938 227.998046875 520.069335938 211.831054688 513.40234375 193.498046875 c 0
 506.735351562 175.165039062 497.90234375 155.498046875 486.90234375 134.498046875 c 0
 475.90234375 113.498046875 462.735351562 92.998046875 447.40234375 72.998046875 c 0
 432.735351562 53.6650390625 417.068359375 35.998046875 400.401367188 19.998046875 c 0
 383.734375 3.998046875 365.401367188 -8.6689453125 345.401367188 -18.001953125 c 0
 325.401367188 -26.6689453125 305.068359375 -31.001953125 284.401367188 -31.001953125 c 2
 282.401367188 -31.001953125 l 1
 281.401367188 -31.001953125 l 2
 257.401367188 -31.001953125 234.734375 -26.6689453125 213.401367188 -18.001953125 c 0
 191.401367188 -8.6689453125 172.068359375 3.6640625 155.401367188 18.9970703125 c 0
 138.734375 34.330078125 124.234375 51.9970703125 111.901367188 71.9970703125 c 0
 99.568359375 91.9970703125 90.4013671875 113.330078125 84.4013671875 135.997070312 c 0
 78.4013671875 158.6640625 75.4013671875 181.331054688 75.4013671875 203.998046875 c 0
 75.4013671875 253.998046875 80.234375 302.665039062 89.9013671875 349.998046875 c 0
 99.568359375 397.331054688 112.735351562 439.831054688 129.40234375 477.498046875 c 0
 146.069335938 515.165039062 165.736328125 549.665039062 188.403320312 580.998046875 c 0
 209.0703125 612.331054688 230.903320312 638.331054688 253.903320312 658.998046875 c 0
 276.903320312 679.665039062 300.403320312 695.665039062 324.403320312 706.998046875 c 0
 348.403320312 718.331054688 371.403320312 723.998046875 393.403320312 723.998046875 c 0
 417.403320312 723.998046875 446.065429688 717.666992188 479.3984375 705 c 0xb8
EndSplineSet
Validated: 524289
EndChar

StartChar: H
Encoding: 72 72 41
Width: 630
GlyphClass: 2
Flags: HMW
HStem: 311.994 66.002 674.994 20G
VStem: 103 79.499 444.499 83.001 453.499 80.001
LayerCount: 2
Fore
SplineSet
179.999023438 292 m 0xe8
 179.666015625 287.333007812 179.499023438 284 179.499023438 282 c 0
 177.499023438 248.666992188 176.499023438 209.833984375 176.499023438 165.500976562 c 0
 176.499023438 121.16796875 177.499023438 70.9951171875 179.499023438 14.9951171875 c 0
 178.166015625 3.662109375 172.833007812 -5.337890625 163.499023438 -12.0048828125 c 0
 154.166992188 -18.671875 143.833984375 -22.0048828125 132.500976562 -22.0048828125 c 1
 131.833984375 -28.0048828125 130.833984375 -27.671875 129.500976562 -21.0048828125 c 1
 119.500976562 -21.671875 111.16796875 -18.3388671875 104.500976562 -11.005859375 c 0
 98.5009765625 -5.005859375 95.5009765625 3 95.5009765625 13 c 0
 96.16796875 15 96.5009765625 16.994140625 96.5009765625 18.994140625 c 0
 97.833984375 38.3271484375 98.5009765625 81.3330078125 98.5009765625 148 c 0
 98.5009765625 182.666992188 98.833984375 214 99.5009765625 242 c 2
 99.5009765625 243 l 2
 99.5009765625 265 100.000976562 297.166992188 101.000976562 339.5 c 0
 102.000976562 381.833007812 102.66796875 409.166015625 103.000976562 421.499023438 c 0
 103.333984375 433.83203125 103.500976562 446.165039062 103.500976562 458.498046875 c 0
 103.500976562 470.831054688 103.16796875 490.998046875 102.500976562 518.998046875 c 0
 101.833984375 546.998046875 101.500976562 565.498046875 101.500976562 574.498046875 c 0
 101.500976562 583.498046875 102.500976562 608.662109375 104.500976562 649.995117188 c 0
 105.16796875 665.328125 109.16796875 676.661132812 116.500976562 683.994140625 c 0
 123.833984375 691.327148438 133.166992188 694.994140625 144.499023438 694.994140625 c 2
 147.499023438 694.994140625 l 2
 158.166992188 694.994140625 167.166992188 691.827148438 174.499023438 685.494140625 c 0
 181.833007812 679.161132812 185.499023438 668.328125 185.499023438 652.995117188 c 0
 185.499023438 646.328125 184.666992188 632.1640625 182.999023438 610.497070312 c 0
 181.333007812 588.830078125 180.499023438 568.830078125 180.499023438 550.497070312 c 0
 180.499023438 532.1640625 180.833007812 505.1640625 181.499023438 469.497070312 c 0
 182.166992188 433.830078125 182.499023438 406.663085938 182.499023438 387.99609375 c 2
 182.499023438 377.99609375 l 2
 185.166992188 371.329101562 188.166992188 371.329101562 191.499023438 377.99609375 c 1
 244.833007812 379.329101562 308.833007812 385.662109375 383.499023438 396.995117188 c 0
 412.166992188 400.995117188 435.166992188 403.662109375 452.499023438 404.995117188 c 1
 452.499023438 413.995117188 l 2
 452.499023438 418.662109375 452.166992188 425.662109375 451.499023438 434.995117188 c 0
 450.833007812 444.328125 450.499023438 451.328125 450.499023438 455.995117188 c 0
 449.833007812 497.328125 449.499023438 524.495117188 449.499023438 537.495117188 c 0
 449.499023438 550.495117188 450.166992188 570.995117188 451.499023438 598.995117188 c 0
 452.833007812 626.995117188 453.499023438 643.995117188 453.499023438 649.995117188 c 0
 453.499023438 665.328125 457.333007812 676.661132812 464.999023438 683.994140625 c 0
 472.666992188 691.327148438 481.833984375 694.994140625 492.500976562 694.994140625 c 2
 495.500976562 694.994140625 l 2
 506.833984375 694.994140625 516.166992188 691.827148438 523.499023438 685.494140625 c 0
 530.833007812 679.161132812 534.499023438 668.328125 534.499023438 652.995117188 c 0
 534.499023438 640.328125 533.999023438 614.495117188 532.999023438 575.495117188 c 0
 531.999023438 536.495117188 531.499023438 501.995117188 531.499023438 471.995117188 c 0
 531.499023438 441.995117188 531.833007812 398.995117188 532.499023438 342.995117188 c 0
 533.166992188 327.662109375 533.499023438 305.995117188 533.499023438 277.995117188 c 0xe8
 533.499023438 249.995117188 532.499023438 206.495117188 530.499023438 147.495117188 c 0
 528.499023438 88.4951171875 527.499023438 46.9951171875 527.499023438 22.9951171875 c 2
 527.499023438 16.9951171875 l 1
 527.499023438 14.9951171875 l 2
 527.499023438 4.328125 522.166992188 -4.671875 511.499023438 -12.0048828125 c 0
 502.833007812 -18.671875 492.833007812 -22.0048828125 481.499023438 -22.0048828125 c 1
 480.833007812 -28.0048828125 479.833007812 -27.671875 478.499023438 -21.0048828125 c 1
 467.833007812 -21.671875 459.166992188 -18.3388671875 452.499023438 -11.005859375 c 0
 447.166992188 -5.005859375 444.499023438 3.3271484375 444.499023438 13.994140625 c 2
 444.499023438 18.994140625 l 1xf0
 450.499023438 103.661132812 453.499023438 197.661132812 453.499023438 300.994140625 c 2
 453.499023438 342.995117188 l 1
 449.499023438 336.328125 445.831054688 335.994140625 442.499023438 341.994140625 c 1
 431.166015625 341.327148438 393.166015625 335.994140625 328.499023438 325.994140625 c 0
 264.499023438 316.661132812 218.166015625 311.994140625 189.499023438 311.994140625 c 2
 180.499023438 311.994140625 l 1
 180.499023438 301.994140625 l 2
 180.499023438 299.994140625 180.331054688 296.666992188 179.999023438 292 c 0xe8
EndSplineSet
Validated: 524289
EndChar

StartChar: I
Encoding: 73 73 42
Width: 630
GlyphClass: 2
Flags: HMW
HStem: -6.40211 58.3992 612 69.001 624 64.001
VStem: 273.5 76.001 280.5 75.001
LayerCount: 2
Fore
SplineSet
277.501953125 540 m 2xc8
 277.501953125 546.666992188 278.166992188 560.001953125 279.500976562 580.001953125 c 0
 280.833984375 600.001953125 281.501953125 611.668945312 281.501953125 615.001953125 c 2
 281.501953125 624.001953125 l 1
 247.501953125 624.668945312 219.168945312 625.001953125 196.501953125 625.001953125 c 0
 171.834960938 625.001953125 154.834960938 624.834960938 145.501953125 624.501953125 c 0
 136.168945312 624.168945312 131.168945312 624.001953125 130.501953125 624.001953125 c 0
 117.168945312 624.001953125 107.3359375 626.834960938 101.002929688 632.501953125 c 0
 94.669921875 638.168945312 91.5029296875 645.3359375 91.5029296875 654.002929688 c 2
 91.5029296875 657.002929688 l 2
 91.5029296875 665.002929688 94.5029296875 672.169921875 100.502929688 678.502929688 c 0
 106.502929688 684.8359375 116.8359375 688.002929688 131.502929688 688.002929688 c 0xa8
 186.834960938 690.002929688 236.499023438 691.002929688 280.499023438 691.002929688 c 0
 368.499023438 691.002929688 444.168945312 687.669921875 507.501953125 681.002929688 c 0
 518.834960938 679.669921875 527.502929688 677.002929688 533.502929688 673.002929688 c 0
 540.169921875 668.3359375 543.836914062 660.668945312 544.502929688 650.001953125 c 0
 544.502929688 640.001953125 541.502929688 630.668945312 535.502929688 622.001953125 c 0
 532.836914062 618.001953125 529.169921875 615.001953125 524.502929688 613.001953125 c 0
 521.169921875 611.668945312 518.169921875 611.001953125 515.502929688 611.001953125 c 0
 512.834960938 611.001953125 510.168945312 611.334960938 507.501953125 612.001953125 c 0
 486.834960938 615.334960938 436.166992188 619.001953125 355.500976562 623.001953125 c 1
 355.500976562 613.001953125 l 2
 355.500976562 607.668945312 355.166992188 590.168945312 354.500976562 560.501953125 c 0
 353.833984375 530.834960938 353.500976562 504.66796875 353.500976562 482.000976562 c 2
 353.500976562 436.000976562 l 2
 353.500976562 415.333984375 353.833984375 394.166992188 354.500976562 372.5 c 0
 355.166992188 350.833007812 355.500976562 326.166015625 355.500976562 298.499023438 c 0xc8
 355.500976562 270.83203125 354.500976562 227.999023438 352.500976562 169.999023438 c 0
 350.500976562 111.999023438 349.500976562 75.9990234375 349.500976562 61.9990234375 c 2
 349.500976562 51.9990234375 l 1
 358.500976562 51.9990234375 l 2
 382.500976562 51.9990234375 433.833984375 51.666015625 512.500976562 50.9990234375 c 0
 525.833984375 50.9990234375 534.666992188 48.4990234375 538.999023438 43.4990234375 c 0
 543.333007812 38.4990234375 545.833007812 31.666015625 546.499023438 22.9990234375 c 0
 546.499023438 17.666015625 545.999023438 12.9990234375 544.999023438 8.9990234375 c 0
 543.999023438 4.9990234375 542.166992188 0.9990234375 539.499023438 -3.0009765625 c 0
 538.166992188 -6.333984375 535.833984375 -8.5009765625 532.500976562 -9.5009765625 c 0
 529.166992188 -10.5009765625 526.000976562 -11.16796875 523.000976562 -11.5009765625 c 0
 520.000976562 -11.833984375 517.166992188 -11.6669921875 514.500976562 -11 c 0
 496.500976562 -8.3330078125 467.833984375 -7 428.500976562 -7 c 0
 423.833984375 -7 412.500976562 -6.8330078125 394.500976562 -6.5 c 0
 390.903320312 -6.43359375 387.052734375 -6.400390625 382.948242188 -6.400390625 c 0
 366.521484375 -6.400390625 346.038085938 -6.93359375 321.501953125 -8 c 2
 255.501953125 -15.2001953125 l 2
 240.834960938 -15.2001953125 226.166992188 -14.1337890625 211.500976562 -12.0009765625 c 0
 170.166992188 -13.333984375 141.666992188 -14.0009765625 126.000976562 -14.0009765625 c 0
 110.333984375 -14.0009765625 99.333984375 -11.5009765625 93.0009765625 -6.5009765625 c 0
 86.66796875 -1.5009765625 83.5009765625 4.9990234375 83.5009765625 12.9990234375 c 2
 83.5009765625 14.9990234375 l 2
 83.5009765625 22.9990234375 86.5009765625 30.166015625 92.5009765625 36.4990234375 c 0
 98.5009765625 42.83203125 108.833984375 46.33203125 123.500976562 46.9990234375 c 0
 151.500976562 47.666015625 201.500976562 48.998046875 273.500976562 50.998046875 c 1xd0
 278.166992188 133.665039062 280.500976562 215.999023438 280.500976562 297.999023438 c 0
 280.723632812 311.783203125 280.834960938 325.641601562 280.834960938 339.57421875 c 0
 280.834960938 367.418945312 280.389648438 395.560546875 279.501953125 423.998046875 c 0
 278.168945312 453.331054688 277.501953125 484.998046875 277.501953125 518.998046875 c 2
 277.501953125 540 l 2xc8
EndSplineSet
Validated: 524289
EndChar

StartChar: J
Encoding: 74 74 43
Width: 630
GlyphClass: 2
Flags: HMW
HStem: -34.999 82.001 626 65.001
VStem: 81.5 70 335.5 64.001
LayerCount: 2
Fore
SplineSet
219.500976562 626 m 0
 188.16796875 626 166.5 625.666015625 154.5 624.999023438 c 0
 142.5 624.33203125 136.166992188 623.999023438 135.5 623.999023438 c 0
 122.166992188 623.999023438 112.166992188 626.83203125 105.5 632.499023438 c 0
 98.8330078125 638.166015625 95.5 645.333007812 95.5 654 c 2
 95.5 657 l 2
 95.5 665 98.6669921875 672.166992188 105 678.5 c 0
 111.333007812 684.833007812 121.833007812 688 136.5 688 c 0
 191.166992188 690 240.5 691 284.5 691 c 0
 372.5 691 448.166992188 687.666992188 511.5 681 c 0
 522.833007812 680.333007812 531.5 677.666015625 537.5 672.999023438 c 0
 544.166992188 668.33203125 547.833984375 660.665039062 548.500976562 649.998046875 c 0
 548.500976562 639.998046875 545.500976562 630.665039062 539.500976562 621.998046875 c 0
 536.833984375 617.998046875 533.166992188 614.998046875 528.5 612.998046875 c 0
 525.833007812 611.665039062 523 610.998046875 520 610.998046875 c 0
 517 610.998046875 514.166992188 611.331054688 511.5 611.998046875 c 0
 491.5 615.331054688 452.833007812 618.331054688 395.5 620.998046875 c 1
 395.5 610.998046875 l 2
 395.5 591.665039062 396.166992188 562.33203125 397.5 522.999023438 c 0
 398.166992188 480.999023438 399.166992188 445.33203125 400.5 415.999023438 c 0
 401.833007812 387.999023438 402.5 353.83203125 402.5 313.499023438 c 0
 402.5 273.166015625 401.5 237.333007812 399.5 206 c 0
 394.833007812 146 387.666015625 98 377.999023438 62 c 0
 368.33203125 26 357.165039062 0.8330078125 344.498046875 -13.5 c 0
 331.831054688 -27.8330078125 316.831054688 -35 299.498046875 -35 c 0
 280.165039062 -35 260.83203125 -31.1669921875 241.499023438 -23.5 c 0
 222.166015625 -15.8330078125 205.166015625 -5.666015625 190.499023438 7.0009765625 c 0
 175.166015625 19.66796875 160.666015625 33.66796875 146.999023438 49.0009765625 c 0
 133.33203125 64.333984375 121.999023438 79.5009765625 112.999023438 94.5009765625 c 0
 103.999023438 109.500976562 96.83203125 123.000976562 91.4990234375 135.000976562 c 0
 86.166015625 147.000976562 83.166015625 156.66796875 82.4990234375 164.000976562 c 0
 81.83203125 167.333984375 81.4990234375 171.000976562 81.4990234375 175.000976562 c 0
 81.4990234375 183.000976562 82.83203125 192.000976562 85.4990234375 202.000976562 c 0
 86.83203125 208.66796875 89.9990234375 214.16796875 94.9990234375 218.500976562 c 0
 99.9990234375 222.833984375 106.499023438 225.666992188 114.499023438 227 c 2
 122.499023438 227 l 2
 130.499023438 227.666992188 136.83203125 225.666992188 141.499023438 221 c 0
 148.166015625 214.333007812 151.499023438 206 151.499023438 196 c 0
 151.499023438 176.666992188 157.499023438 154.333984375 169.499023438 129.000976562 c 0
 176.166015625 115.000976562 184.833007812 102.000976562 195.5 90.0009765625 c 0
 204.833007812 78.0009765625 217.666015625 67.833984375 233.999023438 59.5009765625 c 0
 250.33203125 51.16796875 268.499023438 47.0009765625 288.499023438 47.0009765625 c 0
 303.166015625 47.0009765625 314.166015625 60.66796875 321.499023438 88.0009765625 c 0
 328.83203125 117.333984375 333.499023438 164.666992188 335.499023438 230 c 2
 335.499023438 254 l 2
 335.499023438 267.333007812 334.999023438 310 333.999023438 382 c 0
 333.399414062 425.202148438 333.099609375 471.404296875 333.099609375 520.606445312 c 0
 333.099609375 553.404296875 333.233398438 587.536132812 333.5 623.000976562 c 1
 287.5 625.000976562 249.500976562 626 219.500976562 626 c 0
EndSplineSet
Validated: 524289
EndChar

StartChar: K
Encoding: 75 75 44
Width: 630
GlyphClass: 2
Flags: HMW
HStem: -21.0341 21G 694.001 21G
VStem: 88.499 79.002 92.501 83
LayerCount: 2
Fore
SplineSet
86.5 541.5 m 0xe0
 86.5 556.5 87.16796875 578.333007812 88.5009765625 607 c 0
 89.833984375 635 90.5009765625 652.666992188 90.5009765625 660 c 0
 91.16796875 678.666992188 95.16796875 692.333984375 102.500976562 701.000976562 c 0
 109.833984375 709.66796875 119.166992188 714.000976562 130.5 714.000976562 c 2
 133.5 714.000976562 l 2
 144.166992188 714.66796875 153.166992188 711.000976562 160.5 703.000976562 c 0
 167.83203125 695.66796875 171.5 682.334960938 171.5 663.001953125 c 0
 171.5 647.668945312 170.83203125 613.001953125 169.5 559.001953125 c 0
 168.166992188 505.001953125 167.166992188 452.334960938 166.5 401.001953125 c 1
 200.5 437.001953125 239.83203125 480.001953125 284.5 530.001953125 c 0
 373.83203125 625.334960938 426.5 680.001953125 442.5 694.001953125 c 0
 450.5 703.334960938 458.166992188 709.334960938 465.5 712.001953125 c 0
 470.166992188 714.001953125 474.166992188 715.001953125 477.5 715.001953125 c 0
 484.166992188 715.001953125 490.5 711.000976562 496.5 703.000976562 c 0
 501.83203125 694.333984375 504.5 685.334960938 504.5 676.001953125 c 0
 504.5 667.334960938 498.5 657.334960938 486.5 646.001953125 c 0
 476.5 634.001953125 442.5 597.668945312 384.5 537.001953125 c 0
 329.166992188 473.668945312 277.833984375 416.001953125 230.5 364.001953125 c 1
 236.5 357.001953125 l 2
 257.833984375 333.668945312 293.5 296.3359375 343.5 245.002929688 c 0
 444.16796875 142.3359375 504.5 79.3359375 524.5 56.0029296875 c 0
 533.16796875 46.0029296875 538.5 39.3359375 540.5 36.0029296875 c 0
 542.5 32.669921875 543.5 29.3369140625 543.5 26.00390625 c 0
 543.5 20.00390625 542.833984375 14.6708984375 541.5 10.00390625 c 0
 538.16796875 0.00390625 533.16796875 -7.6630859375 526.5 -12.99609375 c 0
 519.833984375 -18.3291015625 513.5 -20.9970703125 507.5 -20.9970703125 c 0
 507.10546875 -21.021484375 506.708984375 -21.0341796875 506.311523438 -21.0341796875 c 0
 495.9921875 -21.0341796875 485.0546875 -12.6875 473.5 4.0029296875 c 0
 466.166992188 13.3359375 442.5 36.3359375 402.5 73.0029296875 c 0
 365.166992188 110.3359375 324.833984375 151.3359375 281.5 196.002929688 c 0
 238.16796875 244.002929688 205.834960938 282.002929688 184.501953125 310.002929688 c 2
 167.501953125 331.002929688 l 1
 167.501953125 284.002929688 l 1xe0
 175.501953125 24.001953125 l 2
 174.834960938 9.3349609375 169.83203125 -1.9970703125 160.499023438 -9.9970703125 c 0
 151.166015625 -17.9970703125 140.8359375 -21.9970703125 129.502929688 -21.9970703125 c 1
 128.8359375 -27.9970703125 127.8359375 -27.6640625 126.502929688 -20.9970703125 c 1
 115.8359375 -21.6640625 107.168945312 -17.3310546875 100.501953125 -7.998046875 c 0
 95.1689453125 0.001953125 92.501953125 10.6689453125 92.501953125 24.001953125 c 2
 92.501953125 28.001953125 l 2xd0
 94.501953125 50.001953125 95.501953125 86.6689453125 95.501953125 138.001953125 c 0
 94.8349609375 233.334960938 92.5 339.001953125 88.5 455.001953125 c 0
 87.1669921875 497.668945312 86.5 526.5 86.5 541.5 c 0xe0
EndSplineSet
Validated: 524289
EndChar

StartChar: L
Encoding: 76 76 45
Width: 630
GlyphClass: 2
Flags: HMW
HStem: -15 67.001
VStem: 116.498 72.0039
LayerCount: 2
Fore
SplineSet
533 72.5 m 0
 536 68.1669921875 538.5 63.5 540.5 58.5 c 0
 542.5 53.5 543.5 48.6669921875 543.5 44 c 0
 543.5 34 541.333007812 26.5 537 21.5 c 0
 532.666992188 16.5 523.166992188 12.6669921875 508.5 10 c 0
 463.833007812 1.3330078125 398.833007812 -5 313.5 -9 c 0
 227.5 -13 163.166992188 -15 120.5 -15 c 0
 110.5 -15.6669921875 102.166992188 -12.333984375 95.5 -5.0009765625 c 0
 89.5 0.9990234375 86.5 9.33203125 86.5 19.9990234375 c 0
 86.5 21.9990234375 86.6669921875 24.9990234375 87 28.9990234375 c 0
 87.3330078125 32.9990234375 91.166015625 69.9990234375 98.4990234375 139.999023438 c 0
 105.83203125 211.33203125 111.165039062 279.999023438 114.498046875 345.999023438 c 0
 115.831054688 363.999023438 116.498046875 388.166015625 116.498046875 418.499023438 c 0
 116.498046875 448.83203125 116.331054688 471.83203125 115.998046875 487.499023438 c 0
 115.665039062 503.166015625 114.83203125 554.333007812 113.499023438 641 c 0
 114.166015625 657 118.333007812 668.666992188 126 676 c 0
 133.666992188 683.333007812 142.833984375 687 153.500976562 687 c 2
 156.500976562 687 l 2
 167.16796875 687 176.16796875 683.666992188 183.500976562 677 c 0
 190.833984375 670.333007812 194.500976562 659.666015625 194.500976562 644.999023438 c 0
 194.723632812 638.7734375 194.834960938 631.732421875 194.834960938 623.875976562 c 0
 194.834960938 608.174804688 194.390625 589.215820312 193.501953125 566.999023438 c 0
 191.501953125 517.666015625 189.834960938 475.333007812 188.501953125 440 c 0
 186.501953125 389.333007812 184.833984375 345.333007812 183.500976562 308 c 0
 182.833984375 280.666992188 180.501953125 240.333984375 176.501953125 187.000976562 c 0
 172.501953125 133.66796875 170.501953125 92.0009765625 170.501953125 62.0009765625 c 2
 170.501953125 52.0009765625 l 1
 194.500976562 52.0009765625 l 2
 243.833984375 52.66796875 301.16796875 56.3349609375 366.500976562 63.001953125 c 0
 434.500976562 69.6689453125 481.16796875 76.001953125 506.500976562 82.001953125 c 0
 509.16796875 82.6689453125 511.66796875 83.001953125 514.000976562 83.001953125 c 0
 516.333984375 83.001953125 518.833984375 82.6689453125 521.500976562 82.001953125 c 0
 526.16796875 80.001953125 530 76.8330078125 533 72.5 c 0
EndSplineSet
Validated: 524289
EndChar

StartChar: M
Encoding: 77 77 46
Width: 630
GlyphClass: 2
Flags: HMW
HStem: -10 21G<93.499 98.834> 684.001 20G
VStem: 64.4995 68.001 270.501 85.999
LayerCount: 2
Fore
SplineSet
121.5 5 m 0
 113.5 -5 104.166992188 -10 93.5 -10 c 0
 74.1669921875 -9.3330078125 64.5 13.333984375 64.5 58.0009765625 c 0
 64.5 66.0009765625 65.3330078125 79.833984375 67 99.5009765625 c 0
 68.6669921875 119.16796875 71.1669921875 145.000976562 74.5 177.000976562 c 0
 77.8330078125 209.000976562 80.5 237.000976562 82.5 261.000976562 c 0
 88.5 342.333984375 92.5 394.000976562 94.5 416.000976562 c 0
 97.1669921875 444.66796875 100.5 480.000976562 104.5 522.000976562 c 0
 112.5 603.333984375 120.83203125 652.333984375 129.5 669.000976562 c 0
 136.166992188 681.000976562 145.5 690.000976562 157.5 696.000976562 c 0
 168.83203125 701.333984375 179.5 704.000976562 189.5 704.000976562 c 2
 193.5 704.000976562 l 2
 204.83203125 704.000976562 214.166015625 702.000976562 221.499023438 698.000976562 c 0
 230.166015625 692.66796875 235.83203125 684.334960938 238.5 673.001953125 c 0
 245.83203125 643.668945312 254 595.3359375 263 528.002929688 c 0
 272 460.669921875 281.166992188 383.502929688 290.5 296.502929688 c 0
 299.83203125 209.502929688 306.5 152.002929688 310.5 124.002929688 c 0
 313.16796875 106.669921875 316.166992188 84 319.5 56 c 1
 321.5 83.3330078125 323.166992188 106.002929688 324.5 124.002929688 c 0
 330.5 218.669921875 337.5 303.669921875 345.5 379.002929688 c 0
 351.5 434.3359375 359.33203125 489.668945312 369 545.001953125 c 0
 378.666992188 600.334960938 387.166992188 643.001953125 394.5 673.001953125 c 0
 396.5 681.001953125 401 687.668945312 408 693.001953125 c 0
 415 698.334960938 422.166992188 701.66796875 429.5 703.000976562 c 0
 434.83203125 703.66796875 439.5 704.000976562 443.5 704.000976562 c 2
 453.5 704.000976562 l 1
 457.5 704.000976562 l 1
 470.5 704.000976562 l 2
 473.83203125 704.000976562 478.33203125 703.333984375 484 702.000976562 c 0
 489.666992188 700.66796875 493.833984375 698.834960938 496.5 696.501953125 c 0
 499.16796875 694.168945312 502 690.668945312 505 686.001953125 c 0
 508 681.334960938 510.16796875 675.334960938 511.5 668.001953125 c 0
 514.16796875 647.334960938 522 547.501953125 535 368.501953125 c 0
 548 189.501953125 557.16796875 88.001953125 562.5 64.001953125 c 0
 564.5 53.3349609375 565.5 43.66796875 565.5 35.0009765625 c 0
 565.5 15.0009765625 558.5 1.66796875 544.5 -4.9990234375 c 0
 539.833984375 -6.9990234375 535 -7.9990234375 530 -7.9990234375 c 0
 525 -7.9990234375 519.5 -6.33203125 513.5 -2.9990234375 c 0
 503.5 2.333984375 495.5 14.333984375 489.5 33.0009765625 c 0
 475.5 77.0009765625 463.16796875 271.000976562 452.5 615.000976562 c 0
 451.833984375 631.66796875 451.166992188 653.000976562 450.5 679.000976562 c 1
 446.5 653.66796875 442.5 633.000976562 438.5 617.000976562 c 0
 419.83203125 520.333984375 407.83203125 432.333984375 402.5 353.000976562 c 0
 397.166992188 277.000976562 389.666992188 205.000976562 380 137.000976562 c 0
 370.33203125 69.0009765625 362.5 27.66796875 356.5 13.0009765625 c 0
 351.166992188 -0.33203125 335.833984375 -6.9990234375 310.5 -6.9990234375 c 2
 306.5 -6.9990234375 l 2
 297.16796875 -6.9990234375 289.16796875 -5.166015625 282.5 -1.4990234375 c 0
 275.833984375 2.16796875 271.833984375 7.3349609375 270.5 14.001953125 c 0
 263.16796875 46.001953125 250.834960938 119.168945312 233.501953125 233.501953125 c 0
 216.16796875 347.834960938 200.16796875 458.001953125 185.501953125 564.001953125 c 0
 182.16796875 579.334960938 179.16796875 599.66796875 176.501953125 625.000976562 c 1
 174.501953125 599.66796875 172.501953125 579.334960938 170.501953125 564.001953125 c 0
 165.834960938 505.334960938 162.16796875 457.66796875 159.5 421.000976562 c 0
 157.5 387.000976562 155.5 358.000976562 153.5 334.000976562 c 0
 151.5 300.66796875 149.5 271.66796875 147.5 247.000976562 c 0
 145.5 219.000976562 143.16796875 190.000976562 140.5 160.000976562 c 0
 138.5 131.333984375 136.5 107.666992188 134.5 89 c 0
 133.16796875 75 132.5 64 132.5 56 c 0
 133.16796875 48 133.5 46 133.5 46 c 2
 133.5 28.6669921875 129.5 15 121.5 5 c 0
EndSplineSet
Validated: 524289
EndChar

StartChar: N
Encoding: 78 78 47
Width: 630
GlyphClass: 2
Flags: HMW
HStem: -11.998 21G 685 20G<136.5 144.5 496.501 504.834>
VStem: 88.501 63 95.751 58.7499 468.502 72.999 479.002 62.4988
LayerCount: 2
Fore
SplineSet
501.500976562 705 m 0xc8
 508.16796875 705 513.5 704.333007812 517.5 703 c 0
 521.5 701 524.5 699 526.5 697 c 0
 528.5 695 530.166992188 690.666992188 531.5 684 c 0
 533.5 680 534.833007812 675.666992188 535.5 671 c 0
 536.166992188 666.333007812 537.166992188 659 538.5 649 c 0
 539.833007812 639.666992188 540.833007812 586.666992188 541.5 490 c 2
 541.5 448 l 2
 541.5 364 540.5 285.666992188 538.5 213 c 0
 536.5 139.666992188 534.166992188 89.6669921875 531.5 63 c 0
 528.833007812 35 526.166015625 17.6669921875 523.499023438 11 c 0
 518.166015625 -5.6669921875 502.833007812 -14 477.5 -14 c 1
 475.5 -20.6669921875 473.833007812 -20.6669921875 472.5 -14 c 1
 463.833007812 -14 456.5 -11.6669921875 450.5 -7 c 0
 444.5 -2.3330078125 440.166992188 4 437.5 12 c 0
 432.833007812 22.6669921875 417.5 52.333984375 391.5 101.000976562 c 2
 317.5 247.000976562 l 2
 292.166992188 295.66796875 265.833984375 350.334960938 238.500976562 411.001953125 c 0
 210.500976562 473.001953125 188.833984375 525.668945312 173.500976562 569.001953125 c 0
 165.500976562 592.334960938 157.833984375 613.334960938 150.500976562 632.001953125 c 1
 151.833984375 610.001953125 153.166992188 586.668945312 154.5 562.001953125 c 0
 157.833007812 504.668945312 159.5 450.001953125 159.5 398.001953125 c 0
 159.5 384.668945312 159.166992188 359.3359375 158.5 322.002929688 c 0
 157.833007812 284.002929688 156.5 237.669921875 154.5 183.002929688 c 0xd8
 152.5 128.3359375 151.5 90.6689453125 151.5 70.001953125 c 2
 151.5 62.001953125 l 2
 152.166992188 57.3349609375 152.5 53.3349609375 152.5 50.001953125 c 2
 152.5 44.001953125 l 2
 152.5 24.6689453125 149.166992188 10.6689453125 142.5 2.001953125 c 0
 135.833007812 -7.3310546875 127.5 -11.998046875 117.5 -11.998046875 c 2
 115.5 -11.998046875 l 2
 110.833007812 -11.998046875 106.833007812 -10.6650390625 103.5 -7.998046875 c 0
 100.166992188 -5.3310546875 97.5 -0.6640625 95.5 6.0029296875 c 0
 90.8330078125 16.669921875 88.5 33.0029296875 88.5 55.0029296875 c 0xe0
 88.5 67.669921875 89.5 119.002929688 91.5 209.002929688 c 0
 93.5 299.669921875 94.8330078125 378.669921875 95.5 446.002929688 c 0
 95.6669921875 462.837890625 95.75 479.505859375 95.75 496.006835938 c 0
 95.75 545.504882812 95 593.50390625 93.5 640.002929688 c 2
 93.5 647.002929688 l 2
 94.1669921875 657.002929688 95.833984375 666.002929688 98.5009765625 674.002929688 c 0
 101.16796875 682.669921875 105.16796875 689.336914062 110.500976562 694.00390625 c 0
 119.833984375 701.336914062 130.5 705 142.5 705 c 0
 146.5 705 150.16796875 704.670898438 153.500976562 704.00390625 c 2
 154.5 704.00390625 l 2
 165.166992188 704.00390625 174.16796875 701.666992188 181.500976562 697 c 0
 190.16796875 691.666992188 196.16796875 682.00390625 199.500976562 668.00390625 c 0
 212.833984375 624.00390625 248.833984375 541.336914062 307.500976562 420.00390625 c 0
 365.500976562 299.336914062 415.833984375 202.00390625 458.500976562 128.00390625 c 0
 463.833984375 115.336914062 469.166992188 106.00390625 474.5 100.00390625 c 1
 475.166992188 110.00390625 475.833984375 122.336914062 476.500976562 137.00390625 c 0
 477.833984375 179.670898438 478.500976562 234.670898438 478.500976562 302.00390625 c 0
 478.834960938 318.670898438 479.001953125 336.170898438 479.001953125 354.50390625 c 0xd4
 479.001953125 372.836914062 478.834960938 392.00390625 478.501953125 412.00390625 c 0
 476.501953125 532.670898438 473.168945312 612.337890625 468.501953125 651.004882812 c 1
 468.501953125 657.004882812 l 2
 468.501953125 669.671875 471.168945312 680.338867188 476.501953125 689.005859375 c 0
 483.168945312 699.672851562 491.500976562 705 501.500976562 705 c 0xc8
EndSplineSet
Validated: 524289
EndChar

StartChar: O
Encoding: 79 79 48
Width: 630
GlyphClass: 2
Flags: HMW
HStem: -23.998 73.999 646.508 71.4923
VStem: 89.5 77.002 463.501 76.999
LayerCount: 2
Fore
SplineSet
419.5 120.001953125 m 0
 432.166992188 137.334960938 441.833984375 157.001953125 448.500976562 179.001953125 c 0
 451.16796875 187.668945312 454.000976562 208.001953125 457.000976562 240.001953125 c 0
 460.000976562 272.001953125 462.16796875 309.668945312 463.500976562 353.001953125 c 0
 464.16796875 365.668945312 464.500976562 378.3359375 464.500976562 391.002929688 c 0
 464.500976562 422.3359375 463.16796875 453.002929688 460.500976562 483.002929688 c 0
 456.500976562 529.002929688 441.500976562 567.669921875 415.500976562 599.002929688 c 0
 391.500976562 630.3359375 361.833984375 646.168945312 326.500976562 646.501953125 c 0
 326.095703125 646.505859375 325.690429688 646.5078125 325.286132812 646.5078125 c 0
 290.487304688 646.5078125 261.225585938 632.338867188 237.500976562 604.000976562 c 0
 214.16796875 576.000976562 196.834960938 537.66796875 185.501953125 489.000976562 c 0
 172.834960938 437.000976562 166.501953125 377.66796875 166.501953125 311.000976562 c 0
 167.168945312 269.66796875 169.501953125 233.334960938 173.501953125 202.001953125 c 0
 175.501953125 183.334960938 179.501953125 164.66796875 185.501953125 146.000976562 c 0
 191.501953125 127.333984375 198.834960938 111.000976562 207.501953125 97.0009765625 c 0
 215.501953125 83.0009765625 226.168945312 71.66796875 239.501953125 63.0009765625 c 0
 252.834960938 54.333984375 267.833007812 50.0009765625 284.5 50.0009765625 c 0
 319.833007812 50.0009765625 351.501953125 59.66796875 379.501953125 79.0009765625 c 0
 394.168945312 89.0009765625 407.5 102.668945312 419.5 120.001953125 c 0
89.5 261 m 2
 89.5 291.666992188 89.833984375 316.166992188 90.5009765625 334.5 c 0
 91.16796875 352.833007812 92.5009765625 377.333007812 94.5009765625 408 c 0
 98.5009765625 467.333007812 109.500976562 522 127.500976562 572 c 0
 144.16796875 614.666992188 172.500976562 649.666992188 212.500976562 677 c 0
 249.16796875 704.333007812 290.834960938 718 337.501953125 718 c 0
 360.834960938 718 383.16796875 713 404.500976562 703 c 0
 426.500976562 693 446.833984375 678.5 465.500976562 659.5 c 0
 484.16796875 640.5 499.66796875 616.166992188 512.000976562 586.5 c 0
 524.333984375 556.833007812 532.166992188 523.333007812 535.5 486 c 0
 538.833007812 444.666992188 540.5 402.333984375 540.5 359.000976562 c 0
 540.5 325.66796875 539.333007812 290.834960938 537 254.501953125 c 0
 534.666992188 218.168945312 530.5 188.668945312 524.5 166.001953125 c 0
 515.833007812 134.668945312 505.333007812 107.668945312 493 85.001953125 c 0
 480.666992188 62.3349609375 467.333984375 44.001953125 453.000976562 30.001953125 c 0
 438.66796875 16.001953125 422.16796875 5.001953125 403.500976562 -2.998046875 c 0
 386.16796875 -10.998046875 368.16796875 -16.6650390625 349.500976562 -19.998046875 c 0
 330.833984375 -22.6650390625 309.166992188 -23.998046875 284.5 -23.998046875 c 0
 249.166992188 -23.998046875 216.5 -11.998046875 186.5 12.001953125 c 0
 155.166992188 36.001953125 131.166992188 68.001953125 114.5 108.001953125 c 0
 97.8330078125 148.001953125 89.5 191.334960938 89.5 238.001953125 c 2
 89.5 243.001953125 l 1
 89.5 261 l 2
EndSplineSet
Validated: 524289
EndChar

StartChar: P
Encoding: 80 80 49
Width: 630
GlyphClass: 2
Flags: HMW
HStem: -19 21G<145.501 151.501 151.501 154.501> 230 71.998 639.996 52.0029
VStem: 108.501 75 115.701 81.7989 458.5 73<470.999 514.997>
LayerCount: 2
Fore
SplineSet
186.500976562 630.998046875 m 1xf4
 183.500976562 547.998046875 l 2
 181.3671875 480.26953125 180.30078125 417.874023438 180.30078125 360.810546875 c 0
 180.30078125 346.5390625 180.3671875 332.6015625 180.500976562 318.998046875 c 1
 187.500976562 316.998046875 l 2
 214.833984375 306.998046875 245.500976562 301.998046875 279.500976562 301.998046875 c 0
 297.500976562 301.998046875 314.000976562 303.498046875 329.000976562 306.498046875 c 0
 344.000976562 309.498046875 357.16796875 313.498046875 368.500976562 318.498046875 c 0
 379.833984375 323.498046875 389.833984375 329.998046875 398.500976562 337.998046875 c 0
 407.833984375 345.998046875 415.833984375 354.165039062 422.500976562 362.498046875 c 0
 429.16796875 370.831054688 434.834960938 380.331054688 439.501953125 390.998046875 c 0
 444.168945312 401.665039062 447.668945312 411.498046875 450.001953125 420.498046875 c 0
 452.334960938 429.498046875 454.16796875 439.665039062 455.500976562 450.998046875 c 0
 456.833984375 462.331054688 457.666992188 471.6640625 458 478.997070312 c 0
 458.333007812 486.330078125 458.5 494.997070312 458.5 504.997070312 c 0
 458.5 524.997070312 454.833007812 543.1640625 447.5 559.497070312 c 0
 440.166992188 575.830078125 430.833007812 588.997070312 419.5 598.997070312 c 0
 408.833007812 608.330078125 397.000976562 616.163085938 384.000976562 622.49609375 c 0
 371.000976562 628.829101562 358.66796875 633.329101562 347.000976562 635.99609375 c 0
 335.333984375 638.663085938 323.833007812 639.99609375 312.5 639.99609375 c 0
 291.833007812 639.99609375 249.833984375 636.998046875 186.500976562 630.998046875 c 1xf4
107.5 626 m 1
 106.166992188 621.333007812 104.5 622.998046875 102.5 630.998046875 c 0
 99.8330078125 635.665039062 98.5 640 98.5 644 c 0
 99.1669921875 644.666992188 99.5 645.666992188 99.5 647 c 0
 100.166992188 653.666992188 102.666992188 659.5 107 664.5 c 0
 111.333007812 669.5 115.833007812 672.666992188 120.5 674 c 0
 143.833007812 679.333007812 178.5 683.666015625 224.5 686.999023438 c 0
 266.5 690.33203125 295.833007812 691.999023438 312.5 691.999023438 c 0
 352.5 691.999023438 388.166992188 684.33203125 419.5 668.999023438 c 0
 453.5 653.666015625 480.5 630.666015625 500.5 599.999023438 c 0
 520.5 569.33203125 530.833007812 532.33203125 531.5 488.999023438 c 0
 531.5 452.999023438 525.666992188 419.166015625 514 387.499023438 c 0
 502.333007812 355.83203125 486.333007812 328.33203125 466 304.999023438 c 0
 445.666992188 281.666015625 421.5 263.333007812 393.5 250 c 0
 366.833007812 236.666992188 337.833007812 230 306.5 230 c 0
 259.833007812 230 222.5 233.333007812 194.5 240 c 1
 189.833007812 234.666992188 185.5 235.666992188 181.5 243 c 1
 184.166992188 189.666992188 188.166992188 130.666992188 193.5 66 c 0
 196.166992188 35.3330078125 197.5 17.666015625 197.5 12.9990234375 c 2
 197.5 11.9990234375 l 2
 197.5 2.666015625 193.5 -4.6669921875 185.5 -10 c 0
 176.166992188 -16 165.833984375 -19 154.500976562 -19 c 2
 151.500976562 -19 l 2
 139.500976562 -19 129.833984375 -15.6669921875 122.500976562 -9 c 0
 117.16796875 -3.6669921875 114.500976562 3.666015625 114.500976562 12.9990234375 c 0
 114.500976562 14.9990234375 114.66796875 20.166015625 115.000976562 28.4990234375 c 0
 115.333984375 36.83203125 115.500976562 55.6650390625 115.500976562 84.998046875 c 0
 115.634765625 91.7998046875 115.701171875 100.109375 115.701171875 109.926757812 c 0xec
 115.701171875 149.180664062 114.634765625 212.538085938 112.500976562 299.998046875 c 0
 110.500976562 371.998046875 109.500976562 420.998046875 109.500976562 446.998046875 c 0
 108.833984375 462.998046875 108.500976562 484.498046875 108.500976562 511.498046875 c 0
 108.500976562 538.498046875 109.16796875 575.665039062 110.500976562 622.998046875 c 1
 109.16796875 617.665039062 108.166992188 618.666992188 107.5 626 c 1
EndSplineSet
Validated: 524289
EndChar

StartChar: Q
Encoding: 81 81 50
Width: 630
GlyphClass: 2
Flags: HMW
HStem: -24.0667 74.0667 646.001 71.999
VStem: 85.514 75.998 282.509 51.0039 463.512 74.002
LayerCount: 2
Fore
SplineSet
232.514648438 -11 m 0
 210.514648438 -1.6669921875 190.513671875 11.166015625 172.513671875 27.4990234375 c 0
 154.513671875 43.83203125 139.180664062 63.33203125 126.513671875 85.9990234375 c 0
 101.846679688 129.999023438 88.1796875 182.666015625 85.5126953125 243.999023438 c 2
 85.5126953125 295.999023438 l 2
 85.49609375 298.634765625 85.48828125 301.259765625 85.48828125 303.874023438 c 0
 85.48828125 408.397460938 98.49609375 496.10546875 124.512695312 566.999023438 c 0
 139.845703125 609.666015625 167.845703125 645.333007812 208.512695312 674 c 0
 246.512695312 703.333007812 288.512695312 718 334.512695312 718 c 0
 382.512695312 717.333007812 424.512695312 699.333007812 460.512695312 664 c 0
 478.512695312 646.666992188 493.845703125 622.833984375 506.512695312 592.500976562 c 0
 519.1796875 562.16796875 527.512695312 527.66796875 531.512695312 489.000976562 c 0
 535.512695312 450.333984375 537.512695312 406.000976562 537.512695312 356.000976562 c 0
 537.512695312 269.333984375 533.1796875 204.000976562 524.512695312 160.000976562 c 0
 510.512695312 89.333984375 479.1796875 39.0009765625 430.512695312 9.0009765625 c 0
 427.1796875 2.333984375 424.1796875 0.6669921875 421.512695312 4 c 1
 438.845703125 -21.3330078125 455.178710938 -44.3330078125 470.51171875 -65 c 0
 485.178710938 -85 496.01171875 -99.5 503.01171875 -108.5 c 0
 510.01171875 -117.5 522.51171875 -133.666992188 540.51171875 -157 c 0
 543.178710938 -160.333007812 544.51171875 -164.333007812 544.51171875 -169 c 2
 544.51171875 -173 l 2
 543.178710938 -180.333007812 540.678710938 -187.166015625 537.01171875 -193.499023438 c 0
 533.344726562 -199.83203125 529.51171875 -204.33203125 525.51171875 -206.999023438 c 0
 520.178710938 -210.33203125 514.51171875 -211.999023438 508.51171875 -211.999023438 c 0
 505.844726562 -211.999023438 502.844726562 -211.666015625 499.51171875 -210.999023438 c 0
 489.51171875 -207.666015625 480.51171875 -201.333007812 472.51171875 -192 c 0
 462.51171875 -180.666992188 446.51171875 -158.666992188 424.51171875 -126 c 0
 404.51171875 -93.3330078125 383.51171875 -58 361.51171875 -20 c 1
 359.51171875 -26.6669921875 357.51171875 -27 355.51171875 -21 c 1
 340.178710938 -23 323.178710938 -24 304.51171875 -24 c 0
 302.778320312 -24.044921875 301.053710938 -24.0673828125 299.337890625 -24.0673828125 c 0
 275.321289062 -24.0673828125 253.047851562 -19.7109375 232.514648438 -11 c 0
321.51171875 208.999023438 m 0
 326.178710938 205.666015625 330.178710938 199.333007812 333.51171875 190 c 0
 344.178710938 156.666992188 360.178710938 120.333984375 381.51171875 81.0009765625 c 2
 386.51171875 71.0009765625 l 1
 394.51171875 77.0009765625 l 2
 423.844726562 98.333984375 443.177734375 131.333984375 452.510742188 176.000976562 c 0
 454.510742188 185.333984375 456.84375 205.666992188 459.510742188 237 c 0
 461.510742188 267.666992188 462.84375 306 463.510742188 352 c 2
 463.510742188 368 l 2
 463.59375 373.084960938 463.635742188 378.138671875 463.635742188 383.161132812 c 0
 463.635742188 418.305664062 461.59375 451.918945312 457.510742188 484.000976562 c 0
 451.510742188 532.66796875 436.177734375 572.000976562 411.510742188 602.000976562 c 0
 388.84375 631.333984375 359.510742188 646.000976562 323.510742188 646.000976562 c 0
 287.510742188 646.000976562 257.510742188 632.333984375 233.510742188 605.000976562 c 0
 209.510742188 577.66796875 191.84375 539.66796875 180.510742188 491.000976562 c 0
 167.84375 439.000976562 161.510742188 383.66796875 161.510742188 325.000976562 c 2
 161.510742188 321.000976562 l 2
 162.177734375 302.333984375 163.177734375 282.666992188 164.510742188 262 c 0
 167.177734375 221.333007812 174.677734375 185.5 187.010742188 154.5 c 0
 199.34375 123.5 215.676757812 98.3330078125 236.009765625 79 c 0
 256.342773438 59.6669921875 279.17578125 50 304.508789062 50 c 2
 313.508789062 50 l 1
 328.508789062 50 l 1
 321.508789062 65 l 2
 306.841796875 94.3330078125 296.674804688 116.833007812 291.0078125 132.5 c 0
 285.340820312 148.166992188 282.5078125 161.666992188 282.5078125 173 c 0
 282.5078125 187 287.174804688 198 296.5078125 206 c 0
 301.840820312 210.666992188 306.840820312 213 311.5078125 213 c 0
 314.840820312 213 318.178710938 211.666015625 321.51171875 208.999023438 c 0
EndSplineSet
Validated: 524289
EndChar

StartChar: R
Encoding: 82 82 51
Width: 630
GlyphClass: 2
Flags: HMW
HStem: -18.998 21G 280.633 68.3692 675.001 20G
VStem: 90.501 76.001 94.502 83.998 99.168 59.3317 100.001 70.5 456.499 72.0029
LayerCount: 2
Fore
SplineSet
434.501953125 504.000976562 m 0xe3
 419.834960938 522.66796875 402.500976562 538.834960938 382.500976562 552.501953125 c 0
 362.500976562 566.168945312 340.16796875 578.668945312 315.500976562 590.001953125 c 0
 268.833984375 610.668945312 222.833984375 625.001953125 177.500976562 633.001953125 c 2
 166.500976562 635.001953125 l 1xf1
 167.833984375 578.334960938 169.166992188 532.334960938 170.5 497.001953125 c 0
 170.5 485.001953125 169.499023438 465.334960938 167.499023438 438.001953125 c 0
 166.83203125 429.334960938 164.166015625 400.334960938 159.499023438 351.001953125 c 1
 167.499023438 350.001953125 l 2
 176.260742188 348.477539062 186.981445312 347.715820312 199.661132812 347.715820312 c 0
 209.171875 347.715820312 219.784179688 348.14453125 231.499023438 349.001953125 c 0
 309.499023438 352.334960938 362.83203125 359.334960938 391.499023438 370.001953125 c 0
 402.83203125 374.001953125 413.499023438 379.334960938 423.499023438 386.001953125 c 0
 445.499023438 400.001953125 456.499023438 419.668945312 456.499023438 445.001953125 c 0
 456.499023438 465.668945312 449.168945312 485.333984375 434.501953125 504.000976562 c 0xe3
469.500976562 3 m 0
 458.833984375 17 443.49609375 34.66796875 423.49609375 56.0009765625 c 0
 405.49609375 76.66796875 383.666015625 99.5009765625 357.999023438 124.500976562 c 0
 332.33203125 149.500976562 303.165039062 174.333984375 270.498046875 199.000976562 c 0
 237.831054688 223.66796875 204.831054688 243.334960938 171.498046875 258.001953125 c 1
 166.831054688 253.334960938 162.1640625 255.334960938 157.497070312 264.001953125 c 1
 158.1640625 252.668945312 158.497070312 249.001953125 158.497070312 249.001953125 c 2xe5
 159.830078125 210.334960938 163.497070312 163.001953125 169.497070312 107.001953125 c 0
 175.497070312 51.001953125 178.497070312 19.3349609375 178.497070312 12.001953125 c 0
 177.830078125 2.6689453125 173.497070312 -4.6640625 165.497070312 -9.9970703125 c 0
 156.1640625 -15.9970703125 145.831054688 -18.9970703125 134.498046875 -18.9970703125 c 2
 131.498046875 -18.9970703125 l 2
 120.165039062 -18.9970703125 110.83203125 -15.6640625 103.499023438 -8.9970703125 c 0
 97.4990234375 -3.6640625 94.4990234375 3.6689453125 94.4990234375 13.001953125 c 0xe9
 95.166015625 14.3349609375 95.4990234375 16.3349609375 95.4990234375 19.001953125 c 0
 97.4990234375 53.6689453125 98.666015625 83.501953125 98.9990234375 108.501953125 c 0
 99.1103515625 116.827148438 99.166015625 129.051757812 99.166015625 145.176757812 c 0xe5
 99.166015625 177.473632812 98.943359375 225.415039062 98.498046875 289.000976562 c 2
 98.498046875 305.500976562 l 2
 98.498046875 314.500976562 98.998046875 333.000976562 99.998046875 361.000976562 c 0xe3
 100.998046875 389.000976562 101.498046875 412.833984375 101.498046875 432.500976562 c 0
 101.498046875 452.16796875 101.165039062 472.000976562 100.498046875 492.000976562 c 0
 99.8310546875 512.000976562 97.998046875 541.500976562 94.998046875 580.500976562 c 0
 91.998046875 619.500976562 90.498046875 642.66796875 90.498046875 650.000976562 c 2
 90.498046875 656.000976562 l 1
 90.498046875 659.000976562 l 2xf1
 90.498046875 667.000976562 94.1650390625 674.66796875 101.498046875 682.000976562 c 0
 108.165039062 690.66796875 117.83203125 695.000976562 130.499023438 695.000976562 c 0
 141.166015625 695.000976562 149.499023438 692.66796875 155.499023438 688.000976562 c 1
 156.83203125 681.333984375 157.830078125 681.000976562 158.497070312 687.000976562 c 1xe5
 212.497070312 684.333984375 259.999023438 677.166992188 300.999023438 665.5 c 0
 341.999023438 653.833007812 375.83203125 639.666015625 402.499023438 622.999023438 c 0
 430.499023438 606.33203125 454.33203125 587.33203125 473.999023438 565.999023438 c 0
 493.666015625 544.666015625 507.666015625 523.499023438 515.999023438 502.499023438 c 0
 524.33203125 481.499023438 528.499023438 460.33203125 528.499023438 438.999023438 c 0
 528.499023438 408.33203125 520.83203125 382.999023438 505.499023438 362.999023438 c 0
 498.166015625 353.666015625 488.499023438 345.166015625 476.499023438 337.499023438 c 0
 464.499023438 329.83203125 451.499023438 323.33203125 437.499023438 317.999023438 c 0
 424.166015625 312.666015625 408.829101562 307.833007812 391.49609375 303.5 c 0
 374.163085938 299.166992188 356.666992188 295.833984375 339 293.500976562 c 0
 321.333007812 291.16796875 301.5 289.000976562 279.5 287.000976562 c 0
 273.7109375 282.755859375 267.809570312 280.6328125 261.796875 280.6328125 c 0
 257.423828125 280.6328125 252.9921875 281.755859375 248.500976562 284.000976562 c 1
 256.301757812 273.201171875 264.372070312 267.801757812 272.711914062 267.801757812 c 0
 273.638671875 267.801757812 274.568359375 267.868164062 275.501953125 268.000976562 c 0
 336.168945312 234.000976562 390.16796875 194.333984375 437.500976562 149.000976562 c 0
 488.16796875 103.000976562 521.501953125 64.333984375 537.501953125 33.0009765625 c 0
 538.834960938 28.333984375 539.501953125 23.833984375 539.501953125 19.5009765625 c 0
 539.501953125 15.16796875 538.834960938 11.0009765625 537.501953125 7.0009765625 c 0
 534.168945312 -0.33203125 529.168945312 -6.33203125 522.501953125 -10.9990234375 c 0
 516.501953125 -15.666015625 510.501953125 -17.9990234375 504.501953125 -17.9990234375 c 0
 491.834960938 -17.9990234375 480.16796875 -11 469.500976562 3 c 0
EndSplineSet
Validated: 524289
EndChar

StartChar: S
Encoding: 83 83 52
Width: 630
GlyphClass: 2
Flags: HMW
HStem: -29.0049 67.0049 664.997 59.1678
VStem: 113.499 81 466.496 80.0039
LayerCount: 2
Fore
SplineSet
84.4970703125 102 m 0
 86.4970703125 110.666992188 91.830078125 117 100.497070312 121 c 0
 107.830078125 124.333007812 112.997070312 126.333007812 115.997070312 127 c 0
 118.997070312 127.666992188 121.497070312 128 123.497070312 128 c 2
 129.497070312 128 l 2
 133.497070312 128 137.6640625 126 141.997070312 122 c 0
 146.330078125 118 151.163085938 112 156.49609375 104 c 0
 169.829101562 84 187.49609375 68 209.49609375 56 c 0
 230.163085938 44 253.49609375 38 279.49609375 38 c 0
 294.829101562 38 310.99609375 40.3330078125 327.99609375 45 c 0
 344.99609375 49.6669921875 361.49609375 56.6669921875 377.49609375 66 c 0
 393.49609375 75.3330078125 407.829101562 86.666015625 420.49609375 99.9990234375 c 0
 433.829101562 113.33203125 444.829101562 128.999023438 453.49609375 146.999023438 c 0
 462.163085938 164.999023438 466.49609375 183.999023438 466.49609375 203.999023438 c 0
 466.49609375 214.666015625 465.829101562 224.499023438 464.49609375 233.499023438 c 0
 463.163085938 242.499023438 460.330078125 252.166015625 455.997070312 262.499023438 c 0
 451.6640625 272.83203125 446.1640625 282.33203125 439.497070312 290.999023438 c 0
 432.830078125 299.666015625 423.830078125 308.333007812 412.497070312 317 c 0
 401.1640625 325.666992188 388.331054688 333 373.998046875 339 c 0
 359.665039062 345 341.998046875 350.666992188 320.998046875 356 c 0
 299.998046875 361.333007812 276.831054688 365.666015625 251.498046875 368.999023438 c 0
 230.831054688 371.666015625 211.831054688 377.666015625 194.498046875 386.999023438 c 0
 175.831054688 396.33203125 160.831054688 407.83203125 149.498046875 421.499023438 c 0
 138.165039062 435.166015625 129.33203125 449.666015625 122.999023438 464.999023438 c 0
 116.666015625 480.33203125 113.499023438 495.33203125 113.499023438 509.999023438 c 0
 113.499023438 531.999023438 117.166015625 553.33203125 124.499023438 573.999023438 c 0
 131.83203125 594.666015625 143.165039062 614.166015625 158.498046875 632.499023438 c 0
 173.831054688 650.83203125 192.1640625 666.665039062 213.497070312 679.998046875 c 0
 233.497070312 693.331054688 257.6640625 703.998046875 285.997070312 711.998046875 c 0
 314.330078125 719.998046875 344.830078125 723.998046875 377.497070312 723.998046875 c 0
 380.165039062 724.109375 383.018554688 724.165039062 386.057617188 724.165039062 c 0
 401.2421875 724.165039062 421.055664062 722.776367188 445.497070312 719.999023438 c 0
 476.1640625 716.666015625 496.831054688 712.999023438 507.498046875 708.999023438 c 0
 518.165039062 704.999023438 525.498046875 698.999023438 529.498046875 690.999023438 c 0
 533.498046875 684.33203125 535.498046875 677.665039062 535.498046875 670.998046875 c 0
 535.498046875 662.331054688 533.498046875 655.998046875 529.498046875 651.998046875 c 0
 526.831054688 648.665039062 523.498046875 646.83203125 519.498046875 646.499023438 c 0
 515.498046875 646.166015625 511.831054688 645.999023438 508.498046875 645.999023438 c 0
 499.165039062 645.999023438 490.165039062 647.666015625 481.498046875 650.999023438 c 0
 469.498046875 654.33203125 459.831054688 656.665039062 452.498046875 657.998046875 c 0
 445.165039062 659.331054688 433.83203125 660.6640625 418.499023438 661.997070312 c 0
 403.83203125 663.997070312 387.499023438 664.997070312 369.499023438 664.997070312 c 0
 340.83203125 664.997070312 313.499023438 660.330078125 287.499023438 650.997070312 c 0
 260.83203125 640.997070312 238.83203125 625.997070312 221.499023438 605.997070312 c 0
 203.499023438 585.997070312 194.499023438 562.997070312 194.499023438 536.997070312 c 0
 195.166015625 506.997070312 207.166015625 481.997070312 230.499023438 461.997070312 c 0
 252.499023438 441.997070312 283.166015625 430.997070312 322.499023438 428.997070312 c 0
 356.499023438 426.997070312 386.166015625 421.330078125 411.499023438 411.997070312 c 0
 438.166015625 402.6640625 459.833007812 391.331054688 476.5 377.998046875 c 0
 493.166992188 364.665039062 507 348.998046875 518 330.998046875 c 0
 529 312.998046875 536.5 295.331054688 540.5 277.998046875 c 0
 544.5 260.665039062 546.5 241.998046875 546.5 221.998046875 c 0
 546.5 191.331054688 541.5 162.6640625 531.5 135.997070312 c 0
 521.5 109.330078125 507.666992188 86.1630859375 490 66.49609375 c 0
 472.333007812 46.8291015625 451.5 29.662109375 427.5 14.9951171875 c 0
 406.166992188 0.328125 382.5 -10.671875 356.5 -18.0048828125 c 0
 330.5 -25.337890625 303.833007812 -29.0048828125 276.5 -29.0048828125 c 0
 234.5 -29.0048828125 196.5 -20.0048828125 162.5 -2.0048828125 c 0
 128.5 15.9951171875 105.166992188 37.662109375 92.5 62.9951171875 c 0
 86.5 75.662109375 83.5 86.3291015625 83.5 94.99609375 c 0
 83.5 97.6630859375 83.830078125 100 84.4970703125 102 c 0
EndSplineSet
Validated: 524289
EndChar

StartChar: T
Encoding: 84 84 53
Width: 630
GlyphClass: 2
Flags: HMW
HStem: 612 69<511 513 509 517.333> 640.499 54.499
VStem: 278.999 75 288.999 76.001
LayerCount: 2
Fore
SplineSet
121.999023438 694 m 0x60
 159.33203125 688 289 683.666992188 511 681 c 0
 523.666992188 681 532.666992188 678 538 672 c 0
 543.333007812 666 546.333007812 658.666992188 547 650 c 0
 547 639.333007812 543.666992188 630 537 622 c 0
 531.666992188 615.333007812 523.666992188 612 513 612 c 2
 509 612 l 2
 490.333007812 610.366210938 471.870117188 609.549804688 453.611328125 609.549804688 c 0
 419.703125 609.549804688 386.499023438 612.366210938 353.999023438 618 c 1xa0
 354.666015625 475.333007812 358.333007812 277.333007812 365 24 c 0
 364.333007812 12.6669921875 359.666015625 3.6669921875 350.999023438 -3 c 0
 342.33203125 -9.6669921875 332.999023438 -13 322.999023438 -13 c 1
 321.666015625 -19.6669921875 320.666015625 -19.6669921875 319.999023438 -13 c 1
 309.999023438 -13 301.999023438 -9.3330078125 295.999023438 -2 c 0
 291.33203125 3.3330078125 288.999023438 11 288.999023438 21 c 0x90
 288.999023438 23 289.166015625 26.6669921875 289.499023438 32 c 0
 289.83203125 37.3330078125 289.999023438 51.666015625 289.999023438 74.9990234375 c 0
 289.999023438 122.999023438 288.166015625 208.33203125 284.499023438 330.999023438 c 0
 280.83203125 453.666015625 278.999023438 540.999023438 278.999023438 592.999023438 c 2
 278.999023438 619.999023438 l 1
 190.33203125 624.666015625 139.33203125 627.999023438 125.999023438 629.999023438 c 0
 112.666015625 631.999023438 102.333007812 635.499023438 95 640.499023438 c 0
 87.6669921875 645.499023438 84 651.999023438 84 659.999023438 c 1
 83.3330078125 653.999023438 83 654.666015625 83 661.999023438 c 0
 83 671.33203125 86.3330078125 679.665039062 93 686.998046875 c 0
 97.6669921875 692.331054688 104.333984375 694.998046875 113.000976562 694.998046875 c 0
 115.66796875 694.998046875 118.666015625 694.666992188 121.999023438 694 c 0x60
EndSplineSet
Validated: 524289
EndChar

StartChar: U
Encoding: 85 85 54
Width: 630
GlyphClass: 2
Flags: HMW
HStem: -28.999 71 669.52 20G
VStem: 78.5379 73.9219 477.461 74.001
LayerCount: 2
Fore
SplineSet
547.461914062 250 m 0
 546.794921875 220.666992188 542.961914062 193.334960938 535.961914062 168.001953125 c 0
 528.961914062 142.668945312 520.461914062 120.668945312 510.461914062 102.001953125 c 0
 500.461914062 83.3349609375 488.62890625 66.501953125 474.961914062 51.501953125 c 0
 461.294921875 36.501953125 446.794921875 24.001953125 431.461914062 14.001953125 c 0
 417.461914062 4.001953125 402.794921875 -4.1650390625 387.461914062 -10.498046875 c 0
 372.12890625 -16.8310546875 357.12890625 -21.498046875 342.461914062 -24.498046875 c 0
 327.794921875 -27.498046875 312.627929688 -28.998046875 296.9609375 -28.998046875 c 0
 281.293945312 -28.998046875 264.793945312 -26.498046875 247.4609375 -21.498046875 c 0
 230.127929688 -16.498046875 212.127929688 -7.6650390625 193.4609375 5.001953125 c 0
 173.4609375 17.6689453125 155.793945312 33.501953125 140.4609375 52.501953125 c 0
 125.127929688 71.501953125 112.127929688 96.001953125 101.4609375 126.001953125 c 0
 90.7939453125 156.001953125 84.7939453125 190.334960938 83.4609375 229.001953125 c 0
 80.1787109375 353.721679688 78.5380859375 453.825195312 78.5380859375 529.3125 c 0
 78.5380859375 576.490234375 79.1787109375 614.053710938 80.4609375 642.001953125 c 0
 80.4609375 657.334960938 84.6279296875 669.16796875 92.9609375 677.500976562 c 0
 100.973632812 685.513671875 110.373046875 689.520507812 121.16015625 689.520507812 c 0
 121.590820312 689.520507812 122.024414062 689.513671875 122.459960938 689.500976562 c 0
 133.79296875 689.16796875 141.79296875 685.334960938 146.459960938 678.001953125 c 0
 150.459960938 671.334960938 152.459960938 661.334960938 152.459960938 648.001953125 c 0
 153.126953125 422.001953125 155.126953125 285.334960938 158.459960938 238.001953125 c 0
 159.79296875 215.334960938 162.125976562 196.334960938 165.458984375 181.001953125 c 0
 168.791992188 165.668945312 174.458984375 149.168945312 182.458984375 131.501953125 c 0
 190.458984375 113.834960938 199.791992188 98.66796875 210.458984375 86.0009765625 c 0
 221.125976562 73.333984375 234.625976562 62.833984375 250.958984375 54.5009765625 c 0
 267.291992188 46.16796875 285.791992188 42.0009765625 306.458984375 42.0009765625 c 0
 353.125976562 42.66796875 390.79296875 59.66796875 419.459960938 93.0009765625 c 0
 450.126953125 126.333984375 467.793945312 176.666992188 472.4609375 244 c 0
 474.4609375 272.666992188 475.793945312 305.166992188 476.4609375 341.5 c 0
 477.127929688 377.833007812 477.4609375 405 477.4609375 423 c 0
 477.4609375 441 477.293945312 469.833007812 476.9609375 509.5 c 0
 476.627929688 549.166992188 476.4609375 590.666992188 476.4609375 634 c 0
 476.4609375 661.333007812 480.127929688 678 487.4609375 684 c 0
 490.793945312 686.666992188 494.293945312 688.5 497.9609375 689.5 c 0
 501.627929688 690.5 506.4609375 691 512.4609375 691 c 0
 521.793945312 691 529.793945312 687.166992188 536.4609375 679.5 c 0
 543.127929688 671.833007812 546.794921875 660.333007812 547.461914062 645 c 0
 550.12890625 593 551.461914062 534 551.461914062 468 c 0
 551.461914062 402 550.12890625 329.333007812 547.461914062 250 c 0
EndSplineSet
Validated: 524289
EndChar

